M48
;Layer_Color=9474304
;FILE_FORMAT=2:5
INCH
;TYPE=PLATED
T1F00S00C0.01181
T2F00S00C0.03543
;TYPE=NON_PLATED
T3F00S00C0.03917
T4F00S00C0.08661
%
T01
X0723229Y3278347
X0727559
X0725394Y3274017
X0723229Y3269686
X0727559
X0725394Y3265355
X0723229Y3261024
X0727559
X0725394Y3256694
X0723229Y3252363
X0727559
X0725394Y3248032
X0723229Y3243702
X0727559
X0725394Y3239371
X0723229Y3226379
X0727559
X0729725Y3222048
X0725394
X0723229Y3217717
X0740551
X0744882
X0747048Y3213387
X0751378
X0749213Y3209056
X0753544
X0755709Y3204725
X0760040
X0757874Y3200395
X0762205
X0753544
X0749213
X0744882
X0740551
X0747048Y3204725
X0751378
X0744882Y3209056
X0766536
X0770866
X0775197
X0779528
X0777362Y3204725
X0773032
X0768701
X0770178Y3217810
X0766536Y3217717
X0762205
X0757874
X0776280Y3219385
X0778052Y3221550
X0778249Y3224306
X0775296
X0778052Y3238873
X0778145Y3246747
X0777362Y3256694
X0768701
X0766536Y3252363
Y3243702
X0769390Y3236118
X0768701Y3265355
X0751378
X0746556Y3276078
X0740257Y3238283
X0738386Y3230710
X0788485Y3239267
X0801183Y3238905
X0801168Y3235937
X0800431Y3245173
X0800887Y3252653
X0811910Y3254227
X0813879Y3255803
X0816252Y3256339
X0819209Y3256077
X0822177Y3256123
X0825144Y3256022
X0827855
X0830414
X0832973
X0831496Y3261024
X0827166
X0822835
X0818504
X0824902Y3265054
X0824902Y3270763
X0820375Y3276471
X0811713Y3275881
X0807383Y3276669
X0807677Y3274017
X0811713Y3270645
X0811516Y3266039
X0798525Y3267220
X0795769Y3268007
X0787942Y3256393
X0817407Y3246655
Y3243686
Y3240718
X0816947Y3237785
X0815231Y3235363
X0818504Y3235040
X0822835
X0827166
X0831496
X0829331Y3239371
X0825000
X0820669
X0822835Y3243702
X0827166
X0831496
X0828249Y3249567
X0825887
X0823423
X0825000Y3230710
X0829331
X0827166Y3226379
X0831496
X0829331Y3222048
X0825000
X0822835Y3217717
X0827166
X0831496
X0829331Y3213387
X0825000
X0820669
X0816339
X0812008
X0807677
X0809843Y3217717
X0810926Y3220763
X0806005Y3220566
X0814174Y3217717
X0818504
Y3209056
X0822835
X0827166
X0831496
X0829331Y3204725
X0825000
X0827166Y3200395
X0831496
X0814174Y3209056
X0809843
X0796950Y3216826
X0788189Y3209056
X0783858
X0781693Y3204725
X0812585Y3234017
X0831005Y3277850
X0835335Y3279818
X0842323Y3274017
X0846654
X0850984
X0855315
X0859646
X0863977
X0868307
X0872638
X0870473Y3278347
X0866142
X0861811
X0857481
X0853150
X0848819
X0842323Y3282678
X0834745Y3282574
X0837992Y3291339
X0838091Y3303243
X0853150Y3304332
X0857481
X0861811
X0866142
X0870473
X0872638Y3308662
X0868307
X0863977
X0859646
X0855315
X0850984
X0853150Y3312993
X0857481
X0850984Y3317324
X0848819Y3321655
X0846654Y3325985
X0837992
X0833662
X0829331
X0825000
X0820669
X0816339
X0812894Y3321157
X0812008Y3317324
X0803347
X0799016
X0796556Y3315921
X0796851Y3312993
X0799016Y3308662
X0803347
X0796851Y3304332
X0799016Y3300001
X0794685
X0787698Y3295960
X0784548Y3294779
X0786910Y3291154
X0789469Y3289045
X0797881Y3289070
X0812698Y3296550
X0812008Y3300001
X0823328Y3292613
X0827166Y3312993
X0829331Y3317324
X0832580Y3317613
X0825000Y3317324
X0839272Y3318991
X0855315Y3300001
X0859646
X0863977
X0868307
X0872638
X0870473Y3295670
X0872638Y3291339
X0868307
X0866142Y3287009
X0870473
X0872638Y3282678
X0868307
X0863977
X0859646
X0861811Y3287009
X0856595Y3286511
X0781693Y3308662
Y3317324
X0787894Y3318401
X0798524Y3329700
X0770866Y3330316
X0766536
X0762205
X0757874
X0760040Y3325985
X0764370
X0768701
X0766536Y3321655
X0762205
X0757874
X0760040Y3317324
X0764370
X0755709
X0751378
X0747048
X0742717
X0740551Y3312993
X0744882
X0749213
X0753544
X0757874
X0755709Y3308662
X0751378
X0747048
X0742717
X0738386
X0734055
X0729725
X0725394
X0723229Y3312993
Y3304332
X0727559
X0731890
X0736221
X0740551
X0744882
X0742717Y3300001
X0738386
X0751378
X0755709
X0753544Y3295670
X0757874
X0762205
X0761055Y3288547
X0743997Y3290448
X0749213Y3295670
X0744882Y3321655
X0747048Y3325985
X0744882Y3330316
X0777362Y3317324
Y3308662
X0775197Y3304332
X0779528
X0777362Y3300001
X0727559Y3287009
X0723229
X0725394Y3282678
T02
X0790335Y3203046
X0800335
X0810335
X0820335
T03
X0786162Y3324247
X0806162Y3328247
Y3320247
T04
X0731989Y3209346
X0864666Y3209346
Y3322338
X0731989Y3322338
M30
