G04*
G04 #@! TF.GenerationSoftware,Altium Limited,Altium Designer,19.0.15 (446)*
G04*
G04 Layer_Color=16711935*
%FSAX25Y25*%
%MOIN*%
G70*
G01*
G75*
%ADD15C,0.00394*%
D15*
X0877068Y3209338D02*
Y3322345D01*
X0876830Y3206920D02*
X0877068Y3209338D01*
X0876124Y3204594D02*
X0876830Y3206920D01*
X0874979Y3202452D02*
X0876124Y3204594D01*
X0873438Y3200574D02*
X0874979Y3202452D01*
X0871559Y3199032D02*
X0873438Y3200574D01*
X0869417Y3197887D02*
X0871559Y3199032D01*
X0867092Y3197182D02*
X0869417Y3197887D01*
X0864674Y3196944D02*
X0867092Y3197182D01*
X0731981Y3196944D02*
X0864674D01*
X0729563Y3197182D02*
X0731981Y3196944D01*
X0727238Y3197887D02*
X0729563Y3197182D01*
X0725096Y3199032D02*
X0727238Y3197887D01*
X0723217Y3200574D02*
X0725096Y3199032D01*
X0721676Y3202452D02*
X0723217Y3200574D01*
X0720531Y3204594D02*
X0721676Y3202452D01*
X0719826Y3206920D02*
X0720531Y3204594D01*
X0719587Y3209338D02*
X0719826Y3206920D01*
X0719587Y3209338D02*
Y3322345D01*
X0719826Y3324763D01*
X0720531Y3327088D01*
X0721676Y3329231D01*
X0723217Y3331109D01*
X0725096Y3332650D01*
X0727238Y3333796D01*
X0729563Y3334501D01*
X0731981Y3334739D01*
X0864674D01*
X0867092Y3334501D01*
X0869417Y3333796D01*
X0871559Y3332650D01*
X0873438Y3331109D01*
X0874979Y3329231D01*
X0876124Y3327088D01*
X0876830Y3324763D01*
X0877068Y3322345D01*
M02*
