G04*
G04 #@! TF.GenerationSoftware,Altium Limited,Altium Designer,19.0.15 (446)*
G04*
G04 Layer_Physical_Order=1*
G04 Layer_Color=255*
%FSAX25Y25*%
%MOIN*%
G70*
G01*
G75*
%ADD12C,0.01000*%
%ADD13C,0.01968*%
%ADD22R,0.03543X0.02362*%
%ADD23R,0.03150X0.03150*%
%ADD24R,0.02362X0.03543*%
%ADD25R,0.03150X0.03150*%
%ADD26R,0.03937X0.03543*%
%ADD27R,0.02441X0.02244*%
%ADD28R,0.05906X0.13386*%
%ADD29R,0.03937X0.13780*%
%ADD30R,0.05906X0.05906*%
G04:AMPARAMS|DCode=31|XSize=59.06mil|YSize=59.06mil|CornerRadius=5.91mil|HoleSize=0mil|Usage=FLASHONLY|Rotation=0.000|XOffset=0mil|YOffset=0mil|HoleType=Round|Shape=RoundedRectangle|*
%AMROUNDEDRECTD31*
21,1,0.05906,0.04724,0,0,0.0*
21,1,0.04724,0.05906,0,0,0.0*
1,1,0.01181,0.02362,-0.02362*
1,1,0.01181,-0.02362,-0.02362*
1,1,0.01181,-0.02362,0.02362*
1,1,0.01181,0.02362,0.02362*
%
%ADD31ROUNDEDRECTD31*%
%ADD32R,0.07087X0.05118*%
%ADD33R,0.02362X0.02520*%
%ADD34R,0.03937X0.02362*%
%ADD35R,0.03740X0.01890*%
%ADD36R,0.02756X0.01181*%
%ADD37R,0.01968X0.01968*%
%ADD38R,0.03543X0.05118*%
%ADD61C,0.02953*%
%ADD62R,0.01968X0.06693*%
%ADD63R,0.06693X0.01968*%
%ADD64C,0.02362*%
%ADD65C,0.01575*%
%ADD66C,0.01181*%
%ADD67C,0.00800*%
%ADD68C,0.08661*%
%ADD69C,0.03543*%
%ADD70C,0.05906*%
%ADD71C,0.01968*%
G36*
X0866932Y3333700D02*
X0869104Y3333041D01*
X0871106Y3331971D01*
X0872860Y3330531D01*
X0874300Y3328777D01*
X0875370Y3326776D01*
X0876029Y3324604D01*
X0876255Y3322305D01*
Y3270960D01*
X0833761D01*
Y3268638D01*
X0833225D01*
Y3270145D01*
X0831005D01*
Y3270645D01*
X0830505D01*
Y3272767D01*
X0829807D01*
Y3276143D01*
X0830307Y3276410D01*
X0830387Y3276357D01*
X0831005Y3276234D01*
X0831623Y3276357D01*
X0832147Y3276707D01*
X0832497Y3277232D01*
X0832620Y3277850D01*
X0832497Y3278468D01*
X0832147Y3278992D01*
X0832126Y3279005D01*
Y3281716D01*
X0832680Y3282270D01*
X0833223Y3282105D01*
X0833253Y3281956D01*
X0833603Y3281432D01*
X0833845Y3281270D01*
X0834111Y3281034D01*
X0833972Y3280629D01*
X0833843Y3280436D01*
X0833720Y3279818D01*
X0833843Y3279200D01*
X0834193Y3278676D01*
X0834717Y3278326D01*
X0835335Y3278203D01*
X0835954Y3278326D01*
X0836478Y3278676D01*
X0836699Y3279007D01*
X0837003Y3279210D01*
X0844086Y3286294D01*
X0844549Y3286103D01*
Y3285232D01*
X0844549Y3285231D01*
X0844634Y3284802D01*
X0844877Y3284438D01*
X0845672Y3283643D01*
X0845672Y3283643D01*
X0845956Y3283454D01*
Y3280793D01*
X0849518D01*
Y3285536D01*
X0847164D01*
X0847056Y3285558D01*
X0846792Y3285937D01*
Y3287683D01*
X0848238D01*
Y3291023D01*
X0848639D01*
Y3292704D01*
X0845670D01*
Y3293704D01*
X0848639D01*
Y3294394D01*
X0849139Y3294545D01*
X0849154Y3294522D01*
X0853928Y3289748D01*
Y3287683D01*
X0854881D01*
Y3286688D01*
X0853741Y3285548D01*
X0853683Y3285536D01*
X0851861D01*
Y3280793D01*
X0855424D01*
Y3282711D01*
X0855572Y3282810D01*
X0857639Y3284877D01*
X0857989Y3285401D01*
X0858087Y3285892D01*
X0858088Y3285893D01*
X0858210Y3286511D01*
X0858112Y3287006D01*
Y3287683D01*
X0859065D01*
Y3288250D01*
X0862304D01*
X0862304Y3288250D01*
X0862421Y3288273D01*
X0865463D01*
Y3292623D01*
X0861113D01*
Y3290678D01*
X0859065D01*
Y3291245D01*
X0856886D01*
X0856655Y3291590D01*
X0851911Y3296334D01*
Y3302090D01*
X0851788Y3302708D01*
X0851438Y3303233D01*
X0850285Y3304385D01*
X0849761Y3304736D01*
X0849143Y3304859D01*
X0838091D01*
X0837473Y3304736D01*
X0836949Y3304385D01*
X0836599Y3303862D01*
X0836476Y3303243D01*
Y3302465D01*
X0835917D01*
Y3298903D01*
X0840119D01*
X0840326Y3298403D01*
X0838767Y3296843D01*
X0838577Y3296560D01*
X0835917D01*
Y3292998D01*
X0840513D01*
Y3289732D01*
X0835311Y3284529D01*
X0834850Y3284776D01*
X0834882Y3284936D01*
X0834882Y3284936D01*
Y3306187D01*
X0835148D01*
Y3307043D01*
X0837688D01*
Y3305990D01*
X0842038D01*
Y3310339D01*
X0841378D01*
Y3312486D01*
X0842825D01*
Y3317229D01*
X0841378D01*
Y3317921D01*
X0841378Y3317921D01*
X0841293Y3318351D01*
X0841050Y3318715D01*
X0840869Y3318895D01*
X0840888Y3318991D01*
X0840765Y3319609D01*
X0840415Y3320134D01*
X0839890Y3320484D01*
X0839272Y3320607D01*
X0838654Y3320484D01*
X0838130Y3320134D01*
X0837780Y3319609D01*
X0837657Y3318991D01*
X0837780Y3318373D01*
X0838130Y3317849D01*
X0838310Y3317729D01*
X0838158Y3317229D01*
X0837688D01*
Y3312486D01*
X0839135D01*
Y3310339D01*
X0837688D01*
Y3309286D01*
X0835148D01*
Y3309749D01*
X0830405D01*
Y3308073D01*
X0829943Y3307881D01*
X0816100Y3321724D01*
Y3322020D01*
X0816100Y3322020D01*
X0816015Y3322449D01*
X0815772Y3322813D01*
X0815772Y3322813D01*
X0813426Y3325159D01*
Y3328431D01*
X0814085D01*
Y3333174D01*
X0810523D01*
Y3328431D01*
X0811182D01*
Y3325162D01*
X0810682Y3324955D01*
X0810439Y3325198D01*
X0810076Y3325441D01*
X0809646Y3325526D01*
X0809646Y3325526D01*
X0807606D01*
X0807466Y3325977D01*
X0807471Y3326026D01*
X0807987Y3326423D01*
X0808397Y3326957D01*
X0808655Y3327579D01*
X0808743Y3328247D01*
X0808655Y3328915D01*
X0808397Y3329538D01*
X0807987Y3330072D01*
X0807452Y3330482D01*
X0806830Y3330740D01*
X0806162Y3330828D01*
X0805494Y3330740D01*
X0804872Y3330482D01*
X0804337Y3330072D01*
X0803927Y3329538D01*
X0803669Y3328915D01*
X0803581Y3328247D01*
X0803669Y3327579D01*
X0803927Y3326957D01*
X0804337Y3326423D01*
X0804854Y3326026D01*
X0804858Y3325977D01*
X0804718Y3325526D01*
X0803418D01*
X0799955Y3328989D01*
X0800017Y3329082D01*
X0800140Y3329700D01*
X0800017Y3330318D01*
X0799667Y3330842D01*
X0799143Y3331192D01*
X0798524Y3331315D01*
X0797906Y3331192D01*
X0797382Y3330842D01*
X0797032Y3330318D01*
X0796909Y3329700D01*
X0797032Y3329082D01*
X0797382Y3328558D01*
X0797641Y3328385D01*
X0797674Y3328219D01*
X0797917Y3327856D01*
X0802160Y3323612D01*
X0802160Y3323612D01*
X0802524Y3323368D01*
X0802954Y3323283D01*
X0805789D01*
X0805822Y3322783D01*
X0805494Y3322740D01*
X0804872Y3322482D01*
X0804337Y3322072D01*
X0803927Y3321538D01*
X0803669Y3320915D01*
X0803581Y3320247D01*
X0803669Y3319579D01*
X0803927Y3318957D01*
X0804337Y3318422D01*
X0804872Y3318012D01*
X0805494Y3317754D01*
X0806162Y3317667D01*
X0806830Y3317754D01*
X0807452Y3318012D01*
X0807987Y3318422D01*
X0808397Y3318957D01*
X0808655Y3319579D01*
X0808743Y3320247D01*
X0808655Y3320915D01*
X0808397Y3321538D01*
X0807987Y3322072D01*
X0807452Y3322482D01*
X0806830Y3322740D01*
X0806503Y3322783D01*
X0806535Y3323283D01*
X0809182D01*
X0811284Y3321181D01*
X0811279Y3321157D01*
X0811402Y3320539D01*
X0811752Y3320015D01*
X0812276Y3319664D01*
X0812894Y3319542D01*
X0813513Y3319664D01*
X0814037Y3320015D01*
X0814058Y3320047D01*
X0814556Y3320096D01*
X0821360Y3313292D01*
X0821169Y3312830D01*
X0816447D01*
Y3313883D01*
X0812098D01*
Y3312830D01*
X0810148D01*
Y3313686D01*
X0806565D01*
X0806516Y3313696D01*
X0806516Y3313696D01*
X0803632D01*
Y3314119D01*
X0798692D01*
Y3311029D01*
X0803632D01*
Y3311452D01*
X0805405D01*
Y3310124D01*
X0810148D01*
Y3310587D01*
X0812098D01*
Y3309533D01*
X0816447D01*
Y3310587D01*
X0821803D01*
X0822510Y3309879D01*
X0822319Y3309417D01*
X0818397D01*
Y3305855D01*
X0821341D01*
X0821450Y3305833D01*
X0821450Y3305833D01*
X0821971D01*
X0822993Y3304811D01*
Y3303511D01*
X0818397D01*
Y3302852D01*
X0817565D01*
X0817106Y3302904D01*
X0816855Y3303298D01*
X0816847Y3303313D01*
X0816847Y3303556D01*
Y3305302D01*
X0814773D01*
Y3303228D01*
X0816226D01*
X0816305Y3303130D01*
X0816297Y3302523D01*
X0816297Y3302523D01*
X0816230Y3302457D01*
X0814267Y3300493D01*
X0814024Y3300129D01*
X0813938Y3299700D01*
X0813938Y3299700D01*
Y3298228D01*
X0813438Y3297961D01*
X0813316Y3298043D01*
X0812698Y3298166D01*
X0812080Y3298043D01*
X0811555Y3297692D01*
X0811205Y3297169D01*
X0811082Y3296550D01*
X0811205Y3295932D01*
X0811314Y3295769D01*
X0809546Y3294001D01*
X0806979D01*
Y3290438D01*
X0806582Y3290192D01*
X0805231D01*
X0804833Y3290438D01*
X0804833Y3290692D01*
Y3294001D01*
X0803876D01*
Y3296344D01*
X0804243D01*
Y3301088D01*
X0803876D01*
Y3303637D01*
X0803768Y3304178D01*
X0803659Y3304341D01*
Y3304779D01*
X0803632Y3304915D01*
Y3306481D01*
X0798692D01*
Y3303391D01*
X0800922D01*
X0800938Y3303312D01*
X0801047Y3303149D01*
Y3301088D01*
X0800680D01*
Y3296344D01*
X0801047D01*
Y3294001D01*
X0800090D01*
Y3290692D01*
X0800090Y3290438D01*
X0799692Y3290192D01*
X0799037D01*
X0799023Y3290212D01*
X0798499Y3290562D01*
X0797881Y3290685D01*
X0797550Y3290957D01*
Y3294001D01*
X0795156D01*
Y3296954D01*
X0795071Y3297383D01*
X0794828Y3297747D01*
X0794828Y3297747D01*
X0792137Y3300437D01*
X0791773Y3300680D01*
X0791344Y3300766D01*
X0791344Y3300766D01*
X0783705D01*
X0783705Y3300766D01*
X0783276Y3300680D01*
X0782912Y3300437D01*
X0775971Y3293496D01*
X0775509Y3293687D01*
Y3295188D01*
X0773237D01*
Y3291629D01*
X0772737D01*
D01*
X0773237D01*
Y3288070D01*
X0774962D01*
Y3286975D01*
X0774044Y3286058D01*
X0768094D01*
X0768094Y3286058D01*
X0767665Y3285972D01*
X0767301Y3285729D01*
X0767301Y3285729D01*
X0758292Y3276720D01*
X0757792Y3276928D01*
Y3279712D01*
X0755520D01*
Y3276653D01*
X0757517D01*
X0757724Y3276153D01*
X0753243Y3271672D01*
X0753000Y3271308D01*
X0752915Y3270879D01*
X0752915Y3270879D01*
Y3266433D01*
X0752915Y3266432D01*
X0753000Y3266003D01*
X0753243Y3265639D01*
X0753932Y3264950D01*
X0753932Y3264950D01*
X0754296Y3264707D01*
X0754725Y3264622D01*
X0755169D01*
X0755635Y3264539D01*
Y3263054D01*
X0759981D01*
X0764327D01*
Y3264539D01*
X0763928D01*
Y3268778D01*
X0764302Y3269080D01*
X0767471D01*
Y3269080D01*
X0767491D01*
Y3269080D01*
X0776540D01*
Y3268681D01*
X0778024D01*
Y3273027D01*
Y3277373D01*
X0776540D01*
X0776496Y3277855D01*
Y3283075D01*
X0778476Y3285055D01*
X0778476Y3285055D01*
X0778720Y3285419D01*
X0778726Y3285450D01*
X0780702D01*
Y3287631D01*
X0781702D01*
Y3285450D01*
X0782991D01*
Y3283506D01*
X0778830D01*
Y3279944D01*
X0780552D01*
Y3277855D01*
X0780509Y3277373D01*
X0779024D01*
Y3273027D01*
Y3268681D01*
X0780509D01*
Y3269080D01*
X0794050D01*
X0794249Y3268707D01*
X0794267Y3268580D01*
X0794153Y3268007D01*
X0794276Y3267389D01*
X0794627Y3266865D01*
X0795151Y3266515D01*
X0795769Y3266392D01*
X0796387Y3266515D01*
X0796522Y3266605D01*
X0797032Y3266602D01*
X0797382Y3266077D01*
X0797906Y3265727D01*
X0798525Y3265604D01*
X0799143Y3265727D01*
X0799667Y3266077D01*
X0800017Y3266602D01*
X0800115Y3267093D01*
X0801073Y3268052D01*
X0801073Y3268052D01*
X0801336Y3268445D01*
X0801429Y3268910D01*
X0801599Y3269080D01*
X0802156D01*
X0802491Y3268719D01*
Y3264159D01*
X0802491D01*
Y3264138D01*
X0802491D01*
Y3260970D01*
Y3257860D01*
Y3254710D01*
X0802491D01*
Y3254690D01*
X0802491D01*
Y3254003D01*
X0802181Y3253863D01*
X0801991Y3253820D01*
X0801505Y3254145D01*
X0800887Y3254268D01*
X0800268Y3254145D01*
X0799744Y3253795D01*
X0799394Y3253271D01*
X0799271Y3252653D01*
X0799394Y3252035D01*
X0799744Y3251511D01*
X0799765Y3251497D01*
Y3250300D01*
X0799306Y3249841D01*
X0799063Y3249477D01*
X0798978Y3249048D01*
X0799011Y3248882D01*
X0796625Y3246496D01*
X0796382Y3246132D01*
X0796297Y3245703D01*
X0795817Y3245661D01*
X0793560D01*
Y3241708D01*
Y3237755D01*
X0794727D01*
X0795044Y3237369D01*
X0795041Y3237351D01*
X0795041Y3237351D01*
Y3236401D01*
X0793645Y3235006D01*
X0793402Y3234642D01*
X0793316Y3234212D01*
X0793135Y3234142D01*
X0792676Y3234044D01*
X0792675Y3234044D01*
X0792675Y3234044D01*
X0789526D01*
Y3234044D01*
X0786357D01*
X0785982Y3234346D01*
Y3236352D01*
X0786662D01*
X0786662Y3236352D01*
X0787127Y3236445D01*
X0787521Y3236708D01*
X0788468Y3237655D01*
X0788485Y3237651D01*
X0788637Y3237682D01*
X0789107Y3237755D01*
X0789107Y3237755D01*
X0789107Y3237755D01*
X0792560D01*
Y3241208D01*
X0789034D01*
X0788607Y3240858D01*
X0788485Y3240882D01*
X0787867Y3240759D01*
X0787670Y3240628D01*
X0787170Y3240895D01*
Y3241208D01*
X0779264D01*
Y3240570D01*
X0778764Y3240303D01*
X0778670Y3240366D01*
X0778052Y3240488D01*
X0777729Y3240424D01*
X0777229Y3240784D01*
Y3241208D01*
X0773776D01*
Y3237755D01*
X0776894D01*
X0776910Y3237731D01*
X0777434Y3237381D01*
X0778052Y3237258D01*
X0778145Y3237276D01*
X0778714Y3236708D01*
X0778714Y3236708D01*
X0779108Y3236445D01*
X0779572Y3236352D01*
X0780429D01*
Y3234040D01*
X0780058D01*
Y3234040D01*
X0776928D01*
Y3234040D01*
X0773759D01*
Y3234040D01*
X0770604D01*
Y3235083D01*
X0770883Y3235499D01*
X0771006Y3236118D01*
X0770883Y3236736D01*
X0770533Y3237260D01*
X0770691Y3237755D01*
X0772776D01*
Y3241208D01*
X0769324D01*
Y3238190D01*
X0769324Y3237755D01*
X0768875Y3237630D01*
X0768772Y3237610D01*
X0768248Y3237260D01*
X0767898Y3236736D01*
X0767775Y3236118D01*
X0767898Y3235499D01*
X0768177Y3235083D01*
Y3234040D01*
X0764428D01*
X0764302Y3234040D01*
X0763928Y3234343D01*
Y3238462D01*
X0763928Y3238942D01*
X0763928Y3239442D01*
Y3242073D01*
Y3245222D01*
Y3248011D01*
X0764327D01*
Y3249495D01*
X0759981D01*
X0755635D01*
Y3248011D01*
X0756035D01*
Y3245222D01*
Y3242073D01*
Y3239442D01*
X0756035Y3238962D01*
X0756035Y3238462D01*
Y3235773D01*
Y3232663D01*
X0763802D01*
X0763928Y3232663D01*
X0764302Y3232361D01*
Y3226147D01*
X0770980D01*
Y3220324D01*
X0770057Y3219402D01*
X0769560Y3219303D01*
X0769036Y3218953D01*
X0768686Y3218428D01*
X0768563Y3217810D01*
X0768686Y3217192D01*
X0769036Y3216668D01*
X0769560Y3216318D01*
X0770178Y3216195D01*
X0770796Y3216318D01*
X0771320Y3216668D01*
X0771670Y3217192D01*
X0771767Y3217678D01*
X0773052Y3218963D01*
X0773052Y3218963D01*
X0773315Y3219357D01*
X0773408Y3219821D01*
X0773408Y3219821D01*
Y3223381D01*
X0773908Y3223533D01*
X0774154Y3223164D01*
X0774678Y3222814D01*
X0775296Y3222691D01*
X0775914Y3222814D01*
X0776438Y3223164D01*
X0776522Y3223290D01*
X0776525D01*
X0776957Y3222790D01*
X0776945Y3222716D01*
X0776910Y3222692D01*
X0776560Y3222168D01*
X0776437Y3221550D01*
X0776460Y3221436D01*
X0776117Y3220968D01*
X0775662Y3220877D01*
X0775138Y3220527D01*
X0774788Y3220003D01*
X0774665Y3219385D01*
X0774788Y3218767D01*
X0775138Y3218243D01*
X0775662Y3217893D01*
X0776280Y3217770D01*
X0776898Y3217893D01*
X0777423Y3218243D01*
X0777436Y3218264D01*
X0781327D01*
X0792899Y3206692D01*
X0792569Y3206315D01*
X0792329Y3206499D01*
X0791367Y3206897D01*
X0790835Y3206968D01*
Y3203046D01*
X0790335D01*
Y3202546D01*
X0786414D01*
X0786484Y3202015D01*
X0786883Y3201053D01*
X0787354Y3200439D01*
X0787108Y3199939D01*
X0784205D01*
X0783788Y3200217D01*
X0783170Y3200340D01*
X0771232D01*
X0754667Y3216904D01*
Y3238381D01*
X0754544Y3238999D01*
X0754194Y3239523D01*
X0749962Y3243756D01*
X0749791Y3243869D01*
X0749943Y3244370D01*
X0750977D01*
Y3246444D01*
X0748902D01*
Y3244716D01*
X0748840Y3244350D01*
X0748461Y3244229D01*
X0748195D01*
X0747753Y3244370D01*
X0747753Y3244729D01*
Y3246444D01*
X0745178D01*
X0742603D01*
X0742603Y3244370D01*
X0742161Y3244229D01*
X0736557D01*
Y3254318D01*
X0740257Y3258018D01*
X0740268Y3258007D01*
X0740792Y3257656D01*
X0741410Y3257534D01*
X0743003D01*
Y3256974D01*
X0743563D01*
Y3255024D01*
X0743003D01*
Y3250675D01*
X0747353D01*
Y3251234D01*
X0749302D01*
Y3250675D01*
X0753652D01*
Y3251490D01*
X0755635D01*
Y3250495D01*
X0759981D01*
X0764327D01*
Y3251979D01*
X0763928D01*
Y3254671D01*
Y3257821D01*
Y3260570D01*
X0764327D01*
Y3262054D01*
X0759981D01*
X0755635D01*
Y3261020D01*
X0754205D01*
X0753587Y3260897D01*
X0753063Y3260547D01*
X0751910Y3259394D01*
X0751560Y3258870D01*
X0751437Y3258252D01*
Y3257062D01*
X0750925Y3256551D01*
X0750575Y3256027D01*
X0750452Y3255409D01*
Y3255024D01*
X0749302D01*
Y3254465D01*
X0747353D01*
Y3255024D01*
X0746793D01*
Y3256974D01*
X0747353D01*
Y3261324D01*
X0743003D01*
Y3260764D01*
X0742079D01*
X0741872Y3260971D01*
Y3267147D01*
X0742103Y3267323D01*
X0742248Y3267300D01*
X0742603Y3267076D01*
Y3265554D01*
X0744678D01*
Y3267629D01*
X0742992Y3267629D01*
X0742989D01*
D01*
X0742870Y3267629D01*
X0742788Y3267826D01*
X0742663Y3268129D01*
X0747698Y3273164D01*
X0748048Y3273688D01*
X0748171Y3274306D01*
Y3276078D01*
X0748171Y3276078D01*
X0748171Y3276078D01*
Y3277053D01*
X0749912D01*
Y3283371D01*
X0747183D01*
Y3285080D01*
X0747334Y3285518D01*
X0751052D01*
X0751115Y3285366D01*
X0751116Y3285363D01*
X0751116Y3285363D01*
Y3285363D01*
X0751217Y3285321D01*
X0751575Y3285173D01*
X0751630Y3284711D01*
Y3282574D01*
X0751768Y3281879D01*
X0752162Y3281290D01*
X0752249Y3281203D01*
Y3280712D01*
X0755020D01*
X0757792D01*
Y3283771D01*
X0755262D01*
Y3284710D01*
X0755315Y3285172D01*
X0755549Y3285269D01*
X0755773Y3285362D01*
X0755774Y3285362D01*
X0755774Y3285362D01*
X0755775Y3285365D01*
X0755838Y3285518D01*
X0759557D01*
Y3287194D01*
X0760057Y3287309D01*
X0760437Y3287055D01*
X0761055Y3286932D01*
X0761673Y3287055D01*
X0762197Y3287405D01*
X0762547Y3287929D01*
X0762581Y3288096D01*
X0762885Y3288470D01*
X0767628D01*
Y3294788D01*
X0767065D01*
Y3295960D01*
X0767028Y3296148D01*
X0767093Y3296291D01*
X0767205Y3296422D01*
X0767460Y3296535D01*
X0767854Y3296535D01*
X0769875D01*
Y3303924D01*
X0767406D01*
Y3297012D01*
X0767406Y3296996D01*
X0767406Y3296996D01*
X0767406Y3296788D01*
X0767294Y3296621D01*
X0767236Y3296600D01*
X0766952Y3296581D01*
X0766812Y3296719D01*
X0766906Y3296577D01*
X0766906D01*
X0766651Y3296960D01*
X0765096Y3298514D01*
Y3303243D01*
X0765069Y3303380D01*
Y3311914D01*
X0764627D01*
X0764420Y3312414D01*
X0765252Y3313246D01*
X0784159D01*
X0785299Y3312106D01*
Y3312102D01*
X0785326Y3311965D01*
Y3309927D01*
X0789114D01*
X0789322Y3309427D01*
X0787682Y3307787D01*
X0787546Y3307584D01*
X0785326D01*
Y3304021D01*
X0790069D01*
Y3306059D01*
X0790096Y3306196D01*
Y3306201D01*
X0791106Y3307210D01*
X0795994D01*
Y3310300D01*
X0791054D01*
Y3310104D01*
X0790584D01*
X0790456Y3310078D01*
X0790069Y3310395D01*
Y3313489D01*
X0787850D01*
X0787714Y3313692D01*
X0785745Y3315661D01*
X0785286Y3315968D01*
X0784745Y3316075D01*
X0764666D01*
X0764125Y3315968D01*
X0763666Y3315661D01*
X0761759Y3313754D01*
X0761452Y3313295D01*
X0761345Y3312754D01*
Y3311914D01*
X0759932D01*
Y3305839D01*
X0752264D01*
X0751723Y3305731D01*
X0751264Y3305425D01*
X0730398Y3284558D01*
X0730091Y3284100D01*
X0729984Y3283558D01*
Y3226865D01*
X0730091Y3226324D01*
X0730398Y3225865D01*
X0736107Y3220156D01*
X0736566Y3219850D01*
X0737107Y3219742D01*
X0747540D01*
X0748081Y3219850D01*
X0748540Y3220156D01*
X0750509Y3222125D01*
X0750815Y3222584D01*
X0750923Y3223125D01*
Y3235149D01*
X0750815Y3235691D01*
X0750509Y3236150D01*
X0748742Y3237916D01*
X0748283Y3238223D01*
X0747742Y3238330D01*
X0747156D01*
Y3238883D01*
X0742412D01*
Y3235321D01*
X0747156D01*
X0747562Y3235095D01*
X0748094Y3234563D01*
Y3223711D01*
X0746954Y3222571D01*
X0737693D01*
X0732813Y3227451D01*
Y3282972D01*
X0752850Y3303010D01*
X0759932D01*
Y3296935D01*
X0762677D01*
X0762682Y3296928D01*
X0764236Y3295374D01*
Y3294788D01*
X0762885D01*
Y3293044D01*
X0762299D01*
X0761729Y3293614D01*
X0761270Y3293920D01*
X0760729Y3294028D01*
X0760188Y3293920D01*
X0760048Y3293827D01*
X0757580D01*
X0757462Y3293804D01*
X0755840D01*
X0755777Y3293956D01*
X0755776Y3293956D01*
X0755776Y3293958D01*
X0755548Y3294052D01*
X0755318Y3294148D01*
X0755027Y3294149D01*
X0755026Y3294148D01*
X0755025Y3294149D01*
X0752559Y3294149D01*
X0752559Y3294149D01*
X0752559Y3294149D01*
X0752328Y3294054D01*
X0752190Y3293996D01*
X0752123Y3294024D01*
X0751690Y3294204D01*
X0751690Y3294204D01*
X0751690Y3294204D01*
X0749812D01*
Y3292613D01*
X0749312D01*
Y3292113D01*
X0746934D01*
Y3292059D01*
X0746691D01*
X0746150Y3291952D01*
X0745700Y3291651D01*
X0745532Y3291552D01*
X0745139Y3291590D01*
X0744615Y3291940D01*
X0743997Y3292064D01*
X0743379Y3291940D01*
X0742855Y3291590D01*
X0742505Y3291066D01*
X0742381Y3290448D01*
X0742505Y3289830D01*
X0742855Y3289306D01*
X0743379Y3288956D01*
X0743649Y3288902D01*
X0743829Y3288722D01*
X0744288Y3288416D01*
X0744354Y3288403D01*
Y3282771D01*
X0744462Y3282230D01*
X0744768Y3281771D01*
X0745168Y3281371D01*
Y3279215D01*
X0745063Y3279058D01*
X0744941Y3278440D01*
Y3274976D01*
X0739115Y3269149D01*
X0738764Y3268625D01*
X0738641Y3268007D01*
Y3260971D01*
X0733800Y3256129D01*
X0733449Y3255605D01*
X0733326Y3254987D01*
Y3242613D01*
Y3228440D01*
X0733449Y3227822D01*
X0733800Y3227298D01*
X0736949Y3224149D01*
X0737473Y3223798D01*
X0738091Y3223676D01*
X0742412D01*
Y3223510D01*
X0747156D01*
Y3227072D01*
X0742412D01*
Y3226906D01*
X0738760D01*
X0736557Y3229109D01*
Y3240998D01*
X0748150D01*
X0751437Y3237712D01*
Y3216235D01*
X0751560Y3215617D01*
X0751910Y3215093D01*
X0768785Y3198218D01*
X0768594Y3197756D01*
X0732021D01*
X0729723Y3197982D01*
X0727551Y3198641D01*
X0725549Y3199711D01*
X0723795Y3201151D01*
X0722355Y3202905D01*
X0721285Y3204907D01*
X0720626Y3207079D01*
X0720400Y3209378D01*
Y3322305D01*
X0720626Y3324604D01*
X0721285Y3326776D01*
X0722355Y3328777D01*
X0723795Y3330531D01*
X0725549Y3331971D01*
X0727551Y3333041D01*
X0729723Y3333700D01*
X0732021Y3333926D01*
X0749696D01*
Y3319769D01*
X0756802D01*
Y3333926D01*
X0776074D01*
Y3319769D01*
X0783180D01*
Y3323504D01*
X0783669Y3323579D01*
X0783927Y3322957D01*
X0784337Y3322422D01*
X0784872Y3322012D01*
X0785494Y3321754D01*
X0786162Y3321667D01*
X0786830Y3321754D01*
X0787453Y3322012D01*
X0787987Y3322422D01*
X0788397Y3322957D01*
X0788655Y3323579D01*
X0788743Y3324247D01*
X0788655Y3324915D01*
X0788397Y3325538D01*
X0787987Y3326072D01*
X0787453Y3326482D01*
X0786830Y3326740D01*
X0786162Y3326828D01*
X0785494Y3326740D01*
X0784872Y3326482D01*
X0784337Y3326072D01*
X0783927Y3325538D01*
X0783669Y3324915D01*
X0783180Y3324990D01*
Y3333926D01*
X0843152D01*
X0843587Y3333771D01*
X0843587Y3333426D01*
Y3331499D01*
X0849524D01*
X0849524Y3333771D01*
X0849960Y3333926D01*
X0864634D01*
X0866932Y3333700D01*
D02*
G37*
G36*
X0828899Y3303490D02*
Y3297747D01*
X0826876D01*
Y3295173D01*
X0825876D01*
Y3297747D01*
X0824795D01*
X0824604Y3298209D01*
X0824908Y3298513D01*
X0824908Y3298513D01*
X0825151Y3298877D01*
X0825237Y3299306D01*
Y3305275D01*
X0825237Y3305275D01*
X0825151Y3305704D01*
X0824908Y3306068D01*
X0824908Y3306068D01*
X0823228Y3307748D01*
X0823140Y3307807D01*
Y3308596D01*
X0823602Y3308787D01*
X0828899Y3303490D01*
D02*
G37*
G36*
X0755025Y3293499D02*
X0755316Y3293498D01*
X0755315Y3285822D01*
X0755019Y3285822D01*
X0751576Y3285822D01*
X0751576Y3292514D01*
X0752559Y3293500D01*
X0755025Y3293499D01*
D02*
G37*
G36*
X0823328Y3290998D02*
X0823705Y3290688D01*
Y3289570D01*
X0826280D01*
Y3289070D01*
X0826780D01*
Y3286495D01*
X0828501D01*
X0828708Y3285995D01*
X0826293Y3283580D01*
X0826050Y3283216D01*
X0825964Y3282787D01*
X0825964Y3282787D01*
Y3273411D01*
X0824927Y3272373D01*
X0824902Y3272378D01*
X0824284Y3272255D01*
X0823760Y3271905D01*
X0823410Y3271381D01*
X0823287Y3270763D01*
X0823410Y3270145D01*
X0823492Y3270023D01*
X0823225Y3269522D01*
X0822753D01*
Y3270853D01*
X0820178D01*
Y3271354D01*
X0819678D01*
Y3273928D01*
X0818496D01*
X0818305Y3274390D01*
X0819239Y3275325D01*
X0819756Y3274979D01*
X0820375Y3274856D01*
X0820993Y3274979D01*
X0821517Y3275330D01*
X0821867Y3275853D01*
X0821990Y3276471D01*
X0821867Y3277090D01*
X0821517Y3277614D01*
X0820993Y3277964D01*
X0820375Y3278087D01*
X0819756Y3277964D01*
X0819232Y3277614D01*
X0819219Y3277593D01*
X0818800D01*
X0818371Y3277508D01*
X0818007Y3277265D01*
X0818007Y3277265D01*
X0814070Y3273328D01*
X0813827Y3272964D01*
X0813741Y3272535D01*
X0813741Y3272535D01*
Y3271133D01*
X0813241Y3271083D01*
X0813206Y3271263D01*
X0812856Y3271787D01*
X0812331Y3272137D01*
X0811713Y3272260D01*
X0811095Y3272137D01*
X0810571Y3271787D01*
X0810221Y3271263D01*
X0810098Y3270645D01*
X0809642Y3270479D01*
X0806902D01*
X0806902Y3270479D01*
X0806894Y3270477D01*
X0802491D01*
X0802156Y3270838D01*
Y3276973D01*
X0799467D01*
X0798987Y3276973D01*
Y3276973D01*
X0798967D01*
Y3276973D01*
X0795394D01*
Y3278243D01*
X0795394Y3278243D01*
X0795309Y3278673D01*
X0795065Y3279036D01*
X0792616Y3281485D01*
X0792902Y3281908D01*
X0793209Y3281846D01*
X0793210Y3281846D01*
X0799115D01*
X0799115Y3281846D01*
X0799544Y3281932D01*
X0799908Y3282175D01*
X0801983Y3284249D01*
X0802172Y3284533D01*
X0804833D01*
Y3287949D01*
X0806979D01*
Y3284533D01*
X0808230D01*
Y3279102D01*
X0807407Y3278279D01*
X0807383Y3278284D01*
X0806765Y3278161D01*
X0806240Y3277811D01*
X0805890Y3277287D01*
X0805767Y3276669D01*
X0805890Y3276051D01*
X0806240Y3275526D01*
X0806765Y3275176D01*
X0807383Y3275053D01*
X0808001Y3275176D01*
X0808525Y3275526D01*
X0808875Y3276051D01*
X0808998Y3276669D01*
X0808993Y3276693D01*
X0809999Y3277699D01*
X0810499Y3277494D01*
Y3276916D01*
X0810221Y3276499D01*
X0810098Y3275881D01*
X0810221Y3275263D01*
X0810571Y3274739D01*
X0811095Y3274389D01*
X0811713Y3274266D01*
X0812331Y3274389D01*
X0812856Y3274739D01*
X0813206Y3275263D01*
X0813329Y3275881D01*
X0813206Y3276499D01*
X0812927Y3276916D01*
Y3279906D01*
X0819917Y3286895D01*
X0822550D01*
Y3290672D01*
X0823050Y3291053D01*
X0823328Y3290998D01*
D02*
G37*
G36*
X0774253Y3283540D02*
X0774253Y3283540D01*
Y3276973D01*
X0767491D01*
Y3276973D01*
X0767471D01*
Y3276973D01*
X0764302D01*
Y3274149D01*
X0761615D01*
X0761615Y3274149D01*
X0761186Y3274063D01*
X0760822Y3273820D01*
X0760822Y3273820D01*
X0759188Y3272186D01*
X0758945Y3271822D01*
X0758859Y3271393D01*
X0758859Y3271393D01*
Y3270477D01*
X0756035D01*
Y3266865D01*
X0755190D01*
X0755158Y3266897D01*
Y3270414D01*
X0768559Y3283815D01*
X0774027D01*
X0774253Y3283540D01*
D02*
G37*
G36*
X0829184Y3268282D02*
Y3265222D01*
X0832825D01*
Y3265408D01*
X0833761D01*
Y3255134D01*
X0833450Y3254824D01*
X0833022Y3254650D01*
X0833022Y3254650D01*
Y3254650D01*
X0833022Y3254650D01*
X0829381D01*
Y3254650D01*
X0828967Y3254710D01*
Y3254710D01*
X0828905Y3254710D01*
X0825405D01*
X0825405Y3254710D01*
X0825187D01*
Y3254710D01*
X0824905Y3254710D01*
X0821625D01*
Y3254666D01*
X0817064D01*
X0816854Y3254806D01*
X0816044Y3254967D01*
Y3254963D01*
X0814937Y3254817D01*
X0813905Y3254390D01*
X0813019Y3253709D01*
X0812339Y3252824D01*
X0811911Y3251792D01*
X0811774Y3250745D01*
X0811762Y3250684D01*
Y3240554D01*
X0811762Y3240054D01*
X0811651Y3239769D01*
X0811196Y3239579D01*
X0810792Y3239857D01*
Y3240039D01*
X0806446D01*
Y3241039D01*
X0810792D01*
Y3242523D01*
X0810392D01*
Y3245261D01*
X0810392D01*
Y3248391D01*
X0810392D01*
Y3251560D01*
X0810384D01*
Y3254690D01*
X0810384D01*
Y3254710D01*
X0810467Y3255176D01*
X0810574Y3255418D01*
X0811039Y3255510D01*
X0811433Y3255774D01*
X0818909Y3263250D01*
X0819194D01*
X0819194Y3263250D01*
X0819311Y3263273D01*
X0822353D01*
Y3264234D01*
X0823545D01*
X0823760Y3263912D01*
X0824284Y3263562D01*
X0824902Y3263439D01*
X0825521Y3263562D01*
X0826044Y3263912D01*
X0826395Y3264436D01*
X0826518Y3265054D01*
X0826395Y3265673D01*
X0826044Y3266196D01*
X0825521Y3266547D01*
X0824902Y3266670D01*
X0824686Y3266627D01*
X0824509Y3266662D01*
X0824509Y3266662D01*
X0822353D01*
Y3267279D01*
X0826694D01*
X0826694Y3267279D01*
X0827123Y3267365D01*
X0827487Y3267608D01*
X0828328Y3268449D01*
X0828784Y3268523D01*
X0829184Y3268282D01*
D02*
G37*
G36*
X0828967Y3250990D02*
X0828981Y3250496D01*
Y3249727D01*
X0831201D01*
Y3249228D01*
X0831701D01*
Y3247106D01*
X0833422D01*
X0833761Y3246746D01*
Y3197756D01*
X0817469D01*
X0817262Y3198256D01*
X0818499Y3199494D01*
X0823888D01*
Y3206599D01*
X0816783D01*
Y3201210D01*
X0815511Y3199939D01*
X0812943D01*
X0812773Y3200439D01*
X0812869Y3200513D01*
X0813439Y3201255D01*
X0813797Y3202119D01*
X0813919Y3203046D01*
X0813797Y3203974D01*
X0813439Y3204838D01*
X0812869Y3205581D01*
X0812127Y3206150D01*
X0811263Y3206508D01*
X0810335Y3206630D01*
X0809408Y3206508D01*
X0808738Y3206230D01*
X0804837Y3210131D01*
X0804473Y3210374D01*
X0804044Y3210459D01*
X0804044Y3210459D01*
X0802082D01*
X0802033Y3210959D01*
X0802139Y3210980D01*
X0802532Y3211243D01*
X0806863Y3215574D01*
X0806863Y3215574D01*
X0807126Y3215968D01*
X0807219Y3216432D01*
X0807219Y3216433D01*
Y3219531D01*
X0807497Y3219948D01*
X0807620Y3220566D01*
X0807497Y3221184D01*
X0807214Y3221608D01*
X0807333Y3221966D01*
X0807435Y3222108D01*
X0808848D01*
X0809490Y3221466D01*
X0809434Y3221381D01*
X0809311Y3220763D01*
X0809434Y3220145D01*
X0809784Y3219621D01*
X0810308Y3219271D01*
X0810926Y3219148D01*
X0811544Y3219271D01*
X0812068Y3219621D01*
X0812418Y3220145D01*
X0812541Y3220763D01*
X0812418Y3221381D01*
X0812125Y3221819D01*
X0812047Y3222212D01*
X0811784Y3222606D01*
X0811784Y3222606D01*
X0810209Y3224180D01*
X0809816Y3224443D01*
X0809351Y3224536D01*
X0809351Y3224536D01*
X0804627D01*
X0804162Y3224443D01*
X0803768Y3224180D01*
X0803768Y3224180D01*
X0802194Y3222606D01*
X0801931Y3222212D01*
X0801838Y3221747D01*
X0801838Y3221747D01*
Y3217329D01*
X0800374Y3215865D01*
X0798768D01*
X0798473Y3216365D01*
X0798565Y3216826D01*
X0798442Y3217444D01*
X0798163Y3217861D01*
Y3218702D01*
X0798276Y3218814D01*
X0798276Y3218814D01*
X0798539Y3219209D01*
X0798632Y3219673D01*
Y3225834D01*
X0799002Y3226147D01*
X0799145Y3226147D01*
X0799502Y3226147D01*
X0802313D01*
Y3232243D01*
X0805945D01*
Y3234227D01*
X0806446D01*
Y3234727D01*
X0810792D01*
Y3234952D01*
X0811117Y3235219D01*
X0811205Y3235264D01*
Y3235264D01*
X0812445Y3235427D01*
X0813601Y3235905D01*
X0814593Y3236667D01*
X0815354Y3237659D01*
X0815833Y3238815D01*
X0815996Y3240054D01*
X0815996D01*
X0815996Y3240448D01*
Y3250416D01*
X0816395Y3250667D01*
X0816776Y3250426D01*
Y3249727D01*
X0818997D01*
X0821217D01*
Y3250768D01*
X0821625Y3250990D01*
X0824905D01*
X0825187Y3250990D01*
Y3250990D01*
X0825405D01*
Y3250990D01*
X0828967D01*
D02*
G37*
G36*
X0786376Y3226147D02*
X0786759Y3225865D01*
Y3219664D01*
X0786259Y3219457D01*
X0783373Y3222343D01*
X0783009Y3222586D01*
X0782580Y3222672D01*
X0782580Y3222672D01*
X0779554D01*
X0779391Y3223164D01*
X0779741Y3223688D01*
X0779864Y3224306D01*
X0779741Y3224924D01*
X0779463Y3225341D01*
Y3226147D01*
X0780077D01*
Y3226147D01*
X0786376D01*
D02*
G37*
G36*
X0795825Y3226147D02*
X0796204Y3225855D01*
Y3220176D01*
X0796091Y3220063D01*
X0795828Y3219669D01*
X0795736Y3219204D01*
X0795736Y3219204D01*
Y3217861D01*
X0795457Y3217444D01*
X0795338Y3216845D01*
X0795254Y3216789D01*
X0794868Y3216609D01*
X0792305Y3219172D01*
Y3225793D01*
X0792657Y3226147D01*
X0795825Y3226147D01*
D02*
G37*
G36*
X0807152Y3204644D02*
X0806874Y3203974D01*
X0806752Y3203046D01*
X0806874Y3202119D01*
X0807232Y3201255D01*
X0807802Y3200513D01*
X0807898Y3200439D01*
X0807728Y3199939D01*
X0802942D01*
X0802773Y3200439D01*
X0802869Y3200513D01*
X0803439Y3201255D01*
X0803797Y3202119D01*
X0803919Y3203046D01*
X0803797Y3203974D01*
X0803439Y3204838D01*
X0802869Y3205581D01*
X0802127Y3206150D01*
X0801263Y3206508D01*
X0800335Y3206630D01*
X0799408Y3206508D01*
X0798544Y3206150D01*
X0797802Y3205581D01*
X0797764Y3205531D01*
X0797265Y3205499D01*
X0795047Y3207716D01*
X0795254Y3208216D01*
X0803580D01*
X0807152Y3204644D01*
D02*
G37*
%LPC*%
G36*
X0833186Y3333377D02*
X0831111D01*
Y3331303D01*
X0833186D01*
Y3333377D01*
D02*
G37*
G36*
X0830111D02*
X0828036D01*
Y3331303D01*
X0830111D01*
Y3333377D01*
D02*
G37*
G36*
X0842825Y3333371D02*
X0837688D01*
Y3328628D01*
X0842825D01*
Y3333371D01*
D02*
G37*
G36*
X0819991Y3333174D02*
X0816428D01*
Y3328431D01*
X0819991D01*
Y3329681D01*
X0822137D01*
Y3328628D01*
X0826487D01*
Y3332977D01*
X0822137D01*
Y3331924D01*
X0819991D01*
Y3333174D01*
D02*
G37*
G36*
X0849524Y3330499D02*
X0847056D01*
Y3328228D01*
X0849524D01*
Y3330499D01*
D02*
G37*
G36*
X0846056D02*
X0843587D01*
Y3328228D01*
X0846056D01*
Y3330499D01*
D02*
G37*
G36*
X0833186Y3330303D02*
X0831111D01*
Y3328228D01*
X0833186D01*
Y3330303D01*
D02*
G37*
G36*
X0830111D02*
X0828036D01*
Y3328228D01*
X0830111D01*
Y3330303D01*
D02*
G37*
G36*
X0864666Y3327311D02*
X0863379Y3327142D01*
X0862179Y3326645D01*
X0861149Y3325854D01*
X0860359Y3324825D01*
X0859862Y3323625D01*
X0859693Y3322338D01*
X0859862Y3321051D01*
X0860359Y3319851D01*
X0861149Y3318821D01*
X0862179Y3318031D01*
X0863379Y3317534D01*
X0864666Y3317365D01*
X0865953Y3317534D01*
X0867153Y3318031D01*
X0868183Y3318821D01*
X0868973Y3319851D01*
X0869470Y3321051D01*
X0869639Y3322338D01*
X0869470Y3323625D01*
X0868973Y3324825D01*
X0868183Y3325854D01*
X0867153Y3326645D01*
X0865953Y3327142D01*
X0864666Y3327311D01*
D02*
G37*
G36*
X0731989Y3327311D02*
X0730702Y3327142D01*
X0729502Y3326645D01*
X0728472Y3325854D01*
X0727682Y3324825D01*
X0727185Y3323625D01*
X0727016Y3322338D01*
X0727185Y3321051D01*
X0727682Y3319851D01*
X0728472Y3318821D01*
X0729502Y3318031D01*
X0730702Y3317534D01*
X0731989Y3317365D01*
X0733276Y3317534D01*
X0734476Y3318031D01*
X0735506Y3318821D01*
X0736296Y3319851D01*
X0736793Y3321051D01*
X0736962Y3322338D01*
X0736793Y3323625D01*
X0736296Y3324825D01*
X0735506Y3325854D01*
X0734476Y3326645D01*
X0733276Y3327142D01*
X0731989Y3327311D01*
D02*
G37*
G36*
X0787894Y3320016D02*
X0787276Y3319893D01*
X0786752Y3319543D01*
X0786402Y3319019D01*
X0786279Y3318401D01*
X0786402Y3317783D01*
X0786752Y3317258D01*
X0787276Y3316909D01*
X0787894Y3316785D01*
X0788513Y3316909D01*
X0789037Y3317258D01*
X0789118Y3317381D01*
X0793653D01*
X0794969Y3316065D01*
X0794941Y3315921D01*
X0795063Y3315302D01*
X0795414Y3314778D01*
X0795938Y3314428D01*
X0796556Y3314305D01*
X0797174Y3314428D01*
X0797698Y3314778D01*
X0798048Y3315302D01*
X0798171Y3315921D01*
X0798048Y3316539D01*
X0797698Y3317063D01*
X0797174Y3317413D01*
X0796556Y3317536D01*
X0796411Y3317507D01*
X0794797Y3319122D01*
X0794466Y3319343D01*
X0794076Y3319420D01*
X0789118D01*
X0789037Y3319543D01*
X0788513Y3319893D01*
X0787894Y3320016D01*
D02*
G37*
G36*
X0849124Y3317229D02*
X0843987D01*
Y3312486D01*
X0849124D01*
Y3317229D01*
D02*
G37*
G36*
X0832580Y3319229D02*
X0831961Y3319106D01*
X0831437Y3318756D01*
X0831087Y3318232D01*
X0830964Y3317613D01*
X0831087Y3316995D01*
X0831161Y3316885D01*
Y3315654D01*
X0830405D01*
Y3312092D01*
X0835148D01*
Y3315654D01*
X0834392D01*
Y3317417D01*
X0834269Y3318035D01*
X0833918Y3318559D01*
X0833722Y3318756D01*
X0833198Y3319106D01*
X0832580Y3319229D01*
D02*
G37*
G36*
X0848343Y3310740D02*
X0846268D01*
Y3308664D01*
X0848343D01*
Y3310740D01*
D02*
G37*
G36*
X0845269D02*
X0843194D01*
Y3308664D01*
X0845269D01*
Y3310740D01*
D02*
G37*
G36*
X0810548Y3308180D02*
X0808276D01*
Y3306499D01*
X0810548D01*
Y3308180D01*
D02*
G37*
G36*
X0807276D02*
X0805005D01*
Y3306499D01*
X0807276D01*
Y3308180D01*
D02*
G37*
G36*
X0816847Y3308377D02*
X0814773D01*
Y3306303D01*
X0816847D01*
Y3308377D01*
D02*
G37*
G36*
X0813772D02*
X0811698D01*
Y3306303D01*
X0813772D01*
Y3308377D01*
D02*
G37*
G36*
X0848343Y3307664D02*
X0846268D01*
Y3305590D01*
X0848343D01*
Y3307664D01*
D02*
G37*
G36*
X0845269D02*
X0843194D01*
Y3305590D01*
X0845269D01*
Y3307664D01*
D02*
G37*
G36*
X0773343Y3312314D02*
X0770875D01*
Y3304924D01*
X0773343D01*
Y3312314D01*
D02*
G37*
G36*
X0769875D02*
X0767406D01*
Y3304924D01*
X0769875D01*
Y3312314D01*
D02*
G37*
G36*
X0810548Y3305499D02*
X0808276D01*
Y3303818D01*
X0810548D01*
Y3305499D01*
D02*
G37*
G36*
X0807276D02*
X0805005D01*
Y3303818D01*
X0807276D01*
Y3305499D01*
D02*
G37*
G36*
X0813772Y3305302D02*
X0811698D01*
Y3303228D01*
X0813772D01*
Y3305302D01*
D02*
G37*
G36*
X0810548Y3301487D02*
X0808867D01*
Y3299216D01*
X0810548D01*
Y3301487D01*
D02*
G37*
G36*
X0807867D02*
X0806186D01*
Y3299216D01*
X0807867D01*
Y3301487D01*
D02*
G37*
G36*
X0865863Y3298928D02*
X0863788D01*
Y3296854D01*
X0865863D01*
Y3298928D01*
D02*
G37*
G36*
X0862788D02*
X0860713D01*
Y3296854D01*
X0862788D01*
Y3298928D01*
D02*
G37*
G36*
X0773343Y3303924D02*
X0770875D01*
Y3296535D01*
X0773343D01*
Y3303924D01*
D02*
G37*
G36*
X0810548Y3298216D02*
X0808867D01*
Y3295944D01*
X0810548D01*
Y3298216D01*
D02*
G37*
G36*
X0807867D02*
X0806186D01*
Y3295944D01*
X0807867D01*
Y3298216D01*
D02*
G37*
G36*
X0859065Y3298725D02*
X0853928D01*
Y3295163D01*
X0859065D01*
Y3298725D01*
D02*
G37*
G36*
X0865863Y3295853D02*
X0863788D01*
Y3293779D01*
X0865863D01*
Y3295853D01*
D02*
G37*
G36*
X0862788D02*
X0860713D01*
Y3293779D01*
X0862788D01*
Y3295853D01*
D02*
G37*
G36*
X0748812Y3294204D02*
X0746934D01*
Y3293113D01*
X0748812D01*
Y3294204D01*
D02*
G37*
G36*
X0772237Y3295188D02*
X0769965D01*
Y3292129D01*
X0772237D01*
Y3295188D01*
D02*
G37*
G36*
Y3291129D02*
X0769965D01*
Y3288070D01*
X0772237D01*
Y3291129D01*
D02*
G37*
G36*
X0754520Y3279712D02*
X0752249D01*
Y3276653D01*
X0754520D01*
Y3279712D01*
D02*
G37*
G36*
X0833225Y3272767D02*
X0831505D01*
Y3271145D01*
X0833225D01*
Y3272767D01*
D02*
G37*
G36*
X0745678Y3267629D02*
Y3265554D01*
X0747753D01*
Y3267629D01*
X0745678D01*
D02*
G37*
G36*
X0747753Y3264554D02*
X0745678D01*
Y3262480D01*
X0747753D01*
Y3264554D01*
D02*
G37*
G36*
X0744678D02*
X0742603D01*
Y3262480D01*
X0744678D01*
Y3264554D01*
D02*
G37*
G36*
X0797013Y3265346D02*
X0793560D01*
Y3261893D01*
X0797013D01*
Y3265346D01*
D02*
G37*
G36*
X0792560D02*
X0789107D01*
Y3261893D01*
X0792560D01*
Y3265346D01*
D02*
G37*
G36*
X0775737Y3265377D02*
X0773875D01*
Y3261893D01*
X0777359D01*
Y3263755D01*
X0777235Y3264376D01*
X0776884Y3264902D01*
X0776358Y3265253D01*
X0775737Y3265377D01*
D02*
G37*
G36*
X0772875D02*
X0771013D01*
X0770392Y3265253D01*
X0769866Y3264902D01*
X0769514Y3264376D01*
X0769391Y3263755D01*
Y3261893D01*
X0772875D01*
Y3265377D01*
D02*
G37*
G36*
X0787170Y3265346D02*
X0783717D01*
Y3261893D01*
X0787170D01*
Y3265346D01*
D02*
G37*
G36*
X0782717D02*
X0779264D01*
Y3261893D01*
X0782717D01*
Y3265346D01*
D02*
G37*
G36*
X0797013Y3260893D02*
X0793560D01*
Y3257440D01*
X0797013D01*
Y3260893D01*
D02*
G37*
G36*
X0792560D02*
X0789107D01*
Y3257440D01*
X0792560D01*
Y3260893D01*
D02*
G37*
G36*
X0787170Y3260893D02*
X0783717D01*
Y3257440D01*
X0787170D01*
Y3260893D01*
D02*
G37*
G36*
X0782717D02*
X0779264D01*
Y3257440D01*
X0782717D01*
Y3260893D01*
D02*
G37*
G36*
X0777359Y3260893D02*
X0773875D01*
Y3257409D01*
X0775737D01*
X0776358Y3257533D01*
X0776884Y3257884D01*
X0777235Y3258410D01*
X0777359Y3259031D01*
Y3260893D01*
D02*
G37*
G36*
X0772875D02*
X0769391D01*
Y3259031D01*
X0769514Y3258410D01*
X0769866Y3257884D01*
X0770392Y3257533D01*
X0771013Y3257409D01*
X0772875D01*
Y3260893D01*
D02*
G37*
G36*
X0797013Y3255503D02*
X0793560D01*
Y3252050D01*
X0797013D01*
Y3255503D01*
D02*
G37*
G36*
X0792560D02*
X0789107D01*
Y3252050D01*
X0792560D01*
Y3255503D01*
D02*
G37*
G36*
X0787170D02*
X0783717D01*
Y3252050D01*
X0787170D01*
Y3255503D01*
D02*
G37*
G36*
X0782717D02*
X0779264D01*
Y3252050D01*
X0782717D01*
Y3255503D01*
D02*
G37*
G36*
X0777327D02*
X0773875D01*
Y3252050D01*
X0777327D01*
Y3255503D01*
D02*
G37*
G36*
X0772875D02*
X0769422D01*
Y3252050D01*
X0772875D01*
Y3255503D01*
D02*
G37*
G36*
X0797013Y3251051D02*
X0793560D01*
Y3247598D01*
X0797013D01*
Y3251051D01*
D02*
G37*
G36*
X0792560D02*
X0789107D01*
Y3247598D01*
X0792560D01*
Y3251051D01*
D02*
G37*
G36*
X0787170D02*
X0783717D01*
Y3247598D01*
X0787170D01*
Y3251051D01*
D02*
G37*
G36*
X0782717D02*
X0779264D01*
Y3247598D01*
X0782717D01*
Y3251051D01*
D02*
G37*
G36*
X0777327D02*
X0773875D01*
Y3247598D01*
X0777327D01*
Y3251051D01*
D02*
G37*
G36*
X0772875D02*
X0769422D01*
Y3247598D01*
X0772875D01*
Y3251051D01*
D02*
G37*
G36*
X0754052Y3249519D02*
X0751977D01*
Y3247444D01*
X0754052D01*
Y3249519D01*
D02*
G37*
G36*
X0750977D02*
X0748902D01*
Y3247444D01*
X0750977D01*
Y3249519D01*
D02*
G37*
G36*
X0747753D02*
X0745678D01*
Y3247444D01*
X0747753D01*
Y3249519D01*
D02*
G37*
G36*
X0744678D02*
X0742603D01*
Y3247444D01*
X0744678D01*
Y3249519D01*
D02*
G37*
G36*
X0754052Y3246444D02*
X0751977D01*
Y3244370D01*
X0754052D01*
Y3246444D01*
D02*
G37*
G36*
X0792560Y3245661D02*
X0789107D01*
Y3242208D01*
X0792560D01*
Y3245661D01*
D02*
G37*
G36*
X0787170D02*
X0783717D01*
Y3242208D01*
X0787170D01*
Y3245661D01*
D02*
G37*
G36*
X0782717D02*
X0779264D01*
Y3242208D01*
X0782717D01*
Y3245661D01*
D02*
G37*
G36*
X0777229D02*
X0773776D01*
Y3242208D01*
X0777229D01*
Y3245661D01*
D02*
G37*
G36*
X0772776D02*
X0769324D01*
Y3242208D01*
X0772776D01*
Y3245661D01*
D02*
G37*
G36*
X0740257Y3239898D02*
X0739639Y3239775D01*
X0739115Y3239425D01*
X0738764Y3238901D01*
X0738641Y3238283D01*
Y3233558D01*
X0738764Y3232940D01*
X0739115Y3232416D01*
X0741476Y3230054D01*
X0742001Y3229704D01*
X0742412Y3229622D01*
Y3229415D01*
X0747156D01*
Y3232977D01*
X0743122D01*
X0741872Y3234227D01*
Y3238283D01*
X0741749Y3238901D01*
X0741399Y3239425D01*
X0740875Y3239775D01*
X0740257Y3239898D01*
D02*
G37*
G36*
X0731989Y3214319D02*
X0730702Y3214149D01*
X0729502Y3213652D01*
X0728472Y3212862D01*
X0727682Y3211832D01*
X0727185Y3210633D01*
X0727016Y3209346D01*
X0727185Y3208059D01*
X0727682Y3206859D01*
X0728472Y3205829D01*
X0729502Y3205039D01*
X0730702Y3204542D01*
X0731989Y3204372D01*
X0733276Y3204542D01*
X0734476Y3205039D01*
X0735506Y3205829D01*
X0736296Y3206859D01*
X0736793Y3208059D01*
X0736962Y3209346D01*
X0736793Y3210633D01*
X0736296Y3211832D01*
X0735506Y3212862D01*
X0734476Y3213652D01*
X0733276Y3214149D01*
X0731989Y3214319D01*
D02*
G37*
G36*
X0789835Y3206968D02*
X0789303Y3206897D01*
X0788342Y3206499D01*
X0787516Y3205865D01*
X0786883Y3205040D01*
X0786484Y3204078D01*
X0786414Y3203546D01*
X0789835D01*
Y3206968D01*
D02*
G37*
G36*
X0825780Y3288570D02*
X0823705D01*
Y3286495D01*
X0825780D01*
Y3288570D01*
D02*
G37*
G36*
X0822753Y3273928D02*
X0820678D01*
Y3271854D01*
X0822753D01*
Y3273928D01*
D02*
G37*
G36*
X0830702Y3248727D02*
X0828981D01*
Y3247106D01*
X0830702D01*
Y3248727D01*
D02*
G37*
G36*
X0821217Y3248727D02*
X0819497D01*
Y3247106D01*
X0821217D01*
Y3248727D01*
D02*
G37*
G36*
X0818497D02*
X0816776D01*
Y3247106D01*
X0818497D01*
Y3248727D01*
D02*
G37*
G36*
X0810792Y3233728D02*
X0806946D01*
Y3232243D01*
X0810792D01*
Y3233728D01*
D02*
G37*
%LPD*%
D12*
X0801168Y3235937D02*
X0802435Y3234669D01*
X0806004D01*
X0806446Y3234228D01*
X0801168Y3235937D02*
X0801183Y3235953D01*
Y3238905D01*
X0802405Y3240127D01*
X0806034D01*
X0806446Y3240539D01*
X0832283Y3307968D02*
X0832964Y3307287D01*
X0818800Y3276471D02*
X0820375D01*
X0820572Y3276669D01*
X0827086Y3272946D02*
Y3282787D01*
X0824902Y3270763D02*
X0827086Y3272946D01*
Y3282787D02*
X0830020Y3285722D01*
X0828686Y3282124D02*
X0831989Y3285427D01*
X0828686Y3270393D02*
Y3282124D01*
X0826694Y3268401D02*
X0828686Y3270393D01*
X0786910Y3291154D02*
X0787095Y3290969D01*
Y3290284D02*
Y3290969D01*
Y3290284D02*
X0787229Y3290150D01*
Y3283024D02*
Y3290150D01*
Y3283024D02*
X0791123Y3279130D01*
Y3273027D02*
Y3279130D01*
X0799018Y3234378D02*
X0800086Y3233310D01*
Y3232940D02*
Y3233310D01*
X0754036Y3270879D02*
X0768094Y3284936D01*
X0754036Y3266432D02*
Y3270879D01*
Y3266432D02*
X0754725Y3265743D01*
X0794792Y3209338D02*
X0804044D01*
X0782580Y3221550D02*
X0794792Y3209338D01*
X0778052Y3221550D02*
X0782580D01*
X0798131Y3203046D02*
X0800335D01*
X0781792Y3219385D02*
X0798131Y3203046D01*
X0776280Y3219385D02*
X0781792D01*
X0841635Y3293872D02*
X0844026Y3296263D01*
X0841635Y3289267D02*
Y3293872D01*
X0834941Y3282574D02*
X0841635Y3289267D01*
X0844026Y3296263D02*
X0844201D01*
X0843898Y3297928D02*
X0844883Y3296944D01*
X0841438Y3297928D02*
X0843898D01*
X0839560Y3296051D02*
X0841438Y3297928D01*
X0792308Y3283870D02*
X0793209Y3282968D01*
X0799115D01*
X0815060Y3292228D02*
Y3299700D01*
X0811902Y3289070D02*
X0815060Y3292228D01*
X0817090Y3290116D02*
Y3297400D01*
X0813288Y3286314D02*
X0817090Y3290116D01*
X0812304Y3324695D02*
Y3330803D01*
X0814979Y3321259D02*
Y3322020D01*
X0812304Y3324695D02*
X0814979Y3322020D01*
X0822267Y3311708D02*
X0830020Y3303955D01*
X0814272Y3311708D02*
X0822267D01*
X0776083Y3292023D02*
X0783705Y3299644D01*
X0791344D02*
X0794035Y3296954D01*
X0777683Y3291360D02*
X0784367Y3298044D01*
X0789354D02*
X0792308Y3295090D01*
X0784367Y3298044D02*
X0789354D01*
X0783705Y3299644D02*
X0791344D01*
X0824115Y3299306D02*
Y3305275D01*
X0823328Y3298519D02*
X0824115Y3299306D01*
X0818209Y3298519D02*
X0823328D01*
X0809646Y3324405D02*
X0812894Y3321157D01*
X0802954Y3324405D02*
X0809646D01*
X0798710Y3328649D02*
X0802954Y3324405D01*
X0798710Y3328649D02*
Y3329515D01*
X0798524Y3329700D02*
X0798710Y3329515D01*
X0799115Y3282968D02*
X0801190Y3285043D01*
Y3285633D01*
X0801871Y3286314D01*
X0802461D01*
X0792308Y3283870D02*
Y3295090D01*
X0789469Y3283046D02*
X0794272Y3278243D01*
X0789469Y3283046D02*
Y3289045D01*
X0777683Y3285848D02*
Y3291360D01*
X0776083Y3286511D02*
Y3292023D01*
X0794272Y3273027D02*
Y3278243D01*
X0775375Y3283540D02*
X0777683Y3285848D01*
X0774509Y3284936D02*
X0776083Y3286511D01*
X0794035Y3292901D02*
X0794716Y3292220D01*
X0794035Y3292901D02*
Y3296954D01*
X0775375Y3273027D02*
Y3283540D01*
X0804044Y3209338D02*
X0810335Y3203046D01*
X0799018Y3234378D02*
Y3239687D01*
X0800431Y3241100D01*
Y3245173D01*
X0800887Y3249835D02*
Y3252653D01*
X0800099Y3249048D02*
X0800887Y3249835D01*
X0800099Y3249048D02*
X0800431Y3248716D01*
X0797418Y3245703D02*
X0800431Y3248716D01*
X0797418Y3238607D02*
Y3245703D01*
X0796162Y3237351D02*
X0797418Y3238607D01*
X0796162Y3235937D02*
Y3237351D01*
X0809351Y3286314D02*
X0813288D01*
X0817090Y3297400D02*
X0818209Y3298519D01*
X0822435Y3306955D02*
X0824115Y3305275D01*
X0821450Y3306955D02*
X0822435D01*
X0820769Y3307636D02*
X0821450Y3306955D01*
X0797881Y3289070D02*
X0811902D01*
X0809351Y3292220D02*
X0812698Y3295566D01*
Y3296550D01*
X0815060Y3299700D02*
X0817090Y3301730D01*
X0820769D01*
X0830020Y3285722D02*
Y3303955D01*
X0814979Y3321259D02*
X0831989Y3304249D01*
Y3285427D02*
Y3304249D01*
X0832964Y3307287D02*
X0833654D01*
X0832283Y3307968D02*
X0832776D01*
X0833761Y3284936D02*
Y3307180D01*
X0831005Y3282180D02*
X0833761Y3284936D01*
X0833654Y3307287D02*
X0833761Y3307180D01*
X0831005Y3277850D02*
Y3282180D01*
X0809351Y3278637D02*
Y3286314D01*
X0807383Y3276669D02*
X0809351Y3278637D01*
X0796450Y3287639D02*
X0797881Y3289070D01*
X0796450Y3286995D02*
Y3287639D01*
X0795768Y3286314D02*
X0796450Y3286995D01*
X0795178Y3286314D02*
X0795768D01*
X0781595Y3281590D02*
X0781674Y3281511D01*
Y3273027D02*
Y3281511D01*
X0794716Y3292220D02*
X0795178D01*
X0768094Y3284936D02*
X0774509D01*
X0754725Y3265743D02*
X0759981D01*
X0761615Y3273027D02*
X0765887D01*
X0759981Y3271393D02*
X0761615Y3273027D01*
X0759981Y3268893D02*
Y3271393D01*
X0800086Y3232940D02*
X0800245D01*
X0800729Y3232456D01*
Y3230094D02*
Y3232456D01*
X0794438Y3234212D02*
X0796162Y3235937D01*
X0794438Y3230291D02*
Y3234212D01*
X0794241Y3230094D02*
X0794438Y3230291D01*
X0847737Y3283165D02*
Y3283755D01*
X0847056Y3284436D02*
X0847737Y3283755D01*
X0846465Y3284436D02*
X0847056D01*
X0845670Y3285231D02*
X0846465Y3284436D01*
X0845670Y3285231D02*
Y3289464D01*
X0838879Y3294779D02*
X0839560Y3295460D01*
Y3296051D01*
X0844883Y3296944D02*
X0845670D01*
X0838288Y3294779D02*
X0838879D01*
X0806733Y3266039D02*
X0811516D01*
X0806438Y3265743D02*
X0806733Y3266039D01*
X0814863Y3266438D02*
Y3272535D01*
X0811284Y3262859D02*
X0814863Y3266438D01*
X0806742Y3262859D02*
X0811284D01*
X0806438Y3262555D02*
X0806742Y3262859D01*
X0817433Y3268401D02*
X0826694D01*
X0834745Y3282574D02*
X0834941D01*
X0844201Y3296263D02*
X0844883Y3296944D01*
X0835335Y3279818D02*
X0835521Y3280003D01*
X0836210D01*
X0844201Y3287995D01*
Y3288783D01*
X0844883Y3289464D01*
X0845670D01*
X0810426Y3269357D02*
X0811713Y3270645D01*
X0806902Y3269357D02*
X0810426D01*
X0806438Y3268893D02*
X0806902Y3269357D01*
X0814863Y3272535D02*
X0818800Y3276471D01*
X0816635Y3267602D02*
X0817433Y3268401D01*
X0816635Y3265842D02*
Y3267602D01*
X0810563Y3259771D02*
X0816635Y3265842D01*
X0832776Y3307968D02*
X0832973Y3308165D01*
X0839863D01*
X0840257Y3308558D01*
Y3314857D01*
X0839272Y3318906D02*
Y3318991D01*
Y3318906D02*
X0840257Y3317921D01*
Y3314857D02*
Y3317921D01*
X0818209Y3330803D02*
X0824312D01*
X0806764Y3259771D02*
X0810563D01*
X0806438Y3259444D02*
X0806764Y3259771D01*
X0807776Y3311905D02*
X0807973Y3311708D01*
X0814272D01*
X0807186Y3311905D02*
X0807776D01*
X0806516Y3312574D02*
X0807186Y3311905D01*
X0801162Y3312574D02*
X0806516D01*
D13*
X0827265Y3252929D02*
G03*
X0827186Y3252850I0000000J-0000079D01*
G01*
X0831083Y3267023D02*
G03*
X0831005Y3266944I0000000J-0000079D01*
G01*
X0746556Y3276078D02*
Y3278440D01*
X0856497Y3286511D02*
Y3289464D01*
X0746556Y3274306D02*
Y3276078D01*
X0734942Y3254987D02*
X0740257Y3260302D01*
X0734942Y3242613D02*
Y3254987D01*
X0770563Y3198725D02*
X0783170D01*
X0734942Y3228440D02*
Y3242613D01*
X0753052Y3216235D02*
X0770563Y3198725D01*
X0753052Y3216235D02*
Y3238381D01*
X0748819Y3242613D02*
X0753052Y3238381D01*
X0734942Y3242613D02*
X0748819D01*
X0853642Y3283165D02*
Y3283755D01*
X0853839Y3283952D01*
X0854430D01*
X0856497Y3286019D01*
X0849143Y3303243D02*
X0850296Y3302090D01*
Y3295665D02*
Y3302090D01*
Y3295665D02*
X0855513Y3290448D01*
X0838091Y3303243D02*
X0849143D01*
X0838091Y3300881D02*
Y3303243D01*
Y3300881D02*
X0838288Y3300684D01*
X0832580Y3317613D02*
X0832776Y3317417D01*
Y3313873D02*
Y3317417D01*
X0742619Y3231196D02*
X0744784D01*
X0740257Y3233558D02*
Y3238283D01*
Y3233558D02*
X0742619Y3231196D01*
X0740257Y3268007D02*
X0746556Y3274306D01*
X0740257Y3260302D02*
Y3268007D01*
X0734942Y3228440D02*
X0738091Y3225291D01*
X0744784D01*
X0752914Y3256255D02*
X0753052Y3256393D01*
Y3258252D01*
X0754205Y3259405D01*
X0759981D01*
X0751733Y3253106D02*
X0752068Y3253440D01*
X0751477Y3252850D02*
X0751733Y3253106D01*
X0752068Y3253440D02*
Y3255409D01*
X0752914Y3256255D01*
X0759981D01*
X0751733Y3253106D02*
X0759981D01*
X0745178Y3252850D02*
X0751477D01*
X0745178D02*
Y3259149D01*
X0740257Y3260302D02*
X0741410Y3259149D01*
X0745178D01*
X0827265Y3252929D02*
X0831201D01*
X0837501Y3257574D02*
X0838485D01*
X0835926Y3255999D02*
X0837501Y3257574D01*
X0835926Y3255015D02*
Y3255999D01*
X0833839Y3252929D02*
X0835926Y3255015D01*
X0831201Y3252929D02*
X0833839D01*
X0831083Y3267023D02*
X0838485D01*
X0806446Y3237381D02*
X0811205D01*
D22*
X0809351Y3292220D02*
D03*
Y3286314D02*
D03*
X0820769Y3307636D02*
D03*
Y3301730D02*
D03*
X0795178Y3292220D02*
D03*
Y3286314D02*
D03*
X0807776Y3311905D02*
D03*
Y3305999D02*
D03*
X0802461Y3292220D02*
D03*
Y3286314D02*
D03*
X0787698Y3311708D02*
D03*
Y3305803D02*
D03*
X0832776Y3313873D02*
D03*
Y3307968D02*
D03*
X0781202Y3287631D02*
D03*
Y3281725D02*
D03*
X0838288Y3300684D02*
D03*
Y3294779D02*
D03*
X0744784Y3231196D02*
D03*
Y3237102D02*
D03*
Y3225291D02*
D03*
D23*
X0820470Y3295173D02*
D03*
X0826376D02*
D03*
X0820375Y3289070D02*
D03*
X0826280D02*
D03*
X0839863Y3308165D02*
D03*
X0845769D02*
D03*
X0830611Y3330803D02*
D03*
X0824312D02*
D03*
D24*
X0802461Y3298716D02*
D03*
X0808367D02*
D03*
X0818209Y3330803D02*
D03*
X0812304D02*
D03*
X0853642Y3283165D02*
D03*
X0847737D02*
D03*
D25*
X0814272Y3311708D02*
D03*
Y3305803D02*
D03*
X0820178Y3265448D02*
D03*
Y3271354D02*
D03*
X0745178Y3252850D02*
D03*
Y3246944D02*
D03*
X0751477Y3252850D02*
D03*
Y3246944D02*
D03*
X0863288Y3290448D02*
D03*
Y3296354D02*
D03*
X0745178Y3259149D02*
D03*
Y3265054D02*
D03*
D26*
X0840257Y3330999D02*
D03*
Y3314857D02*
D03*
X0846556D02*
D03*
Y3330999D02*
D03*
D27*
X0831201Y3249228D02*
D03*
Y3252929D02*
D03*
X0818997Y3249228D02*
D03*
Y3252929D02*
D03*
X0831005Y3270645D02*
D03*
Y3266944D02*
D03*
D28*
X0753249Y3327062D02*
D03*
X0779627D02*
D03*
D29*
X0762501Y3304425D02*
D03*
X0770375D02*
D03*
D30*
X0793060Y3241708D02*
D03*
X0783217D02*
D03*
X0773276D02*
D03*
X0793060Y3251550D02*
D03*
X0783217D02*
D03*
X0773375D02*
D03*
X0793060Y3261393D02*
D03*
X0783217Y3261393D02*
D03*
X0820335Y3203046D02*
D03*
D31*
X0773375Y3261393D02*
D03*
D32*
X0838485Y3267023D02*
D03*
Y3257574D02*
D03*
Y3240251D02*
D03*
Y3227259D02*
D03*
X0872343Y3267023D02*
D03*
Y3227259D02*
D03*
Y3240251D02*
D03*
D33*
X0823406Y3252850D02*
D03*
X0827186D02*
D03*
D34*
X0856497Y3296944D02*
D03*
Y3289464D02*
D03*
X0845670D02*
D03*
Y3293204D02*
D03*
Y3296944D02*
D03*
D35*
X0801162Y3304936D02*
D03*
Y3312574D02*
D03*
X0793524Y3308755D02*
D03*
D36*
X0749312Y3292613D02*
D03*
Y3290645D02*
D03*
Y3288676D02*
D03*
Y3286708D02*
D03*
X0757580D02*
D03*
Y3288676D02*
D03*
Y3290645D02*
D03*
Y3292613D02*
D03*
D37*
X0753446Y3289661D02*
D03*
D38*
X0772737Y3291629D02*
D03*
X0765257D02*
D03*
X0755020Y3280212D02*
D03*
X0747540D02*
D03*
D61*
X0816044Y3252850D02*
G03*
X0813879Y3250684I0000000J-0002165D01*
G01*
X0811205Y3237381D02*
G03*
X0813879Y3240054I0000000J0002673D01*
G01*
Y3240448D02*
Y3250684D01*
D62*
X0765887Y3273027D02*
D03*
X0769076D02*
D03*
X0772225D02*
D03*
X0775375D02*
D03*
X0778524D02*
D03*
X0781674D02*
D03*
X0784824D02*
D03*
X0787973D02*
D03*
X0791123D02*
D03*
X0794272D02*
D03*
X0797383D02*
D03*
X0800572D02*
D03*
X0800729Y3230094D02*
D03*
X0797418Y3230094D02*
D03*
X0794241D02*
D03*
X0791091Y3230098D02*
D03*
X0787942Y3230098D02*
D03*
X0784792Y3230094D02*
D03*
X0781642D02*
D03*
X0778493Y3230094D02*
D03*
X0775343Y3230094D02*
D03*
X0772194Y3230094D02*
D03*
X0769044D02*
D03*
X0765887D02*
D03*
D63*
X0806438Y3268893D02*
D03*
Y3265743D02*
D03*
Y3262555D02*
D03*
Y3259444D02*
D03*
Y3256295D02*
D03*
Y3253106D02*
D03*
X0806446Y3249976D02*
D03*
X0806446Y3246826D02*
D03*
X0806446Y3243676D02*
D03*
X0806446Y3240539D02*
D03*
X0806446Y3237381D02*
D03*
Y3234228D02*
D03*
X0759981Y3234247D02*
D03*
Y3237357D02*
D03*
Y3240546D02*
D03*
Y3243657D02*
D03*
Y3246806D02*
D03*
Y3249995D02*
D03*
Y3253106D02*
D03*
Y3256255D02*
D03*
Y3259405D02*
D03*
Y3262555D02*
D03*
Y3265743D02*
D03*
Y3268893D02*
D03*
D64*
X0826280Y3295077D02*
X0826376Y3295173D01*
X0826280Y3289070D02*
Y3295077D01*
X0753446Y3282574D02*
Y3289661D01*
Y3282574D02*
X0755020Y3280999D01*
Y3280212D02*
Y3280999D01*
X0816044Y3252850D02*
X0823406D01*
D65*
X0761248Y3292094D02*
X0761713Y3291629D01*
X0731398Y3283558D02*
X0752264Y3304425D01*
X0731398Y3226865D02*
Y3283558D01*
Y3226865D02*
X0737107Y3221157D01*
X0760729Y3292613D02*
X0761248Y3292094D01*
X0761713Y3291629D02*
X0765257D01*
X0765650Y3292023D02*
Y3295960D01*
X0765257Y3291629D02*
X0765650Y3292023D01*
X0763682Y3297928D02*
X0765650Y3295960D01*
X0763682Y3297928D02*
Y3303243D01*
X0762501Y3304425D02*
X0763682Y3303243D01*
X0802461Y3292220D02*
Y3298716D01*
Y3303637D01*
X0802245Y3303854D02*
X0802461Y3303637D01*
X0802245Y3303854D02*
Y3304779D01*
X0802087Y3304936D02*
X0802245Y3304779D01*
X0801162Y3304936D02*
X0802087D01*
X0793458Y3308689D02*
X0793524Y3308755D01*
X0790584Y3308689D02*
X0793458D01*
X0788682Y3306787D02*
X0790584Y3308689D01*
X0788682Y3306196D02*
Y3306787D01*
X0788288Y3305803D02*
X0788682Y3306196D01*
X0787698Y3305803D02*
X0788288D01*
X0764666Y3314661D02*
X0784745D01*
X0786713Y3312692D01*
Y3312102D02*
Y3312692D01*
Y3312102D02*
X0787107Y3311708D01*
X0787698D01*
X0762759Y3312754D02*
X0764666Y3314661D01*
X0762759Y3304683D02*
Y3312754D01*
X0762501Y3304425D02*
X0762759Y3304683D01*
X0744829Y3289722D02*
X0745768D01*
X0744103Y3290448D02*
X0744829Y3289722D01*
X0743997Y3290448D02*
X0744103D01*
X0752264Y3304425D02*
X0762501D01*
X0737107Y3221157D02*
X0747540D01*
X0749509Y3223125D01*
Y3235149D01*
X0747742Y3236916D02*
X0749509Y3235149D01*
X0744970Y3236916D02*
X0747742D01*
X0744784Y3237102D02*
X0744970Y3236916D01*
X0746556Y3278440D02*
X0747540Y3279425D01*
Y3280212D01*
X0746691Y3290645D02*
X0747146D01*
X0745768Y3289722D02*
X0746691Y3290645D01*
X0745768Y3282771D02*
Y3289722D01*
Y3282771D02*
X0747540Y3280999D01*
Y3280212D02*
Y3280999D01*
X0759807Y3290653D02*
X0760729Y3291575D01*
Y3292613D01*
D66*
X0801674Y3212102D02*
X0806005Y3216432D01*
X0794857Y3212102D02*
X0801674D01*
X0787973Y3218986D02*
X0794857Y3212102D01*
X0787973Y3218986D02*
Y3230066D01*
X0783170Y3198725D02*
X0816014D01*
X0820335Y3203046D01*
X0795109Y3214651D02*
X0800877D01*
X0791091Y3218668D02*
X0795109Y3214651D01*
X0800877D02*
X0803052Y3216826D01*
X0824509Y3265448D02*
X0824902Y3265054D01*
X0820178Y3265448D02*
X0824509D01*
X0823029Y3292613D02*
X0823328D01*
X0820470Y3295173D02*
X0823029Y3292613D01*
X0862304Y3289464D02*
X0863288Y3290448D01*
X0856497Y3289464D02*
X0862304D01*
X0791091Y3218668D02*
Y3230098D01*
X0775296Y3224306D02*
X0775343Y3224354D01*
X0778249Y3224306D02*
Y3229850D01*
X0775343Y3224354D02*
Y3230094D01*
X0778249Y3229850D02*
X0778493Y3230094D01*
X0772194Y3219821D02*
Y3230094D01*
X0796950Y3216826D02*
Y3219204D01*
X0797418Y3219673D01*
Y3230094D01*
X0770183Y3217810D02*
X0772194Y3219821D01*
X0770178Y3217810D02*
X0770183D01*
X0779572Y3237566D02*
X0781028D01*
X0778265Y3238873D02*
X0779572Y3237566D01*
X0778052Y3238873D02*
X0778265D01*
X0781028Y3237566D02*
X0781642Y3236952D01*
X0786662Y3237566D02*
X0788363Y3239267D01*
X0788485D01*
X0784769Y3237078D02*
X0785257Y3237566D01*
X0786662D01*
X0781642Y3230094D02*
Y3236952D01*
X0784769Y3230117D02*
Y3237078D01*
X0798525Y3267220D02*
X0800215Y3268910D01*
Y3272670D01*
X0800572Y3273027D01*
X0795769Y3268007D02*
X0796989Y3269227D01*
Y3272633D01*
X0797383Y3273027D01*
X0820375Y3295077D02*
X0820470Y3295173D01*
X0820375Y3289070D02*
Y3295077D01*
X0811713Y3280409D02*
X0820375Y3289070D01*
X0811713Y3275881D02*
Y3280409D01*
X0810574Y3256632D02*
X0818406Y3264464D01*
X0819194D01*
X0820178Y3265448D01*
X0806775Y3256632D02*
X0810574D01*
X0806438Y3256295D02*
X0806775Y3256632D01*
X0809351Y3223322D02*
X0810926Y3221747D01*
X0804627Y3223322D02*
X0809351D01*
X0803052Y3221747D02*
X0804627Y3223322D01*
X0803052Y3216826D02*
Y3221747D01*
X0806005Y3216432D02*
Y3220566D01*
X0810926Y3220763D02*
Y3221747D01*
X0787942Y3230098D02*
X0787973Y3230066D01*
X0769390Y3230440D02*
Y3236118D01*
X0769044Y3230094D02*
X0769390Y3230440D01*
X0784769Y3230117D02*
X0784792Y3230094D01*
X0752068Y3292613D02*
X0753052Y3291629D01*
X0749312Y3292613D02*
X0752068D01*
X0758842Y3288547D02*
X0761055D01*
X0758713Y3288676D02*
X0758842Y3288547D01*
X0757580Y3288676D02*
X0758713D01*
X0747146Y3290645D02*
X0749312D01*
X0758170Y3290653D02*
X0759807D01*
X0757580Y3292613D02*
X0760729D01*
D67*
X0784926Y3290332D02*
X0785729Y3289529D01*
Y3278834D02*
Y3289529D01*
Y3278834D02*
X0787389Y3277174D01*
X0794076Y3318401D02*
X0796556Y3315921D01*
X0787894Y3318401D02*
X0794076D01*
X0787485Y3295747D02*
X0787698Y3295960D01*
X0787320Y3295747D02*
X0787485D01*
X0784926Y3291976D02*
X0787096Y3294146D01*
X0783526Y3289753D02*
X0784010Y3289268D01*
Y3273840D02*
Y3289268D01*
X0783526Y3289753D02*
Y3293441D01*
X0787096Y3294146D02*
Y3295524D01*
X0787320Y3295747D01*
X0787389Y3273611D02*
Y3277174D01*
Y3273611D02*
X0787973Y3273027D01*
X0783526Y3293441D02*
X0784548Y3294463D01*
Y3294779D01*
X0784010Y3273840D02*
X0784824Y3273027D01*
X0784926Y3290332D02*
Y3291976D01*
D68*
X0864666Y3322338D02*
D03*
Y3209346D02*
D03*
X0731989Y3322338D02*
D03*
Y3209346D02*
D03*
D69*
X0806162Y3328247D02*
D03*
Y3320247D02*
D03*
X0786162Y3324247D02*
D03*
D70*
X0790335Y3203046D02*
D03*
X0800335D02*
D03*
X0810335D02*
D03*
D71*
X0820375Y3276471D02*
D03*
X0787942Y3256393D02*
D03*
X0778145Y3246747D02*
D03*
X0872638Y3308662D02*
D03*
X0870473Y3304332D02*
D03*
X0872638Y3300001D02*
D03*
X0870473Y3295670D02*
D03*
X0872638Y3291339D02*
D03*
X0870473Y3287009D02*
D03*
X0872638Y3282678D02*
D03*
X0870473Y3278347D02*
D03*
X0872638Y3274017D02*
D03*
X0868307Y3308662D02*
D03*
X0866142Y3304332D02*
D03*
X0868307Y3300001D02*
D03*
Y3291339D02*
D03*
X0866142Y3287009D02*
D03*
X0868307Y3282678D02*
D03*
X0866142Y3278347D02*
D03*
X0868307Y3274017D02*
D03*
X0863977Y3308662D02*
D03*
X0861811Y3304332D02*
D03*
X0863977Y3300001D02*
D03*
X0861811Y3287009D02*
D03*
X0863977Y3282678D02*
D03*
X0861811Y3278347D02*
D03*
X0863977Y3274017D02*
D03*
X0857481Y3312993D02*
D03*
X0859646Y3308662D02*
D03*
X0857481Y3304332D02*
D03*
X0859646Y3300001D02*
D03*
Y3282678D02*
D03*
X0857481Y3278347D02*
D03*
X0859646Y3274017D02*
D03*
X0853150Y3312993D02*
D03*
X0855315Y3308662D02*
D03*
X0853150Y3304332D02*
D03*
X0855315Y3300001D02*
D03*
X0853150Y3278347D02*
D03*
X0855315Y3274017D02*
D03*
X0848819Y3321655D02*
D03*
X0850984Y3317324D02*
D03*
Y3308662D02*
D03*
X0848819Y3278347D02*
D03*
X0850984Y3274017D02*
D03*
X0846654Y3325985D02*
D03*
Y3274017D02*
D03*
X0842323Y3282678D02*
D03*
Y3274017D02*
D03*
X0837992Y3325985D02*
D03*
Y3291339D02*
D03*
X0833662Y3325985D02*
D03*
X0831496Y3261024D02*
D03*
Y3243702D02*
D03*
Y3235040D02*
D03*
Y3226379D02*
D03*
Y3217717D02*
D03*
Y3209056D02*
D03*
Y3200395D02*
D03*
X0829331Y3325985D02*
D03*
Y3317324D02*
D03*
X0827166Y3312993D02*
D03*
Y3261024D02*
D03*
Y3243702D02*
D03*
X0829331Y3239371D02*
D03*
X0827166Y3235040D02*
D03*
X0829331Y3230710D02*
D03*
X0827166Y3226379D02*
D03*
X0829331Y3222048D02*
D03*
X0827166Y3217717D02*
D03*
X0829331Y3213387D02*
D03*
X0827166Y3209056D02*
D03*
X0829331Y3204725D02*
D03*
X0827166Y3200395D02*
D03*
X0825000Y3325985D02*
D03*
Y3317324D02*
D03*
X0822835Y3261024D02*
D03*
Y3243702D02*
D03*
X0825000Y3239371D02*
D03*
X0822835Y3235040D02*
D03*
X0825000Y3230710D02*
D03*
Y3222048D02*
D03*
X0822835Y3217717D02*
D03*
X0825000Y3213387D02*
D03*
X0822835Y3209056D02*
D03*
X0825000Y3204725D02*
D03*
X0820669Y3325985D02*
D03*
X0818504Y3261024D02*
D03*
X0820669Y3239371D02*
D03*
X0818504Y3235040D02*
D03*
Y3217717D02*
D03*
X0820669Y3213387D02*
D03*
X0818504Y3209056D02*
D03*
X0816339Y3325985D02*
D03*
X0814174Y3217717D02*
D03*
X0816339Y3213387D02*
D03*
X0814174Y3209056D02*
D03*
X0812008Y3317324D02*
D03*
Y3300001D02*
D03*
X0809843Y3217717D02*
D03*
X0812008Y3213387D02*
D03*
X0809843Y3209056D02*
D03*
X0807677Y3274017D02*
D03*
Y3213387D02*
D03*
X0803347Y3317324D02*
D03*
Y3308662D02*
D03*
X0799016Y3317324D02*
D03*
X0796851Y3312993D02*
D03*
X0799016Y3308662D02*
D03*
X0796851Y3304332D02*
D03*
X0799016Y3300001D02*
D03*
X0794685D02*
D03*
X0788189Y3209056D02*
D03*
X0783858D02*
D03*
X0781693Y3317324D02*
D03*
Y3308662D02*
D03*
X0779528Y3304332D02*
D03*
Y3209056D02*
D03*
X0781693Y3204725D02*
D03*
X0777362Y3317324D02*
D03*
Y3308662D02*
D03*
X0775197Y3304332D02*
D03*
X0777362Y3300001D02*
D03*
Y3256694D02*
D03*
X0775197Y3209056D02*
D03*
X0777362Y3204725D02*
D03*
X0770866Y3330316D02*
D03*
Y3209056D02*
D03*
X0773032Y3204725D02*
D03*
X0766536Y3330316D02*
D03*
X0768701Y3325985D02*
D03*
X0766536Y3321655D02*
D03*
X0768701Y3265355D02*
D03*
Y3256694D02*
D03*
X0766536Y3252363D02*
D03*
Y3243702D02*
D03*
Y3217717D02*
D03*
Y3209056D02*
D03*
X0768701Y3204725D02*
D03*
X0762205Y3330316D02*
D03*
X0764370Y3325985D02*
D03*
X0762205Y3321655D02*
D03*
X0764370Y3317324D02*
D03*
X0762205Y3295670D02*
D03*
Y3217717D02*
D03*
Y3200395D02*
D03*
X0757874Y3330316D02*
D03*
X0760040Y3325985D02*
D03*
X0757874Y3321655D02*
D03*
X0760040Y3317324D02*
D03*
X0757874Y3312993D02*
D03*
Y3295670D02*
D03*
Y3217717D02*
D03*
X0760040Y3204725D02*
D03*
X0757874Y3200395D02*
D03*
X0755709Y3317324D02*
D03*
X0753544Y3312993D02*
D03*
X0755709Y3308662D02*
D03*
Y3300001D02*
D03*
X0753544Y3295670D02*
D03*
Y3209056D02*
D03*
X0755709Y3204725D02*
D03*
X0753544Y3200395D02*
D03*
X0751378Y3317324D02*
D03*
X0749213Y3312993D02*
D03*
X0751378Y3308662D02*
D03*
Y3300001D02*
D03*
X0749213Y3295670D02*
D03*
X0751378Y3265355D02*
D03*
Y3213387D02*
D03*
X0749213Y3209056D02*
D03*
X0751378Y3204725D02*
D03*
X0749213Y3200395D02*
D03*
X0744882Y3330316D02*
D03*
X0747048Y3325985D02*
D03*
X0744882Y3321655D02*
D03*
X0747048Y3317324D02*
D03*
X0744882Y3312993D02*
D03*
X0747048Y3308662D02*
D03*
X0744882Y3304332D02*
D03*
Y3217717D02*
D03*
X0747048Y3213387D02*
D03*
X0744882Y3209056D02*
D03*
X0747048Y3204725D02*
D03*
X0744882Y3200395D02*
D03*
X0742717Y3317324D02*
D03*
X0740551Y3312993D02*
D03*
X0742717Y3308662D02*
D03*
X0740551Y3304332D02*
D03*
X0742717Y3300001D02*
D03*
X0740551Y3217717D02*
D03*
Y3200395D02*
D03*
X0738386Y3308662D02*
D03*
X0736221Y3304332D02*
D03*
X0738386Y3300001D02*
D03*
Y3230710D02*
D03*
X0734055Y3308662D02*
D03*
X0731890Y3304332D02*
D03*
X0729725Y3308662D02*
D03*
X0727559Y3304332D02*
D03*
Y3287009D02*
D03*
Y3278347D02*
D03*
Y3269686D02*
D03*
Y3261024D02*
D03*
Y3252363D02*
D03*
Y3243702D02*
D03*
Y3226379D02*
D03*
X0729725Y3222048D02*
D03*
X0723229Y3312993D02*
D03*
X0725394Y3308662D02*
D03*
X0723229Y3304332D02*
D03*
Y3287009D02*
D03*
X0725394Y3282678D02*
D03*
X0723229Y3278347D02*
D03*
X0725394Y3274017D02*
D03*
X0723229Y3269686D02*
D03*
X0725394Y3265355D02*
D03*
X0723229Y3261024D02*
D03*
X0725394Y3256694D02*
D03*
X0723229Y3252363D02*
D03*
X0725394Y3248032D02*
D03*
X0723229Y3243702D02*
D03*
X0725394Y3239371D02*
D03*
X0723229Y3226379D02*
D03*
X0725394Y3222048D02*
D03*
X0723229Y3217717D02*
D03*
X0787698Y3295960D02*
D03*
X0856595Y3286511D02*
D03*
X0824902Y3265054D02*
D03*
X0823328Y3292613D02*
D03*
X0838091Y3303243D02*
D03*
X0832580Y3317613D02*
D03*
X0746556Y3276078D02*
D03*
X0789469Y3289045D02*
D03*
X0786910Y3291154D02*
D03*
X0784548Y3294779D02*
D03*
X0775296Y3224306D02*
D03*
X0778249D02*
D03*
X0778052Y3221550D02*
D03*
X0776280Y3219385D02*
D03*
X0796950Y3216826D02*
D03*
X0770178Y3217810D02*
D03*
X0778052Y3238873D02*
D03*
X0788485Y3239267D02*
D03*
X0800887Y3252653D02*
D03*
X0800431Y3245173D02*
D03*
X0801168Y3235937D02*
D03*
X0801183Y3238905D02*
D03*
X0798525Y3267220D02*
D03*
X0795769Y3268007D02*
D03*
X0811713Y3275881D02*
D03*
X0812698Y3296550D02*
D03*
X0807383Y3276669D02*
D03*
X0797881Y3289070D02*
D03*
X0811516Y3266039D02*
D03*
X0824902Y3270763D02*
D03*
X0831005Y3277850D02*
D03*
X0834745Y3282574D02*
D03*
X0835335Y3279818D02*
D03*
X0811713Y3270645D02*
D03*
X0839272Y3318991D02*
D03*
X0812894Y3321157D02*
D03*
X0798524Y3329700D02*
D03*
X0796556Y3315921D02*
D03*
X0787894Y3318401D02*
D03*
X0822177Y3256123D02*
D03*
X0825144Y3256022D02*
D03*
X0819209Y3256077D02*
D03*
X0816252Y3256339D02*
D03*
X0810926Y3220763D02*
D03*
X0806005Y3220566D02*
D03*
X0769390Y3236118D02*
D03*
X0740257Y3238283D02*
D03*
X0761055Y3288547D02*
D03*
X0743997Y3290448D02*
D03*
X0828249Y3249567D02*
D03*
X0825887D02*
D03*
X0832973Y3256022D02*
D03*
X0830414D02*
D03*
X0827855D02*
D03*
X0813879Y3255803D02*
D03*
X0811910Y3254227D02*
D03*
X0812585Y3234017D02*
D03*
X0815231Y3235363D02*
D03*
X0816947Y3237785D02*
D03*
X0817407Y3240718D02*
D03*
Y3243686D02*
D03*
Y3246655D02*
D03*
X0823423Y3249567D02*
D03*
M02*
