G04*
G04 #@! TF.GenerationSoftware,Altium Limited,Altium Designer,19.0.15 (446)*
G04*
G04 Layer_Color=16711935*
%FSAX25Y25*%
%MOIN*%
G70*
G01*
G75*
%ADD11C,0.00984*%
%ADD12C,0.01000*%
%ADD13C,0.01968*%
%ADD14C,0.00787*%
%ADD15C,0.00394*%
%ADD17C,0.00591*%
%ADD66C,0.01181*%
%ADD81C,0.00472*%
%ADD82C,0.03150*%
D11*
X0798835Y3303007D02*
G03*
X0798835Y3303007I-0000492J0000000D01*
G01*
D12*
X0760139Y3272633D02*
G03*
X0760139Y3272633I-0000394J0000000D01*
G01*
D13*
X0846083Y3300204D02*
G03*
X0846083Y3300204I-0000500J0000000D01*
G01*
D14*
X0751016Y3292613D02*
G03*
X0751016Y3292613I-0000326J0000000D01*
G01*
X0783662Y3317747D02*
X0808662D01*
Y3330747D01*
X0783662D02*
X0808662D01*
X0783662Y3317747D02*
Y3330747D01*
X0782186Y3297535D02*
Y3332968D01*
X0750690Y3297535D02*
X0782186D01*
X0750690D02*
Y3332968D01*
X0782186D01*
X0791761Y3323124D02*
X0791236Y3322599D01*
X0790187D01*
X0789662Y3323124D01*
Y3325222D01*
X0790187Y3325747D01*
X0791236D01*
X0791761Y3325222D01*
X0794385Y3322599D02*
X0793335D01*
X0792811Y3323124D01*
Y3325222D01*
X0793335Y3325747D01*
X0794385D01*
X0794910Y3325222D01*
Y3323124D01*
X0794385Y3322599D01*
X0795959Y3325747D02*
Y3322599D01*
X0798058Y3325747D01*
Y3322599D01*
X0799108Y3325747D02*
X0800158D01*
X0799633D01*
Y3322599D01*
X0799108Y3323124D01*
X0793995Y3242810D02*
X0789075D01*
X0788091Y3243794D01*
Y3245762D01*
X0789075Y3246746D01*
X0793995D01*
X0788091Y3248714D02*
Y3250682D01*
Y3249698D01*
X0793995D01*
X0793011Y3248714D01*
X0849435Y3287704D02*
X0852059D01*
X0852583Y3288229D01*
Y3289278D01*
X0852059Y3289803D01*
X0849435D01*
X0849960Y3290853D02*
X0849435Y3291377D01*
Y3292427D01*
X0849960Y3292952D01*
X0850484D01*
X0851009Y3292427D01*
Y3291902D01*
Y3292427D01*
X0851534Y3292952D01*
X0852059D01*
X0852583Y3292427D01*
Y3291377D01*
X0852059Y3290853D01*
D15*
X0806398Y3283755D02*
X0812304D01*
Y3294779D01*
X0806398D02*
X0812304D01*
X0806398Y3283755D02*
Y3294779D01*
X0817816Y3299171D02*
X0823721D01*
Y3310195D01*
X0817816D02*
X0823721D01*
X0817816Y3299171D02*
Y3310195D01*
X0792225Y3283755D02*
X0798131D01*
Y3294779D01*
X0792225D02*
X0798131D01*
X0792225Y3283755D02*
Y3294779D01*
X0829173Y3292422D02*
Y3297923D01*
X0817673D02*
X0829173D01*
X0817673Y3292422D02*
Y3297923D01*
Y3292422D02*
X0829173D01*
X0829078Y3286320D02*
Y3291820D01*
X0817577D02*
X0829078D01*
X0817577Y3286320D02*
Y3291820D01*
Y3286320D02*
X0829078D01*
X0804824Y3303440D02*
X0810729D01*
Y3314464D01*
X0804824D02*
X0810729D01*
X0804824Y3303440D02*
Y3314464D01*
X0810926Y3295763D02*
Y3301669D01*
X0799902D02*
X0810926D01*
X0799902Y3295763D02*
Y3301669D01*
Y3295763D02*
X0810926D01*
X0799509Y3283755D02*
X0805414D01*
Y3294779D01*
X0799509D02*
X0805414D01*
X0799509Y3283755D02*
Y3294779D01*
X0809745Y3327850D02*
Y3333755D01*
Y3327850D02*
X0820769D01*
Y3333755D01*
X0809745D02*
X0820769D01*
X0784745Y3303243D02*
X0790650D01*
Y3314267D01*
X0784745D02*
X0790650D01*
X0784745Y3303243D02*
Y3314267D01*
X0829824Y3305409D02*
X0835729D01*
Y3316432D01*
X0829824D02*
X0835729D01*
X0829824Y3305409D02*
Y3316432D01*
X0778249Y3279166D02*
X0784154D01*
Y3290190D01*
X0778249D02*
X0784154D01*
X0778249Y3279166D02*
Y3290190D01*
X0811522Y3303005D02*
X0817022D01*
Y3314505D01*
X0811522D02*
X0817022D01*
X0811522Y3303005D02*
Y3314505D01*
X0817428Y3274151D02*
X0822928D01*
X0817428Y3262651D02*
Y3274151D01*
Y3262651D02*
X0822928D01*
Y3274151D01*
X0742428Y3244147D02*
X0747928D01*
Y3255647D01*
X0742428D02*
X0747928D01*
X0742428Y3244147D02*
Y3255647D01*
X0748727Y3244147D02*
X0754227D01*
Y3255647D01*
X0748727D02*
X0754227D01*
X0748727Y3244147D02*
Y3255647D01*
X0828839Y3227456D02*
Y3282574D01*
X0750099D02*
X0828839D01*
X0750099Y3227456D02*
Y3282574D01*
Y3227456D02*
X0828839Y3227456D01*
X0740650Y3230212D02*
Y3300045D01*
X0719784D02*
X0740650D01*
X0719784Y3230212D02*
Y3300045D01*
Y3230212D02*
X0740650D01*
X0849627Y3311818D02*
X0849627Y3333865D01*
X0837028Y3311818D02*
X0849627D01*
X0837028D02*
Y3333865D01*
X0849627D01*
X0829233Y3247338D02*
X0833170D01*
X0829233Y3254818D02*
X0833170D01*
X0829233Y3247338D02*
Y3254818D01*
X0833170Y3247338D02*
Y3254818D01*
X0817028Y3247338D02*
X0820965D01*
X0817028Y3254818D02*
X0820965D01*
X0817028Y3247338D02*
Y3254818D01*
X0820965Y3247338D02*
Y3254818D01*
X0845178Y3280212D02*
Y3286118D01*
Y3280212D02*
X0856201D01*
Y3286118D01*
X0845178D02*
X0856201D01*
X0835335Y3292220D02*
X0841241D01*
Y3303243D01*
X0835335D02*
X0841241D01*
X0835335Y3292220D02*
Y3303243D01*
X0860538Y3299151D02*
X0866038D01*
X0860538Y3287651D02*
Y3299151D01*
Y3287651D02*
X0866038D01*
Y3299151D01*
X0848566Y3305415D02*
Y3310915D01*
X0837066D02*
X0848566D01*
X0837066Y3305415D02*
Y3310915D01*
Y3305415D02*
X0848566D01*
X0758367Y3228373D02*
Y3274373D01*
Y3228373D02*
X0807867D01*
Y3274373D01*
X0758367D02*
X0807867D01*
X0742428Y3267852D02*
X0747928D01*
X0742428Y3256351D02*
Y3267852D01*
Y3256351D02*
X0747928D01*
Y3267852D01*
X0833761Y3223519D02*
Y3270763D01*
Y3223519D02*
X0877068D01*
Y3270763D01*
X0833761D02*
X0877068D01*
X0821457Y3250783D02*
Y3254917D01*
X0829135Y3250783D02*
Y3254917D01*
X0821457D02*
X0829135D01*
X0821457Y3250783D02*
X0829135D01*
X0829036Y3272535D02*
X0832973D01*
X0829036Y3265054D02*
X0832973D01*
Y3272535D01*
X0829036Y3265054D02*
Y3272535D01*
X0847639Y3287200D02*
X0854528D01*
X0847639Y3299208D02*
X0854528D01*
Y3287200D02*
Y3299208D01*
X0847639Y3287200D02*
Y3299208D01*
X0792516Y3303007D02*
X0799804D01*
X0792516Y3314503D02*
X0799804D01*
X0802265Y3307476D02*
Y3310035D01*
X0792516Y3303007D02*
Y3306944D01*
Y3310566D02*
Y3314503D01*
X0833367Y3327653D02*
Y3333952D01*
X0834548Y3327653D02*
Y3333952D01*
X0821556D02*
X0834548D01*
X0821556Y3327653D02*
Y3333952D01*
Y3327653D02*
X0834548D01*
X0749509Y3293598D02*
X0757383Y3293598D01*
X0749509Y3285724D02*
X0749509Y3293598D01*
X0749509Y3285724D02*
X0757383Y3285724D01*
X0757383Y3293598D01*
X0761910Y3287692D02*
X0776083D01*
X0761910D02*
Y3295566D01*
X0776083D01*
Y3287692D02*
Y3295566D01*
X0744194Y3276275D02*
X0758367D01*
X0744194D02*
Y3284149D01*
X0758367D01*
Y3276275D02*
Y3284149D01*
X0810926Y3284936D02*
X0808564D01*
Y3286117D01*
X0808958Y3286510D01*
X0809745D01*
X0810139Y3286117D01*
Y3284936D01*
Y3285723D02*
X0810926Y3286510D01*
X0808564Y3288872D02*
Y3287298D01*
X0809745D01*
X0809352Y3288085D01*
Y3288478D01*
X0809745Y3288872D01*
X0810532D01*
X0810926Y3288478D01*
Y3287691D01*
X0810532Y3287298D01*
X0822343Y3300352D02*
X0819982D01*
Y3301533D01*
X0820375Y3301926D01*
X0821163D01*
X0821556Y3301533D01*
Y3300352D01*
Y3301139D02*
X0822343Y3301926D01*
X0820375Y3302714D02*
X0819982Y3303107D01*
Y3303894D01*
X0820375Y3304288D01*
X0820769D01*
X0821163Y3303894D01*
Y3303501D01*
Y3303894D01*
X0821556Y3304288D01*
X0821950D01*
X0822343Y3303894D01*
Y3303107D01*
X0821950Y3302714D01*
X0796753Y3284936D02*
X0794391D01*
Y3286117D01*
X0794785Y3286510D01*
X0795572D01*
X0795966Y3286117D01*
Y3284936D01*
Y3285723D02*
X0796753Y3286510D01*
Y3288872D02*
Y3287298D01*
X0795178Y3288872D01*
X0794785D01*
X0794391Y3288478D01*
Y3287691D01*
X0794785Y3287298D01*
X0825599Y3294205D02*
X0825992Y3293811D01*
X0826779D01*
X0827173Y3294205D01*
Y3295779D01*
X0826779Y3296172D01*
X0825992D01*
X0825599Y3295779D01*
X0823237Y3296172D02*
X0824812D01*
X0823237Y3294598D01*
Y3294205D01*
X0823631Y3293811D01*
X0824418D01*
X0824812Y3294205D01*
X0825503Y3288102D02*
X0825897Y3287709D01*
X0826684D01*
X0827077Y3288102D01*
Y3289677D01*
X0826684Y3290070D01*
X0825897D01*
X0825503Y3289677D01*
X0824716Y3290070D02*
X0823929D01*
X0824323D01*
Y3287709D01*
X0824716Y3288102D01*
X0809351Y3304621D02*
X0806990D01*
Y3305802D01*
X0807383Y3306195D01*
X0808170D01*
X0808564Y3305802D01*
Y3304621D01*
Y3305408D02*
X0809351Y3306195D01*
Y3306983D02*
Y3307770D01*
Y3307376D01*
X0806990D01*
X0807383Y3306983D01*
X0809351Y3310525D02*
Y3308950D01*
X0807777Y3310525D01*
X0807383D01*
X0806990Y3310131D01*
Y3309344D01*
X0807383Y3308950D01*
X0809745Y3300291D02*
Y3297929D01*
X0808564D01*
X0808171Y3298323D01*
Y3299110D01*
X0808564Y3299503D01*
X0809745D01*
X0808958D02*
X0808171Y3300291D01*
X0807383D02*
X0806596D01*
X0806990D01*
Y3297929D01*
X0807383Y3298323D01*
X0805416Y3300291D02*
X0804628D01*
X0805022D01*
Y3297929D01*
X0805416Y3298323D01*
X0804036Y3284936D02*
X0801675D01*
Y3286117D01*
X0802068Y3286510D01*
X0802855D01*
X0803249Y3286117D01*
Y3284936D01*
Y3285723D02*
X0804036Y3286510D01*
Y3287298D02*
Y3288085D01*
Y3287691D01*
X0801675D01*
X0802068Y3287298D01*
Y3289265D02*
X0801675Y3289659D01*
Y3290446D01*
X0802068Y3290840D01*
X0803643D01*
X0804036Y3290446D01*
Y3289659D01*
X0803643Y3289265D01*
X0802068D01*
X0810926Y3329227D02*
Y3331589D01*
X0812107D01*
X0812500Y3331195D01*
Y3330408D01*
X0812107Y3330015D01*
X0810926D01*
X0811713D02*
X0812500Y3329227D01*
X0813287Y3329621D02*
X0813681Y3329227D01*
X0814468D01*
X0814862Y3329621D01*
Y3331195D01*
X0814468Y3331589D01*
X0813681D01*
X0813287Y3331195D01*
Y3330802D01*
X0813681Y3330408D01*
X0814862D01*
X0789272Y3304425D02*
X0786911D01*
Y3305605D01*
X0787304Y3305999D01*
X0788092D01*
X0788485Y3305605D01*
Y3304425D01*
Y3305212D02*
X0789272Y3305999D01*
X0787304Y3306786D02*
X0786911Y3307180D01*
Y3307967D01*
X0787304Y3308360D01*
X0787698D01*
X0788092Y3307967D01*
X0788485Y3308360D01*
X0788879D01*
X0789272Y3307967D01*
Y3307180D01*
X0788879Y3306786D01*
X0788485D01*
X0788092Y3307180D01*
X0787698Y3306786D01*
X0787304D01*
X0788092Y3307180D02*
Y3307967D01*
X0834351Y3306590D02*
X0831990D01*
Y3307771D01*
X0832383Y3308164D01*
X0833170D01*
X0833564Y3307771D01*
Y3306590D01*
Y3307377D02*
X0834351Y3308164D01*
Y3310132D02*
X0831990D01*
X0833170Y3308951D01*
Y3310526D01*
X0782776Y3280347D02*
X0780415D01*
Y3281528D01*
X0780808Y3281922D01*
X0781596D01*
X0781989Y3281528D01*
Y3280347D01*
Y3281134D02*
X0782776Y3281922D01*
Y3282709D02*
Y3283496D01*
Y3283102D01*
X0780415D01*
X0780808Y3282709D01*
X0813305Y3306580D02*
X0812911Y3306186D01*
Y3305399D01*
X0813305Y3305005D01*
X0814879D01*
X0815272Y3305399D01*
Y3306186D01*
X0814879Y3306580D01*
X0815272Y3307367D02*
Y3308154D01*
Y3307760D01*
X0812911D01*
X0813305Y3307367D01*
Y3309335D02*
X0812911Y3309728D01*
Y3310515D01*
X0813305Y3310909D01*
X0814879D01*
X0815272Y3310515D01*
Y3309728D01*
X0814879Y3309335D01*
X0813305D01*
X0821146Y3270576D02*
X0821539Y3270970D01*
Y3271757D01*
X0821146Y3272151D01*
X0819571D01*
X0819178Y3271757D01*
Y3270970D01*
X0819571Y3270576D01*
X0821539Y3269790D02*
Y3268215D01*
X0821146D01*
X0819571Y3269790D01*
X0819178D01*
X0744210Y3247721D02*
X0743817Y3247327D01*
Y3246540D01*
X0744210Y3246147D01*
X0745784D01*
X0746178Y3246540D01*
Y3247327D01*
X0745784Y3247721D01*
X0743817Y3250083D02*
X0744210Y3249295D01*
X0744997Y3248508D01*
X0745784D01*
X0746178Y3248902D01*
Y3249689D01*
X0745784Y3250083D01*
X0745391D01*
X0744997Y3249689D01*
Y3248508D01*
X0750509Y3247721D02*
X0750116Y3247327D01*
Y3246540D01*
X0750509Y3246147D01*
X0752084D01*
X0752477Y3246540D01*
Y3247327D01*
X0752084Y3247721D01*
X0750116Y3250083D02*
Y3248508D01*
X0751296D01*
X0750903Y3249295D01*
Y3249689D01*
X0751296Y3250083D01*
X0752084D01*
X0752477Y3249689D01*
Y3248902D01*
X0752084Y3248508D01*
X0841426Y3319718D02*
X0840770Y3319062D01*
Y3317750D01*
X0841426Y3317094D01*
X0842082D01*
X0842738Y3317750D01*
Y3319062D01*
X0843394Y3319718D01*
X0844049D01*
X0844705Y3319062D01*
Y3317750D01*
X0844049Y3317094D01*
X0844705Y3321030D02*
Y3322342D01*
Y3321685D01*
X0840770D01*
X0841426Y3321030D01*
X0846359Y3281590D02*
Y3283951D01*
X0847540D01*
X0847933Y3283558D01*
Y3282771D01*
X0847540Y3282377D01*
X0846359D01*
X0847146D02*
X0847933Y3281590D01*
X0848720Y3283951D02*
X0850295D01*
Y3283558D01*
X0848720Y3281984D01*
Y3281590D01*
X0839863Y3293401D02*
X0837502D01*
Y3294582D01*
X0837895Y3294975D01*
X0838682D01*
X0839076Y3294582D01*
Y3293401D01*
Y3294188D02*
X0839863Y3294975D01*
X0837502Y3297337D02*
X0837895Y3296549D01*
X0838682Y3295762D01*
X0839469D01*
X0839863Y3296156D01*
Y3296943D01*
X0839469Y3297337D01*
X0839076D01*
X0838682Y3296943D01*
Y3295762D01*
X0864256Y3295576D02*
X0864650Y3295970D01*
Y3296757D01*
X0864256Y3297151D01*
X0862682D01*
X0862288Y3296757D01*
Y3295970D01*
X0862682Y3295576D01*
Y3294790D02*
X0862288Y3294396D01*
Y3293609D01*
X0862682Y3293215D01*
X0864256D01*
X0864650Y3293609D01*
Y3294396D01*
X0864256Y3294790D01*
X0863862D01*
X0863469Y3294396D01*
Y3293215D01*
X0844991Y3307197D02*
X0845385Y3306803D01*
X0846172D01*
X0846566Y3307197D01*
Y3308771D01*
X0846172Y3309164D01*
X0845385D01*
X0844991Y3308771D01*
X0844204Y3307197D02*
X0843811Y3306803D01*
X0843024D01*
X0842630Y3307197D01*
Y3307590D01*
X0843024Y3307984D01*
X0843417D01*
X0843024D01*
X0842630Y3308377D01*
Y3308771D01*
X0843024Y3309164D01*
X0843811D01*
X0844204Y3308771D01*
X0767367Y3256309D02*
Y3253029D01*
X0768023Y3252373D01*
X0769335D01*
X0769991Y3253029D01*
Y3256309D01*
X0773926Y3252373D02*
X0771303D01*
X0773926Y3254997D01*
Y3255653D01*
X0773271Y3256309D01*
X0771959D01*
X0771303Y3255653D01*
X0746146Y3264277D02*
X0746539Y3264671D01*
Y3265458D01*
X0746146Y3265852D01*
X0744571D01*
X0744178Y3265458D01*
Y3264671D01*
X0744571Y3264277D01*
X0744178Y3262310D02*
X0746539D01*
X0745359Y3263490D01*
Y3261916D01*
X0796360Y3305409D02*
Y3307245D01*
Y3306327D01*
X0799115D01*
Y3308164D02*
Y3309082D01*
Y3308623D01*
X0796360D01*
X0796819Y3308164D01*
X0831792Y3329622D02*
Y3331984D01*
X0830611D01*
X0830218Y3331590D01*
Y3330016D01*
X0830611Y3329622D01*
X0831792D01*
X0829431Y3331984D02*
X0828644D01*
X0829037D01*
Y3329622D01*
X0829431Y3330016D01*
X0771398Y3290505D02*
X0771922Y3289981D01*
X0772972D01*
X0773497Y3290505D01*
Y3292604D01*
X0772972Y3293129D01*
X0771922D01*
X0771398Y3292604D01*
X0770348Y3293129D02*
X0769299D01*
X0769823D01*
Y3289981D01*
X0770348Y3290505D01*
X0767724Y3293129D02*
X0766675D01*
X0767200D01*
Y3289981D01*
X0767724Y3290505D01*
X0753681Y3279088D02*
X0754206Y3278563D01*
X0755256D01*
X0755780Y3279088D01*
Y3281187D01*
X0755256Y3281712D01*
X0754206D01*
X0753681Y3281187D01*
X0752632Y3281712D02*
X0751582D01*
X0752107D01*
Y3278563D01*
X0752632Y3279088D01*
X0747909Y3281712D02*
X0750008D01*
X0747909Y3279613D01*
Y3279088D01*
X0748434Y3278563D01*
X0749483D01*
X0750008Y3279088D01*
D17*
X0754429Y3292807D02*
X0751805D01*
X0751280Y3292282D01*
Y3291233D01*
X0751805Y3290708D01*
X0754429D01*
X0751280Y3288084D02*
X0754429D01*
X0752855Y3289658D01*
Y3287560D01*
D66*
X0755650Y3274306D02*
G03*
X0755650Y3274306I-0002008J0000000D01*
G01*
X0738451Y3237692D02*
G03*
X0738451Y3237692I-0000557J0000000D01*
G01*
D81*
X0726674Y3255162D02*
X0729036D01*
Y3256343D01*
X0728642Y3256737D01*
X0727855D01*
X0727461Y3256343D01*
Y3255162D01*
X0726674Y3257524D02*
Y3258311D01*
Y3257918D01*
X0729036D01*
X0728642Y3257524D01*
X0830021Y3248322D02*
X0832383D01*
Y3249896D01*
Y3252258D02*
Y3250684D01*
X0830808Y3252258D01*
X0830415D01*
X0830021Y3251864D01*
Y3251077D01*
X0830415Y3250684D01*
X0817817Y3248322D02*
X0820178D01*
Y3249896D01*
Y3250684D02*
Y3251471D01*
Y3251077D01*
X0817817D01*
X0818210Y3250684D01*
X0776871Y3318893D02*
Y3316531D01*
X0775690D01*
X0775296Y3316925D01*
Y3317712D01*
X0775690Y3318106D01*
X0776871D01*
X0774509Y3316925D02*
X0774116Y3316531D01*
X0773329D01*
X0772935Y3316925D01*
Y3317319D01*
X0773329Y3317712D01*
X0773722D01*
X0773329D01*
X0772935Y3318106D01*
Y3318499D01*
X0773329Y3318893D01*
X0774116D01*
X0774509Y3318499D01*
X0853544Y3251767D02*
X0855118D01*
X0855906Y3250980D01*
X0855118Y3250193D01*
X0853544D01*
X0854725D01*
Y3251767D01*
X0853544Y3249406D02*
Y3248618D01*
Y3249012D01*
X0855906D01*
X0855512Y3249406D01*
X0824114Y3253538D02*
X0823721Y3253931D01*
X0822934D01*
X0822540Y3253538D01*
Y3251964D01*
X0822934Y3251570D01*
X0823721D01*
X0824114Y3251964D01*
X0824902Y3253538D02*
X0825295Y3253931D01*
X0826082D01*
X0826476Y3253538D01*
Y3253144D01*
X0826082Y3252751D01*
X0826476Y3252357D01*
Y3251964D01*
X0826082Y3251570D01*
X0825295D01*
X0824902Y3251964D01*
Y3252357D01*
X0825295Y3252751D01*
X0824902Y3253144D01*
Y3253538D01*
X0825295Y3252751D02*
X0826082D01*
X0832185Y3271550D02*
X0829824D01*
Y3269976D01*
X0831791Y3269189D02*
X0832185Y3268795D01*
Y3268008D01*
X0831791Y3267615D01*
X0831398D01*
X0831004Y3268008D01*
Y3268402D01*
Y3268008D01*
X0830611Y3267615D01*
X0830217D01*
X0829824Y3268008D01*
Y3268795D01*
X0830217Y3269189D01*
D82*
X0847210Y3266826D02*
G03*
X0847210Y3266826I-0001245J0000000D01*
G01*
M02*
