G04*
G04 #@! TF.GenerationSoftware,Altium Limited,Altium Designer,19.0.15 (446)*
G04*
G04 Layer_Color=128*
%FSAX25Y25*%
%MOIN*%
G70*
G01*
G75*
%ADD73R,0.03543X0.08661*%
%ADD74R,0.11811X0.08268*%
%ADD75R,0.06299X0.03150*%
%ADD80C,0.00039*%
D73*
X0754036Y3227456D02*
D03*
X0759036D02*
D03*
X0764036D02*
D03*
X0785965D02*
D03*
X0790965D02*
D03*
X0795965D02*
D03*
X0800965D02*
D03*
X0805965D02*
D03*
X0810965D02*
D03*
X0815965D02*
D03*
X0820965D02*
D03*
Y3282574D02*
D03*
X0815965D02*
D03*
X0810965D02*
D03*
X0805965D02*
D03*
X0800965D02*
D03*
X0795965D02*
D03*
X0790965Y3282613D02*
D03*
X0785965Y3282574D02*
D03*
X0764036D02*
D03*
X0759036D02*
D03*
X0754036D02*
D03*
D74*
X0728643Y3297042D02*
D03*
X0728446Y3232968D02*
D03*
D75*
X0738288Y3242810D02*
D03*
Y3247731D02*
D03*
Y3252653D02*
D03*
Y3257574D02*
D03*
Y3262495D02*
D03*
Y3267416D02*
D03*
Y3272338D02*
D03*
Y3277259D02*
D03*
Y3282180D02*
D03*
Y3287102D02*
D03*
D80*
X0801162Y3321747D02*
D03*
X0801477Y3326747D02*
D03*
X0796162Y3321747D02*
D03*
Y3326747D02*
D03*
X0791162Y3321747D02*
D03*
Y3326747D02*
D03*
M02*
