G04*
G04 #@! TF.GenerationSoftware,Altium Limited,Altium Designer,19.0.15 (446)*
G04*
G04 Layer_Physical_Order=2*
G04 Layer_Color=16711680*
%FSAX25Y25*%
%MOIN*%
G70*
G01*
G75*
%ADD12C,0.01000*%
%ADD13C,0.01968*%
%ADD30R,0.05906X0.05906*%
%ADD64C,0.02362*%
%ADD66C,0.01181*%
%ADD67C,0.00800*%
%ADD68C,0.08661*%
%ADD69C,0.03543*%
%ADD70C,0.05906*%
%ADD71C,0.01968*%
%ADD72C,0.03110*%
%ADD73R,0.03543X0.08661*%
%ADD74R,0.11811X0.08268*%
%ADD75R,0.06299X0.03150*%
G36*
X0781002Y3333426D02*
X0780847Y3333323D01*
X0769429Y3321905D01*
X0769079Y3321381D01*
X0768956Y3320763D01*
Y3279306D01*
X0767344Y3277693D01*
X0766808D01*
Y3282074D01*
X0764036D01*
Y3282574D01*
X0763536D01*
Y3287905D01*
X0763052D01*
X0762642Y3288405D01*
X0762670Y3288547D01*
X0762547Y3289165D01*
X0762197Y3289690D01*
X0761673Y3290039D01*
X0761055Y3290163D01*
X0760437Y3290039D01*
X0760020Y3289761D01*
X0746400D01*
X0745587Y3290575D01*
X0745489Y3291066D01*
X0745139Y3291590D01*
X0744615Y3291940D01*
X0743997Y3292064D01*
X0743379Y3291940D01*
X0742855Y3291590D01*
X0742505Y3291066D01*
X0742381Y3290448D01*
X0742436Y3290176D01*
X0742052Y3289676D01*
X0738788D01*
Y3287601D01*
X0742438D01*
Y3289030D01*
X0742629Y3289156D01*
X0742938Y3289250D01*
X0743379Y3288956D01*
X0743870Y3288858D01*
X0745039Y3287689D01*
X0745039Y3287689D01*
X0745433Y3287426D01*
X0745898Y3287333D01*
X0751265D01*
Y3283074D01*
X0754036D01*
Y3282074D01*
X0751265D01*
Y3277693D01*
X0746556D01*
X0745938Y3277570D01*
X0745414Y3277220D01*
X0745063Y3276696D01*
X0744941Y3276078D01*
X0745063Y3275460D01*
X0745414Y3274936D01*
X0745938Y3274586D01*
X0746556Y3274463D01*
X0768013D01*
X0768631Y3274586D01*
X0769155Y3274936D01*
X0771714Y3277495D01*
X0772064Y3278019D01*
X0772187Y3278637D01*
Y3320094D01*
X0782658Y3330565D01*
X0787934D01*
X0789547Y3328952D01*
Y3328209D01*
X0789132Y3327588D01*
X0788965Y3326747D01*
X0789132Y3325906D01*
X0789608Y3325193D01*
X0790321Y3324717D01*
X0791162Y3324550D01*
X0792003Y3324717D01*
X0792716Y3325193D01*
X0793192Y3325906D01*
X0793360Y3326747D01*
X0793192Y3327588D01*
X0792777Y3328209D01*
Y3328952D01*
X0794587Y3330762D01*
X0796798D01*
X0796981Y3330420D01*
X0797021Y3330262D01*
X0796909Y3329700D01*
X0797012Y3329183D01*
X0796672Y3328843D01*
X0796162Y3328945D01*
X0795321Y3328777D01*
X0794608Y3328301D01*
X0794132Y3327588D01*
X0793965Y3326747D01*
X0794132Y3325906D01*
X0794608Y3325193D01*
X0795321Y3324717D01*
X0796162Y3324550D01*
X0797003Y3324717D01*
X0797716Y3325193D01*
X0798192Y3325906D01*
X0798359Y3326747D01*
X0798299Y3327051D01*
X0798452Y3327172D01*
X0798921Y3326907D01*
X0798900Y3326747D01*
X0798988Y3326080D01*
X0799245Y3325459D01*
X0799655Y3324925D01*
X0800189Y3324516D01*
X0800604Y3324343D01*
X0800553Y3323824D01*
X0800321Y3323777D01*
X0799608Y3323301D01*
X0799132Y3322588D01*
X0798965Y3321747D01*
X0799132Y3320906D01*
X0799608Y3320193D01*
X0800041Y3319905D01*
Y3298026D01*
X0796734Y3294719D01*
X0789375D01*
X0789108Y3295219D01*
X0789190Y3295342D01*
X0789313Y3295960D01*
X0789284Y3296104D01*
X0791883Y3298703D01*
X0792104Y3299034D01*
X0792182Y3299424D01*
Y3319836D01*
X0792716Y3320193D01*
X0793192Y3320906D01*
X0793360Y3321747D01*
X0793192Y3322588D01*
X0792716Y3323301D01*
X0792003Y3323777D01*
X0791162Y3323944D01*
X0790321Y3323777D01*
X0789608Y3323301D01*
X0789132Y3322588D01*
X0788965Y3321747D01*
X0789132Y3320906D01*
X0789608Y3320193D01*
X0790143Y3319836D01*
Y3299847D01*
X0787842Y3297546D01*
X0787698Y3297575D01*
X0787079Y3297452D01*
X0786555Y3297102D01*
X0786205Y3296578D01*
X0786090Y3296483D01*
X0785658Y3296388D01*
X0785568Y3296484D01*
Y3314632D01*
X0787750Y3316814D01*
X0787894Y3316785D01*
X0788513Y3316909D01*
X0789037Y3317258D01*
X0789387Y3317783D01*
X0789510Y3318401D01*
X0789387Y3319019D01*
X0789037Y3319543D01*
X0788513Y3319893D01*
X0787894Y3320016D01*
X0787276Y3319893D01*
X0786752Y3319543D01*
X0786402Y3319019D01*
X0786279Y3318401D01*
X0786308Y3318256D01*
X0783827Y3315775D01*
X0783606Y3315445D01*
X0783528Y3315054D01*
Y3296003D01*
X0783406Y3295921D01*
X0783056Y3295397D01*
X0782933Y3294779D01*
X0783056Y3294161D01*
X0783406Y3293637D01*
X0783853Y3293338D01*
X0784020Y3292797D01*
X0778440Y3287218D01*
X0778197Y3286854D01*
X0778112Y3286425D01*
X0778112Y3286425D01*
Y3277769D01*
X0778112Y3277768D01*
X0778197Y3277339D01*
X0778440Y3276976D01*
X0781100Y3274315D01*
X0780909Y3273853D01*
X0745330D01*
X0742038Y3277145D01*
X0742038Y3279364D01*
X0742438Y3279605D01*
X0742438Y3279675D01*
X0742438D01*
Y3281680D01*
X0734139D01*
Y3279675D01*
X0734139Y3279675D01*
Y3279605D01*
X0734539Y3279364D01*
X0734539Y3279105D01*
Y3275084D01*
X0740540D01*
X0740588Y3275013D01*
X0740321Y3274512D01*
X0734539D01*
Y3270163D01*
X0739897D01*
X0739950Y3270091D01*
X0739699Y3269591D01*
X0734539D01*
Y3265242D01*
X0742038D01*
Y3266793D01*
X0794734D01*
X0795151Y3266515D01*
X0795769Y3266392D01*
X0796387Y3266515D01*
X0796522Y3266605D01*
X0796625Y3266604D01*
X0797151Y3266424D01*
X0797311Y3266185D01*
Y3265754D01*
X0795266Y3263709D01*
X0742038D01*
Y3264670D01*
X0734539D01*
Y3260321D01*
X0742038D01*
Y3261282D01*
X0795014D01*
X0795206Y3260820D01*
X0777194Y3242807D01*
X0776931Y3242413D01*
X0776838Y3241949D01*
X0776838Y3241949D01*
Y3239908D01*
X0776560Y3239491D01*
X0776437Y3238873D01*
X0776560Y3238255D01*
X0776910Y3237731D01*
X0777434Y3237381D01*
X0778052Y3237258D01*
X0778579Y3237363D01*
X0778799Y3237108D01*
X0778874Y3236950D01*
X0773716Y3231792D01*
X0773472Y3231429D01*
X0773429Y3231209D01*
X0771104Y3228885D01*
X0770604Y3229092D01*
Y3235083D01*
X0770883Y3235499D01*
X0771006Y3236118D01*
X0770883Y3236736D01*
X0770533Y3237260D01*
X0770009Y3237610D01*
X0769390Y3237733D01*
X0768772Y3237610D01*
X0768248Y3237260D01*
X0767898Y3236736D01*
X0767775Y3236118D01*
X0767898Y3235499D01*
X0768177Y3235083D01*
Y3221674D01*
X0768177Y3221673D01*
X0768269Y3221209D01*
X0768532Y3220815D01*
X0769571Y3219776D01*
X0769426Y3219213D01*
X0769036Y3218953D01*
X0768686Y3218428D01*
X0768563Y3217810D01*
X0768686Y3217192D01*
X0769036Y3216668D01*
X0769560Y3216318D01*
X0770051Y3216220D01*
X0771879Y3214393D01*
X0771879Y3214393D01*
X0772272Y3214130D01*
X0772737Y3214037D01*
X0791163D01*
X0791430Y3213537D01*
X0791413Y3213512D01*
X0756114D01*
X0746392Y3223234D01*
Y3228440D01*
X0746392Y3228440D01*
X0746299Y3228905D01*
X0746036Y3229298D01*
X0746036Y3229299D01*
X0735161Y3240173D01*
X0735353Y3240635D01*
X0738641D01*
Y3238283D01*
X0738764Y3237664D01*
X0739115Y3237141D01*
X0739639Y3236790D01*
X0740257Y3236667D01*
X0740875Y3236790D01*
X0741399Y3237141D01*
X0741749Y3237664D01*
X0741872Y3238283D01*
Y3240635D01*
X0742038D01*
Y3244985D01*
X0734539D01*
Y3241449D01*
X0734077Y3241258D01*
X0732612Y3242722D01*
Y3255103D01*
X0733870Y3256360D01*
X0734539D01*
Y3255399D01*
X0742038D01*
Y3259749D01*
X0734539D01*
Y3258788D01*
X0733367D01*
X0732902Y3258696D01*
X0732509Y3258432D01*
X0732509Y3258432D01*
X0730540Y3256464D01*
X0730277Y3256070D01*
X0730185Y3255606D01*
X0730185Y3255605D01*
Y3242220D01*
X0730185Y3242220D01*
X0730277Y3241755D01*
X0730540Y3241361D01*
X0733338Y3238564D01*
X0733147Y3238102D01*
X0728946D01*
Y3233468D01*
X0735351D01*
Y3235897D01*
X0735813Y3236088D01*
X0743964Y3227937D01*
Y3222732D01*
X0743964Y3222731D01*
X0744057Y3222267D01*
X0744320Y3221873D01*
X0754753Y3211440D01*
X0755147Y3211177D01*
X0755611Y3211085D01*
X0755611Y3211085D01*
X0792422D01*
X0792422Y3211085D01*
X0792886Y3211177D01*
X0793280Y3211440D01*
X0797076Y3215236D01*
X0797568Y3215334D01*
X0798092Y3215684D01*
X0798442Y3216208D01*
X0798565Y3216826D01*
X0798442Y3217444D01*
X0798641Y3218047D01*
X0798739Y3218112D01*
X0801814Y3221187D01*
X0801814Y3221187D01*
X0802077Y3221581D01*
X0802170Y3222046D01*
Y3222172D01*
X0802523Y3222525D01*
X0803465Y3222525D01*
X0803837Y3222525D01*
X0804751D01*
Y3221542D01*
X0804512Y3221184D01*
X0804389Y3220566D01*
X0804512Y3219948D01*
X0804862Y3219424D01*
X0805387Y3219074D01*
X0806005Y3218951D01*
X0806623Y3219074D01*
X0807147Y3219424D01*
X0807497Y3219948D01*
X0807620Y3220566D01*
X0807497Y3221184D01*
X0807179Y3221660D01*
Y3222172D01*
X0807533Y3222525D01*
X0808465Y3222525D01*
X0808837Y3222525D01*
X0809712D01*
Y3221798D01*
X0809434Y3221381D01*
X0809311Y3220763D01*
X0809434Y3220145D01*
X0809784Y3219621D01*
X0810308Y3219271D01*
X0810926Y3219148D01*
X0811544Y3219271D01*
X0812068Y3219621D01*
X0812418Y3220145D01*
X0812541Y3220763D01*
X0812418Y3221381D01*
X0812140Y3221798D01*
Y3222172D01*
X0812493Y3222525D01*
X0813465Y3222525D01*
X0813837Y3222525D01*
X0818194D01*
Y3222125D01*
X0820465D01*
Y3227456D01*
Y3232787D01*
X0818194D01*
Y3232387D01*
X0813837D01*
X0813465Y3232387D01*
X0813094Y3232387D01*
X0808837D01*
X0808465Y3232387D01*
X0808094Y3232387D01*
X0803837D01*
X0803465Y3232387D01*
X0803094Y3232387D01*
X0798594D01*
Y3232387D01*
X0798337D01*
Y3232387D01*
X0793594D01*
Y3232387D01*
X0793337D01*
Y3232387D01*
X0790144D01*
X0790112Y3232418D01*
X0790048Y3232743D01*
X0789784Y3233138D01*
X0789784Y3233138D01*
X0789410Y3233512D01*
X0789617Y3234011D01*
X0791044D01*
X0791044Y3234011D01*
X0791473Y3234097D01*
X0791837Y3234340D01*
X0797611Y3240114D01*
X0802264D01*
X0802264Y3240114D01*
X0802694Y3240199D01*
X0803058Y3240442D01*
X0805420Y3242805D01*
X0805663Y3243169D01*
X0805748Y3243598D01*
X0805748Y3243598D01*
Y3247731D01*
X0805748Y3247731D01*
X0805663Y3248161D01*
X0805420Y3248524D01*
X0805420Y3248524D01*
X0803648Y3250296D01*
X0803284Y3250539D01*
X0802855Y3250625D01*
X0802855Y3250625D01*
X0802267D01*
X0802140Y3250650D01*
X0802140Y3250650D01*
X0801501D01*
X0801452Y3251150D01*
X0801505Y3251160D01*
X0802029Y3251511D01*
X0802042Y3251531D01*
X0806989D01*
X0806989Y3251531D01*
X0807418Y3251617D01*
X0807782Y3251860D01*
X0808025Y3252224D01*
X0808044Y3252318D01*
X0823285Y3267560D01*
X0823746Y3267313D01*
X0823689Y3267023D01*
X0823689Y3267023D01*
Y3266089D01*
X0823410Y3265673D01*
X0823287Y3265054D01*
X0823410Y3264436D01*
X0823760Y3263912D01*
X0824284Y3263562D01*
X0824902Y3263439D01*
X0825521Y3263562D01*
X0826044Y3263912D01*
X0826395Y3264436D01*
X0826518Y3265054D01*
X0826395Y3265673D01*
X0826116Y3266089D01*
Y3266520D01*
X0829817Y3270221D01*
X0833761D01*
Y3197756D01*
X0732021D01*
X0729723Y3197982D01*
X0727551Y3198641D01*
X0725549Y3199711D01*
X0723795Y3201151D01*
X0722355Y3202905D01*
X0721285Y3204907D01*
X0720626Y3207079D01*
X0720400Y3209378D01*
Y3322305D01*
X0720626Y3324604D01*
X0721285Y3326776D01*
X0722355Y3328777D01*
X0723795Y3330531D01*
X0725549Y3331971D01*
X0727551Y3333041D01*
X0729723Y3333700D01*
X0732021Y3333926D01*
X0780851D01*
X0781002Y3333426D01*
D02*
G37*
G36*
X0866932Y3333700D02*
X0869104Y3333041D01*
X0871106Y3331971D01*
X0872860Y3330531D01*
X0874300Y3328777D01*
X0875370Y3326776D01*
X0876029Y3324604D01*
X0876255Y3322305D01*
Y3270960D01*
X0836524D01*
X0836333Y3271422D01*
X0850208Y3285297D01*
X0855560D01*
X0855977Y3285019D01*
X0856595Y3284896D01*
X0857213Y3285019D01*
X0857737Y3285369D01*
X0858088Y3285893D01*
X0858210Y3286511D01*
X0858088Y3287129D01*
X0857737Y3287653D01*
X0857213Y3288004D01*
X0856595Y3288126D01*
X0855977Y3288004D01*
X0855560Y3287725D01*
X0849706D01*
X0849706Y3287725D01*
X0849241Y3287632D01*
X0848847Y3287370D01*
X0848847Y3287370D01*
X0839457Y3277979D01*
X0839000Y3278220D01*
X0838995Y3278225D01*
Y3280823D01*
X0838995Y3280823D01*
X0838910Y3281252D01*
X0838667Y3281616D01*
X0836984Y3283299D01*
X0836620Y3283543D01*
X0836191Y3283628D01*
X0836191Y3283628D01*
X0835946D01*
X0835887Y3283716D01*
X0835363Y3284066D01*
X0834745Y3284189D01*
X0834127Y3284066D01*
X0833603Y3283716D01*
X0833253Y3283192D01*
X0833130Y3282574D01*
X0833253Y3281956D01*
X0833603Y3281432D01*
X0833845Y3281270D01*
X0834111Y3281034D01*
X0833972Y3280629D01*
X0833843Y3280436D01*
X0833720Y3279818D01*
X0833822Y3279306D01*
X0832971Y3278454D01*
X0832409Y3278600D01*
X0832147Y3278992D01*
X0831623Y3279342D01*
X0831005Y3279465D01*
X0830387Y3279342D01*
X0829862Y3278992D01*
X0829717Y3278774D01*
X0824706D01*
X0824277Y3278689D01*
X0824237Y3278662D01*
X0823737Y3278930D01*
Y3282074D01*
X0820965D01*
Y3282574D01*
X0820465D01*
Y3287905D01*
X0816465D01*
Y3282574D01*
Y3277243D01*
X0818429D01*
X0818813Y3276743D01*
X0818759Y3276471D01*
X0818882Y3275853D01*
X0819232Y3275330D01*
X0819625Y3275067D01*
X0819770Y3274506D01*
X0817649Y3272385D01*
X0812331D01*
X0811902Y3272299D01*
X0811814Y3272240D01*
X0811713Y3272260D01*
X0811095Y3272137D01*
X0810571Y3271787D01*
X0810221Y3271263D01*
X0810098Y3270645D01*
X0810103Y3270621D01*
X0808639Y3269157D01*
X0808396Y3268793D01*
X0808311Y3268364D01*
X0808311Y3268364D01*
Y3266873D01*
X0806013Y3264576D01*
X0805551Y3264767D01*
Y3271550D01*
X0805551Y3271550D01*
X0805466Y3271980D01*
X0805223Y3272343D01*
X0805223Y3272343D01*
X0802385Y3275182D01*
X0802021Y3275425D01*
X0801591Y3275510D01*
X0801591Y3275510D01*
X0783077D01*
X0780355Y3278233D01*
Y3285960D01*
X0784944Y3290550D01*
X0785506Y3290405D01*
X0785768Y3290012D01*
X0786292Y3289662D01*
X0786910Y3289539D01*
X0787464Y3289649D01*
X0787706Y3289499D01*
X0787908Y3289314D01*
X0787854Y3289045D01*
X0787977Y3288427D01*
X0787992Y3288405D01*
X0787724Y3287905D01*
X0786465D01*
Y3282574D01*
Y3277243D01*
X0788737D01*
Y3277283D01*
X0790465D01*
Y3282613D01*
X0791465D01*
Y3277283D01*
X0793737D01*
Y3277643D01*
X0798337D01*
X0798337Y3277643D01*
X0798594D01*
Y3277643D01*
X0798837Y3277643D01*
X0803337D01*
Y3277643D01*
X0803594D01*
Y3277643D01*
X0805255D01*
X0805600Y3277329D01*
X0805686Y3276900D01*
X0805784Y3276753D01*
X0805767Y3276669D01*
X0805890Y3276051D01*
X0806240Y3275526D01*
X0806765Y3275176D01*
X0807383Y3275053D01*
X0808001Y3275176D01*
X0808525Y3275526D01*
X0808875Y3276051D01*
X0808998Y3276669D01*
X0808904Y3277143D01*
X0809192Y3277643D01*
X0809752D01*
Y3276629D01*
X0809752Y3276629D01*
X0809844Y3276165D01*
X0810107Y3275771D01*
X0810123Y3275755D01*
X0810221Y3275263D01*
X0810571Y3274739D01*
X0811095Y3274389D01*
X0811713Y3274266D01*
X0812331Y3274389D01*
X0812856Y3274739D01*
X0813206Y3275263D01*
X0813329Y3275881D01*
X0813206Y3276499D01*
X0812985Y3276830D01*
X0813310Y3277243D01*
X0815465D01*
Y3282574D01*
Y3287905D01*
X0813194D01*
Y3287505D01*
X0808594D01*
X0808594Y3287505D01*
X0808337D01*
Y3287505D01*
X0808094Y3287505D01*
X0803594D01*
Y3287505D01*
X0803337D01*
Y3287505D01*
X0800766D01*
X0800730Y3287687D01*
X0800487Y3288050D01*
X0800487Y3288050D01*
X0799491Y3289046D01*
X0799496Y3289070D01*
X0799404Y3289533D01*
X0799698Y3290033D01*
X0801790D01*
X0801790Y3290033D01*
X0802219Y3290118D01*
X0802583Y3290361D01*
X0807650Y3295429D01*
X0811542D01*
X0811555Y3295408D01*
X0812080Y3295058D01*
X0812698Y3294935D01*
X0813316Y3295058D01*
X0813840Y3295408D01*
X0814190Y3295932D01*
X0814313Y3296550D01*
X0814190Y3297169D01*
X0813840Y3297692D01*
X0813316Y3298043D01*
X0812698Y3298166D01*
X0812080Y3298043D01*
X0811555Y3297692D01*
X0811542Y3297672D01*
X0807186D01*
X0807186Y3297672D01*
X0806757Y3297586D01*
X0806393Y3297343D01*
X0806393Y3297343D01*
X0801325Y3292276D01*
X0798100D01*
X0797948Y3292776D01*
X0797991Y3292805D01*
X0801955Y3296769D01*
X0801955Y3296769D01*
X0802198Y3297132D01*
X0802284Y3297562D01*
X0802284Y3297562D01*
Y3319905D01*
X0802716Y3320193D01*
X0803092Y3320757D01*
X0803192Y3320906D01*
X0803649Y3320758D01*
X0803628Y3320601D01*
X0803581Y3320247D01*
X0803669Y3319579D01*
X0803927Y3318957D01*
X0804337Y3318422D01*
X0804872Y3318012D01*
X0805494Y3317754D01*
X0806162Y3317667D01*
X0806830Y3317754D01*
X0807452Y3318012D01*
X0807987Y3318422D01*
X0808397Y3318957D01*
X0808655Y3319579D01*
X0808743Y3320247D01*
X0808655Y3320915D01*
X0808397Y3321538D01*
X0807987Y3322072D01*
X0807452Y3322482D01*
X0806830Y3322740D01*
X0806162Y3322828D01*
X0805494Y3322740D01*
X0804872Y3322482D01*
X0804337Y3322072D01*
X0803927Y3321538D01*
X0803802Y3321234D01*
X0803736Y3321075D01*
X0803255Y3321221D01*
X0803286Y3321377D01*
X0803360Y3321747D01*
X0803192Y3322588D01*
X0802716Y3323301D01*
X0802466Y3323468D01*
X0802432Y3323621D01*
X0802529Y3324027D01*
X0802581Y3324035D01*
X0802669Y3323977D01*
X0803134Y3323884D01*
X0803134Y3323884D01*
X0807467D01*
X0807467Y3323884D01*
X0807931Y3323977D01*
X0808325Y3324240D01*
X0808857Y3324771D01*
X0816339D01*
X0816803Y3324864D01*
X0817197Y3325127D01*
X0817460Y3325521D01*
X0817553Y3325985D01*
X0817460Y3326450D01*
X0817197Y3326844D01*
X0816803Y3327107D01*
X0816339Y3327199D01*
X0808969D01*
X0808671Y3327699D01*
X0808743Y3328247D01*
X0808655Y3328915D01*
X0808397Y3329538D01*
X0807987Y3330072D01*
X0807740Y3330262D01*
X0807909Y3330762D01*
X0835847D01*
X0840610Y3325999D01*
Y3320604D01*
X0840110Y3320337D01*
X0839890Y3320484D01*
X0839272Y3320607D01*
X0839248Y3320602D01*
X0837900Y3321950D01*
X0837536Y3322193D01*
X0837107Y3322278D01*
X0837107Y3322278D01*
X0814050D01*
X0814037Y3322299D01*
X0813513Y3322649D01*
X0812894Y3322772D01*
X0812276Y3322649D01*
X0811752Y3322299D01*
X0811402Y3321775D01*
X0811279Y3321157D01*
X0811402Y3320539D01*
X0811752Y3320015D01*
X0812276Y3319664D01*
X0812894Y3319542D01*
X0813513Y3319664D01*
X0814037Y3320015D01*
X0814050Y3320035D01*
X0836642D01*
X0837662Y3319016D01*
X0837657Y3318991D01*
X0837780Y3318373D01*
X0837927Y3318154D01*
X0837659Y3317654D01*
X0834823D01*
X0833722Y3318756D01*
X0833198Y3319106D01*
X0832580Y3319229D01*
X0831961Y3319106D01*
X0831437Y3318756D01*
X0831087Y3318232D01*
X0830964Y3317613D01*
X0831087Y3316995D01*
X0831437Y3316471D01*
X0833012Y3314896D01*
X0833536Y3314546D01*
X0834154Y3314423D01*
X0836476D01*
Y3304859D01*
X0829824D01*
X0829205Y3304736D01*
X0828681Y3304385D01*
X0822185Y3297889D01*
X0821835Y3297366D01*
X0821712Y3296747D01*
Y3292613D01*
X0821835Y3291995D01*
X0822185Y3291471D01*
X0822709Y3291121D01*
X0823328Y3290998D01*
X0823946Y3291121D01*
X0824470Y3291471D01*
X0824820Y3291995D01*
X0824943Y3292613D01*
Y3296078D01*
X0830493Y3301628D01*
X0838091D01*
X0838709Y3301751D01*
X0839233Y3302101D01*
X0839584Y3302625D01*
X0839707Y3303243D01*
Y3314423D01*
X0840454D01*
X0841072Y3314546D01*
X0841596Y3314896D01*
X0843367Y3316668D01*
X0843717Y3317192D01*
X0843841Y3317810D01*
Y3326669D01*
X0843717Y3327287D01*
X0843367Y3327811D01*
X0837752Y3333426D01*
X0837847Y3333790D01*
X0837942Y3333926D01*
X0864634D01*
X0866932Y3333700D01*
D02*
G37*
G36*
X0794275Y3269246D02*
X0794256Y3269221D01*
X0742489D01*
X0742485Y3269246D01*
X0742906Y3269746D01*
X0794024D01*
X0794275Y3269246D01*
D02*
G37*
G36*
X0823492Y3271504D02*
X0823410Y3271381D01*
X0823287Y3270763D01*
X0823292Y3270739D01*
X0806328Y3253774D01*
X0802092D01*
X0801973Y3253918D01*
X0801933Y3254324D01*
X0811826Y3264216D01*
X0811826Y3264216D01*
X0812033Y3264526D01*
X0812135Y3264546D01*
X0812659Y3264896D01*
X0812673Y3264917D01*
X0815152D01*
X0815152Y3264917D01*
X0815581Y3265002D01*
X0815945Y3265245D01*
X0822703Y3272004D01*
X0823225D01*
X0823492Y3271504D01*
D02*
G37*
G36*
X0794481Y3253743D02*
Y3249672D01*
X0794481Y3249672D01*
X0794566Y3249242D01*
X0794809Y3248878D01*
X0798152Y3245535D01*
X0798152Y3245535D01*
X0798357Y3245399D01*
X0798874Y3244882D01*
X0798908Y3244710D01*
X0798613Y3244210D01*
X0795855D01*
X0795855Y3244210D01*
X0795425Y3244124D01*
X0795061Y3243881D01*
X0795061Y3243881D01*
X0790583Y3239403D01*
X0790041Y3239568D01*
X0789978Y3239885D01*
X0789627Y3240409D01*
X0789607Y3240423D01*
Y3249523D01*
X0794019Y3253935D01*
X0794481Y3253743D01*
D02*
G37*
G36*
X0787364Y3248891D02*
Y3240423D01*
X0787343Y3240409D01*
X0786993Y3239885D01*
X0786870Y3239267D01*
X0786993Y3238649D01*
X0787075Y3238526D01*
X0786807Y3238026D01*
X0780414D01*
X0779985Y3237941D01*
X0779896Y3237881D01*
X0779535Y3238242D01*
X0779544Y3238255D01*
X0779667Y3238873D01*
X0779544Y3239491D01*
X0779266Y3239908D01*
Y3241446D01*
X0786902Y3249082D01*
X0787364Y3248891D01*
D02*
G37*
G36*
X0783594Y3222525D02*
X0788337D01*
X0788337Y3222525D01*
X0788594D01*
Y3222525D01*
X0788837Y3222525D01*
X0793337D01*
Y3222525D01*
X0793594D01*
Y3222525D01*
X0794218D01*
X0794425Y3222025D01*
X0790824Y3218424D01*
X0778099D01*
X0777804Y3218924D01*
X0777896Y3219385D01*
X0777873Y3219500D01*
X0778216Y3219968D01*
X0778670Y3220058D01*
X0779194Y3220408D01*
X0779544Y3220932D01*
X0779667Y3221550D01*
X0779544Y3222168D01*
X0779272Y3222577D01*
X0779355Y3223140D01*
X0779391Y3223164D01*
X0779741Y3223688D01*
X0779839Y3224180D01*
X0781901Y3226242D01*
X0783594D01*
Y3222525D01*
D02*
G37*
%LPC*%
G36*
X0786162Y3326828D02*
X0785494Y3326740D01*
X0784872Y3326482D01*
X0784337Y3326072D01*
X0783927Y3325538D01*
X0783669Y3324915D01*
X0783581Y3324247D01*
X0783669Y3323579D01*
X0783927Y3322957D01*
X0784337Y3322422D01*
X0784872Y3322012D01*
X0785494Y3321754D01*
X0786162Y3321667D01*
X0786830Y3321754D01*
X0787453Y3322012D01*
X0787987Y3322422D01*
X0788397Y3322957D01*
X0788655Y3323579D01*
X0788743Y3324247D01*
X0788655Y3324915D01*
X0788397Y3325538D01*
X0787987Y3326072D01*
X0787453Y3326482D01*
X0786830Y3326740D01*
X0786162Y3326828D01*
D02*
G37*
G36*
X0731989Y3327311D02*
X0730702Y3327142D01*
X0729502Y3326645D01*
X0728472Y3325854D01*
X0727682Y3324825D01*
X0727185Y3323625D01*
X0727016Y3322338D01*
X0727185Y3321051D01*
X0727682Y3319851D01*
X0728472Y3318821D01*
X0729502Y3318031D01*
X0730702Y3317534D01*
X0731989Y3317365D01*
X0733276Y3317534D01*
X0734476Y3318031D01*
X0735506Y3318821D01*
X0736296Y3319851D01*
X0736793Y3321051D01*
X0736962Y3322338D01*
X0736793Y3323625D01*
X0736296Y3324825D01*
X0735506Y3325854D01*
X0734476Y3326645D01*
X0733276Y3327142D01*
X0731989Y3327311D01*
D02*
G37*
G36*
X0796162Y3323944D02*
X0795321Y3323777D01*
X0794608Y3323301D01*
X0794132Y3322588D01*
X0793965Y3321747D01*
X0794132Y3320906D01*
X0794608Y3320193D01*
X0795321Y3319717D01*
X0795536Y3319674D01*
Y3317145D01*
X0795414Y3317063D01*
X0795063Y3316539D01*
X0794941Y3315921D01*
X0795063Y3315302D01*
X0795414Y3314778D01*
X0795938Y3314428D01*
X0796556Y3314305D01*
X0797174Y3314428D01*
X0797698Y3314778D01*
X0798048Y3315302D01*
X0798171Y3315921D01*
X0798048Y3316539D01*
X0797698Y3317063D01*
X0797576Y3317145D01*
Y3320100D01*
X0797716Y3320193D01*
X0798192Y3320906D01*
X0798359Y3321747D01*
X0798192Y3322588D01*
X0797716Y3323301D01*
X0797003Y3323777D01*
X0796162Y3323944D01*
D02*
G37*
G36*
X0735548Y3302176D02*
X0729143D01*
Y3297543D01*
X0735548D01*
Y3302176D01*
D02*
G37*
G36*
X0728142D02*
X0721737D01*
Y3297543D01*
X0728142D01*
Y3302176D01*
D02*
G37*
G36*
X0735548Y3296542D02*
X0729143D01*
Y3291909D01*
X0735548D01*
Y3296542D01*
D02*
G37*
G36*
X0728142D02*
X0721737D01*
Y3291909D01*
X0728142D01*
Y3296542D01*
D02*
G37*
G36*
X0737788Y3289676D02*
X0734139D01*
Y3287601D01*
X0737788D01*
Y3289676D01*
D02*
G37*
G36*
X0766808Y3287905D02*
X0764536D01*
Y3283074D01*
X0766808D01*
Y3287905D01*
D02*
G37*
G36*
X0742438Y3286602D02*
X0734139D01*
Y3284527D01*
Y3282680D01*
X0742438D01*
Y3284527D01*
Y3286602D01*
D02*
G37*
G36*
X0742038Y3254827D02*
X0734539D01*
Y3250478D01*
X0742038D01*
Y3254827D01*
D02*
G37*
G36*
Y3249906D02*
X0734539D01*
Y3245557D01*
X0742038D01*
Y3249906D01*
D02*
G37*
G36*
X0727946Y3238102D02*
X0721540D01*
Y3233468D01*
X0727946D01*
Y3238102D01*
D02*
G37*
G36*
X0763536Y3232787D02*
X0761265D01*
Y3232387D01*
X0756808D01*
Y3232787D01*
X0754536D01*
Y3227456D01*
Y3222125D01*
X0756808D01*
Y3222525D01*
X0761265D01*
Y3222125D01*
X0763536D01*
Y3227456D01*
X0764036D01*
D01*
X0763536D01*
Y3232787D01*
D02*
G37*
G36*
X0823737D02*
X0821465D01*
Y3227956D01*
X0823737D01*
Y3232787D01*
D02*
G37*
G36*
X0766808D02*
X0764536D01*
Y3227956D01*
X0766808D01*
Y3232787D01*
D02*
G37*
G36*
X0753536D02*
X0751265D01*
Y3227956D01*
X0753536D01*
Y3232787D01*
D02*
G37*
G36*
X0735351Y3232468D02*
X0728946D01*
Y3227834D01*
X0735351D01*
Y3232468D01*
D02*
G37*
G36*
X0727946D02*
X0721540D01*
Y3227834D01*
X0727946D01*
Y3232468D01*
D02*
G37*
G36*
X0823737Y3226956D02*
X0821465D01*
Y3222125D01*
X0823737D01*
Y3226956D01*
D02*
G37*
G36*
X0766808Y3226956D02*
X0764536D01*
Y3222125D01*
X0766808D01*
Y3226956D01*
D02*
G37*
G36*
X0753536D02*
X0751265D01*
Y3222125D01*
X0753536D01*
Y3226956D01*
D02*
G37*
G36*
X0731989Y3214319D02*
X0730702Y3214149D01*
X0729502Y3213652D01*
X0728472Y3212862D01*
X0727682Y3211832D01*
X0727185Y3210633D01*
X0727016Y3209346D01*
X0727185Y3208059D01*
X0727682Y3206859D01*
X0728472Y3205829D01*
X0729502Y3205039D01*
X0730702Y3204542D01*
X0731989Y3204372D01*
X0733276Y3204542D01*
X0734476Y3205039D01*
X0735506Y3205829D01*
X0736296Y3206859D01*
X0736793Y3208059D01*
X0736962Y3209346D01*
X0736793Y3210633D01*
X0736296Y3211832D01*
X0735506Y3212862D01*
X0734476Y3213652D01*
X0733276Y3214149D01*
X0731989Y3214319D01*
D02*
G37*
G36*
X0790835Y3206968D02*
Y3203546D01*
X0794256D01*
X0794186Y3204078D01*
X0793788Y3205040D01*
X0793154Y3205865D01*
X0792329Y3206499D01*
X0791367Y3206897D01*
X0790835Y3206968D01*
D02*
G37*
G36*
X0789835Y3206968D02*
X0789303Y3206897D01*
X0788342Y3206499D01*
X0787516Y3205865D01*
X0786883Y3205040D01*
X0786484Y3204078D01*
X0786414Y3203546D01*
X0789835D01*
Y3206968D01*
D02*
G37*
G36*
X0823888Y3206599D02*
X0816783D01*
Y3199494D01*
X0823888D01*
Y3206599D01*
D02*
G37*
G36*
X0810335Y3206630D02*
X0809408Y3206508D01*
X0808544Y3206150D01*
X0807802Y3205581D01*
X0807232Y3204838D01*
X0806874Y3203974D01*
X0806752Y3203046D01*
X0806874Y3202119D01*
X0807232Y3201255D01*
X0807802Y3200513D01*
X0808544Y3199943D01*
X0809408Y3199585D01*
X0810335Y3199463D01*
X0811263Y3199585D01*
X0812127Y3199943D01*
X0812869Y3200513D01*
X0813439Y3201255D01*
X0813797Y3202119D01*
X0813919Y3203046D01*
X0813797Y3203974D01*
X0813439Y3204838D01*
X0812869Y3205581D01*
X0812127Y3206150D01*
X0811263Y3206508D01*
X0810335Y3206630D01*
D02*
G37*
G36*
X0800335D02*
X0799408Y3206508D01*
X0798544Y3206150D01*
X0797802Y3205581D01*
X0797232Y3204838D01*
X0796874Y3203974D01*
X0796752Y3203046D01*
X0796874Y3202119D01*
X0797232Y3201255D01*
X0797802Y3200513D01*
X0798544Y3199943D01*
X0799408Y3199585D01*
X0800335Y3199463D01*
X0801263Y3199585D01*
X0802127Y3199943D01*
X0802869Y3200513D01*
X0803439Y3201255D01*
X0803797Y3202119D01*
X0803919Y3203046D01*
X0803797Y3203974D01*
X0803439Y3204838D01*
X0802869Y3205581D01*
X0802127Y3206150D01*
X0801263Y3206508D01*
X0800335Y3206630D01*
D02*
G37*
G36*
X0789835Y3202546D02*
X0786414D01*
X0786484Y3202015D01*
X0786883Y3201053D01*
X0787516Y3200227D01*
X0788342Y3199594D01*
X0789303Y3199195D01*
X0789835Y3199125D01*
Y3202546D01*
D02*
G37*
G36*
X0794256D02*
X0790835D01*
Y3199125D01*
X0791367Y3199195D01*
X0792329Y3199594D01*
X0793154Y3200227D01*
X0793788Y3201053D01*
X0794186Y3202015D01*
X0794256Y3202546D01*
D02*
G37*
G36*
X0864666Y3327311D02*
X0863379Y3327142D01*
X0862179Y3326645D01*
X0861149Y3325854D01*
X0860359Y3324825D01*
X0859862Y3323625D01*
X0859693Y3322338D01*
X0859862Y3321051D01*
X0860359Y3319851D01*
X0861149Y3318821D01*
X0862179Y3318031D01*
X0863379Y3317534D01*
X0864666Y3317365D01*
X0865953Y3317534D01*
X0867153Y3318031D01*
X0868183Y3318821D01*
X0868973Y3319851D01*
X0869470Y3321051D01*
X0869639Y3322338D01*
X0869470Y3323625D01*
X0868973Y3324825D01*
X0868183Y3325854D01*
X0867153Y3326645D01*
X0865953Y3327142D01*
X0864666Y3327311D01*
D02*
G37*
G36*
X0823737Y3287905D02*
X0821465D01*
Y3283074D01*
X0823737D01*
Y3287905D01*
D02*
G37*
G36*
X0785465D02*
X0783194D01*
Y3283074D01*
X0785465D01*
Y3287905D01*
D02*
G37*
G36*
Y3282074D02*
X0783194D01*
Y3277243D01*
X0785465D01*
Y3282074D01*
D02*
G37*
%LPD*%
D12*
X0809432Y3268364D02*
X0811713Y3270645D01*
X0809432Y3266409D02*
Y3268364D01*
X0812331Y3271263D02*
X0818114D01*
X0821576Y3274725D01*
X0811713Y3270645D02*
X0812331Y3271263D01*
X0811516Y3266039D02*
X0815152D01*
X0822239Y3273125D02*
X0832776D01*
X0815152Y3266039D02*
X0822239Y3273125D01*
X0821576Y3274725D02*
X0830828D01*
X0820375Y3276471D02*
X0823524D01*
X0824706Y3277653D01*
X0830828Y3274725D02*
X0835335Y3279233D01*
X0832776Y3273125D02*
X0837874Y3278223D01*
X0801591Y3274389D02*
X0804430Y3271550D01*
X0782613Y3274389D02*
X0801591D01*
X0779233Y3277768D02*
X0782613Y3274389D01*
X0800493Y3272731D02*
X0802480Y3270744D01*
X0744865Y3272731D02*
X0800493D01*
X0740338Y3277259D02*
X0744865Y3272731D01*
X0803027Y3244260D02*
Y3247069D01*
X0801855Y3243088D02*
X0803027Y3244260D01*
X0802192Y3247903D02*
X0803027Y3247069D01*
X0801502Y3247903D02*
X0802192D01*
X0801477Y3247928D02*
X0801502Y3247903D01*
X0799608Y3247928D02*
X0801477D01*
X0802855Y3249503D02*
X0804627Y3247731D01*
Y3243598D02*
Y3247731D01*
X0802264Y3241235D02*
X0804627Y3243598D01*
X0795855Y3243088D02*
X0801855D01*
X0797146Y3241235D02*
X0802264D01*
X0791044Y3235133D02*
X0797146Y3241235D01*
X0804430Y3263669D02*
Y3271550D01*
X0795602Y3254842D02*
X0804430Y3263669D01*
X0802480Y3263982D02*
Y3270744D01*
X0837874Y3278223D02*
Y3280823D01*
X0835335Y3279233D02*
Y3279818D01*
X0797881Y3289045D02*
X0797906D01*
X0786406Y3293598D02*
X0797198D01*
X0738288Y3277259D02*
X0740338D01*
X0795965Y3282574D02*
Y3285269D01*
X0792190Y3289045D02*
X0795965Y3285269D01*
X0789469Y3289045D02*
X0792190D01*
X0786910Y3291154D02*
X0801790D01*
X0779233Y3277768D02*
Y3286425D01*
X0786406Y3293598D01*
X0797198D02*
X0801162Y3297562D01*
X0773212Y3223443D02*
Y3227143D01*
X0775104Y3221550D02*
X0778052D01*
X0771612Y3222282D02*
X0774509Y3219385D01*
X0776280D01*
X0773212Y3223443D02*
X0775104Y3221550D01*
X0771612Y3222282D02*
Y3227806D01*
X0774509Y3230703D01*
Y3230999D01*
X0780414Y3236905D01*
X0789671D01*
X0800761Y3254737D02*
X0811033Y3265009D01*
Y3265293D01*
X0811516Y3265776D01*
Y3266039D01*
X0788485Y3239267D02*
Y3249987D01*
X0800023Y3254737D02*
X0800761D01*
X0798802Y3253516D02*
X0800023Y3254737D01*
X0798802Y3250997D02*
Y3253516D01*
X0797202Y3254179D02*
X0809432Y3266409D01*
X0797202Y3250334D02*
Y3254179D01*
X0795602Y3249672D02*
Y3254842D01*
Y3249672D02*
X0798945Y3246328D01*
X0799013D01*
X0800169Y3245173D01*
X0800431D01*
X0788485Y3249987D02*
X0802480Y3263982D01*
X0797202Y3250334D02*
X0799608Y3247928D01*
X0798802Y3250997D02*
X0800271Y3249529D01*
X0802140D01*
X0802165Y3249503D01*
X0802855D01*
X0781202Y3235133D02*
X0791044D01*
X0773212Y3227143D02*
X0781202Y3235133D01*
X0789671Y3236905D02*
X0795855Y3243088D01*
X0800887Y3252653D02*
X0806989D01*
X0806891Y3252751D02*
X0824902Y3270763D01*
X0806891Y3252751D02*
X0806989Y3252653D01*
X0801790Y3291154D02*
X0807186Y3296550D01*
X0812698D01*
X0806722Y3277329D02*
X0807383Y3276669D01*
X0806722Y3277329D02*
Y3281817D01*
X0805965Y3282574D02*
X0806722Y3281817D01*
X0801162Y3297562D02*
Y3321747D01*
X0797881Y3289045D02*
Y3289070D01*
X0797906Y3289045D02*
X0799694Y3287257D01*
Y3283846D02*
Y3287257D01*
Y3283846D02*
X0800965Y3282574D01*
X0824706Y3277653D02*
X0830808D01*
X0831005Y3277850D01*
X0836191Y3282506D02*
X0837874Y3280823D01*
X0834813Y3282506D02*
X0836191D01*
X0834745Y3282574D02*
X0834813Y3282506D01*
X0837107Y3321157D02*
X0839272Y3318991D01*
X0812894Y3321157D02*
X0837107D01*
X0798524Y3329110D02*
Y3329700D01*
X0796162Y3326747D02*
X0798524Y3329110D01*
D13*
X0836516Y3332377D02*
X0842225Y3326669D01*
Y3317810D02*
Y3326669D01*
X0840454Y3316039D02*
X0842225Y3317810D01*
X0838091Y3316039D02*
X0840454D01*
X0793918Y3332377D02*
X0836516D01*
X0791162Y3329621D02*
X0793918Y3332377D01*
X0788603Y3332180D02*
X0791162Y3329621D01*
X0823328Y3292613D02*
Y3296747D01*
X0829824Y3303243D01*
X0838091D01*
X0834154Y3316039D02*
X0838091D01*
Y3303243D02*
Y3316039D01*
X0832580Y3317613D02*
X0834154Y3316039D01*
X0791162Y3326747D02*
Y3329621D01*
X0781989Y3332180D02*
X0788603D01*
X0770572Y3320763D02*
X0781989Y3332180D01*
X0770572Y3278637D02*
Y3320763D01*
X0768013Y3276078D02*
X0770572Y3278637D01*
X0746556Y3276078D02*
X0768013D01*
X0740257Y3238283D02*
Y3242220D01*
X0739666Y3242810D02*
X0740257Y3242220D01*
X0738288Y3242810D02*
X0739666D01*
D30*
X0820335Y3203046D02*
D03*
D64*
X0754036Y3282574D02*
X0759036D01*
D66*
X0790926D02*
X0790965Y3282613D01*
X0785965Y3282574D02*
X0790926D01*
X0808354Y3325985D02*
X0816339D01*
X0807467Y3325098D02*
X0808354Y3325985D01*
X0803134Y3325098D02*
X0807467D01*
X0801484Y3326747D02*
X0803134Y3325098D01*
X0801477Y3326747D02*
X0801484D01*
X0773853Y3217210D02*
X0791327D01*
X0769390Y3221673D02*
X0773853Y3217210D01*
X0769390Y3221673D02*
Y3236118D01*
X0738288Y3272338D02*
X0738879Y3271747D01*
X0740453D01*
X0741241Y3270960D01*
X0798721D01*
X0849706Y3286511D02*
X0856595D01*
X0834629Y3271435D02*
X0849706Y3286511D01*
X0829314Y3271435D02*
X0834629D01*
X0824902Y3267023D02*
X0829314Y3271435D01*
X0824902Y3265054D02*
Y3267023D01*
X0775296Y3224306D02*
Y3224429D01*
X0778249Y3224306D02*
X0781398Y3227456D01*
X0775296Y3224429D02*
X0779574Y3228707D01*
Y3228848D01*
X0791327Y3217210D02*
X0795965Y3221849D01*
X0772737Y3215251D02*
X0792299D01*
X0770178Y3217810D02*
X0772737Y3215251D01*
X0792299D02*
X0796049Y3219001D01*
X0792422Y3212299D02*
X0796950Y3216826D01*
X0797881Y3218970D02*
X0800956Y3222046D01*
X0797850Y3219001D02*
X0797881Y3218970D01*
X0796049Y3219001D02*
X0797850D01*
X0778052Y3238873D02*
Y3241949D01*
X0783701Y3232976D02*
X0787378D01*
X0779574Y3228848D02*
X0783701Y3232976D01*
X0755611Y3212299D02*
X0792422D01*
X0745178Y3222731D02*
X0755611Y3212299D01*
X0800699Y3264596D02*
Y3268982D01*
X0778052Y3241949D02*
X0800699Y3264596D01*
X0798721Y3270960D02*
X0800699Y3268982D01*
X0798525Y3265252D02*
Y3267220D01*
X0795768Y3262495D02*
X0798525Y3265252D01*
X0738288Y3267416D02*
X0738879Y3268007D01*
X0795769D01*
X0810965Y3276629D02*
X0811713Y3275881D01*
X0810965Y3276629D02*
Y3282574D01*
X0810926Y3227417D02*
X0810965Y3227456D01*
X0810926Y3220763D02*
Y3227417D01*
X0805965Y3220605D02*
X0806005Y3220566D01*
X0805965Y3220605D02*
Y3227456D01*
X0795965Y3221849D02*
Y3227456D01*
X0800956Y3222046D02*
Y3227446D01*
X0800965Y3227456D01*
X0787378Y3232976D02*
X0788230D01*
X0788926Y3232279D01*
Y3231888D02*
Y3232279D01*
Y3231888D02*
X0789618Y3231196D01*
X0789784D01*
X0790965Y3230015D01*
Y3227456D02*
Y3230015D01*
X0781398Y3227456D02*
X0785965D01*
X0738288Y3262495D02*
X0795768D01*
X0745178Y3222731D02*
Y3228440D01*
X0731398Y3242220D02*
X0745178Y3228440D01*
X0731398Y3242220D02*
Y3255606D01*
X0733367Y3257574D01*
X0738288D01*
X0745898Y3288547D02*
X0761055D01*
X0743997Y3290448D02*
X0745898Y3288547D01*
D67*
X0791162Y3299424D02*
Y3321747D01*
X0787698Y3295960D02*
X0791162Y3299424D01*
X0784548Y3315054D02*
X0787894Y3318401D01*
X0784548Y3294779D02*
Y3315054D01*
X0796556Y3315921D02*
Y3321354D01*
X0796162Y3321747D02*
X0796556Y3321354D01*
D68*
X0864666Y3322338D02*
D03*
Y3209346D02*
D03*
X0731989Y3322338D02*
D03*
Y3209346D02*
D03*
D69*
X0806162Y3328247D02*
D03*
Y3320247D02*
D03*
X0786162Y3324247D02*
D03*
D70*
X0790335Y3203046D02*
D03*
X0800335D02*
D03*
X0810335D02*
D03*
D71*
X0820375Y3276471D02*
D03*
X0787942Y3256393D02*
D03*
X0778145Y3246747D02*
D03*
X0872638Y3308662D02*
D03*
X0870473Y3304332D02*
D03*
X0872638Y3300001D02*
D03*
X0870473Y3295670D02*
D03*
X0872638Y3291339D02*
D03*
X0870473Y3287009D02*
D03*
X0872638Y3282678D02*
D03*
X0870473Y3278347D02*
D03*
X0872638Y3274017D02*
D03*
X0868307Y3308662D02*
D03*
X0866142Y3304332D02*
D03*
X0868307Y3300001D02*
D03*
Y3291339D02*
D03*
X0866142Y3287009D02*
D03*
X0868307Y3282678D02*
D03*
X0866142Y3278347D02*
D03*
X0868307Y3274017D02*
D03*
X0863977Y3308662D02*
D03*
X0861811Y3304332D02*
D03*
X0863977Y3300001D02*
D03*
X0861811Y3287009D02*
D03*
X0863977Y3282678D02*
D03*
X0861811Y3278347D02*
D03*
X0863977Y3274017D02*
D03*
X0857481Y3312993D02*
D03*
X0859646Y3308662D02*
D03*
X0857481Y3304332D02*
D03*
X0859646Y3300001D02*
D03*
Y3282678D02*
D03*
X0857481Y3278347D02*
D03*
X0859646Y3274017D02*
D03*
X0853150Y3312993D02*
D03*
X0855315Y3308662D02*
D03*
X0853150Y3304332D02*
D03*
X0855315Y3300001D02*
D03*
X0853150Y3278347D02*
D03*
X0855315Y3274017D02*
D03*
X0848819Y3321655D02*
D03*
X0850984Y3317324D02*
D03*
Y3308662D02*
D03*
X0848819Y3278347D02*
D03*
X0850984Y3274017D02*
D03*
X0846654Y3325985D02*
D03*
Y3274017D02*
D03*
X0842323Y3282678D02*
D03*
Y3274017D02*
D03*
X0837992Y3325985D02*
D03*
Y3291339D02*
D03*
X0833662Y3325985D02*
D03*
X0831496Y3261024D02*
D03*
Y3243702D02*
D03*
Y3235040D02*
D03*
Y3226379D02*
D03*
Y3217717D02*
D03*
Y3209056D02*
D03*
Y3200395D02*
D03*
X0829331Y3325985D02*
D03*
Y3317324D02*
D03*
X0827166Y3312993D02*
D03*
Y3261024D02*
D03*
Y3243702D02*
D03*
X0829331Y3239371D02*
D03*
X0827166Y3235040D02*
D03*
X0829331Y3230710D02*
D03*
X0827166Y3226379D02*
D03*
X0829331Y3222048D02*
D03*
X0827166Y3217717D02*
D03*
X0829331Y3213387D02*
D03*
X0827166Y3209056D02*
D03*
X0829331Y3204725D02*
D03*
X0827166Y3200395D02*
D03*
X0825000Y3325985D02*
D03*
Y3317324D02*
D03*
X0822835Y3261024D02*
D03*
Y3243702D02*
D03*
X0825000Y3239371D02*
D03*
X0822835Y3235040D02*
D03*
X0825000Y3230710D02*
D03*
Y3222048D02*
D03*
X0822835Y3217717D02*
D03*
X0825000Y3213387D02*
D03*
X0822835Y3209056D02*
D03*
X0825000Y3204725D02*
D03*
X0820669Y3325985D02*
D03*
X0818504Y3261024D02*
D03*
X0820669Y3239371D02*
D03*
X0818504Y3235040D02*
D03*
Y3217717D02*
D03*
X0820669Y3213387D02*
D03*
X0818504Y3209056D02*
D03*
X0816339Y3325985D02*
D03*
X0814174Y3217717D02*
D03*
X0816339Y3213387D02*
D03*
X0814174Y3209056D02*
D03*
X0812008Y3317324D02*
D03*
Y3300001D02*
D03*
X0809843Y3217717D02*
D03*
X0812008Y3213387D02*
D03*
X0809843Y3209056D02*
D03*
X0807677Y3274017D02*
D03*
Y3213387D02*
D03*
X0803347Y3317324D02*
D03*
Y3308662D02*
D03*
X0799016Y3317324D02*
D03*
X0796851Y3312993D02*
D03*
X0799016Y3308662D02*
D03*
X0796851Y3304332D02*
D03*
X0799016Y3300001D02*
D03*
X0794685D02*
D03*
X0788189Y3209056D02*
D03*
X0783858D02*
D03*
X0781693Y3317324D02*
D03*
Y3308662D02*
D03*
X0779528Y3304332D02*
D03*
Y3209056D02*
D03*
X0781693Y3204725D02*
D03*
X0777362Y3317324D02*
D03*
Y3308662D02*
D03*
X0775197Y3304332D02*
D03*
X0777362Y3300001D02*
D03*
Y3256694D02*
D03*
X0775197Y3209056D02*
D03*
X0777362Y3204725D02*
D03*
X0770866Y3330316D02*
D03*
Y3209056D02*
D03*
X0773032Y3204725D02*
D03*
X0766536Y3330316D02*
D03*
X0768701Y3325985D02*
D03*
X0766536Y3321655D02*
D03*
X0768701Y3265355D02*
D03*
Y3256694D02*
D03*
X0766536Y3252363D02*
D03*
Y3243702D02*
D03*
Y3217717D02*
D03*
Y3209056D02*
D03*
X0768701Y3204725D02*
D03*
X0762205Y3330316D02*
D03*
X0764370Y3325985D02*
D03*
X0762205Y3321655D02*
D03*
X0764370Y3317324D02*
D03*
X0762205Y3295670D02*
D03*
Y3217717D02*
D03*
Y3200395D02*
D03*
X0757874Y3330316D02*
D03*
X0760040Y3325985D02*
D03*
X0757874Y3321655D02*
D03*
X0760040Y3317324D02*
D03*
X0757874Y3312993D02*
D03*
Y3295670D02*
D03*
Y3217717D02*
D03*
X0760040Y3204725D02*
D03*
X0757874Y3200395D02*
D03*
X0755709Y3317324D02*
D03*
X0753544Y3312993D02*
D03*
X0755709Y3308662D02*
D03*
Y3300001D02*
D03*
X0753544Y3295670D02*
D03*
Y3209056D02*
D03*
X0755709Y3204725D02*
D03*
X0753544Y3200395D02*
D03*
X0751378Y3317324D02*
D03*
X0749213Y3312993D02*
D03*
X0751378Y3308662D02*
D03*
Y3300001D02*
D03*
X0749213Y3295670D02*
D03*
X0751378Y3265355D02*
D03*
Y3213387D02*
D03*
X0749213Y3209056D02*
D03*
X0751378Y3204725D02*
D03*
X0749213Y3200395D02*
D03*
X0744882Y3330316D02*
D03*
X0747048Y3325985D02*
D03*
X0744882Y3321655D02*
D03*
X0747048Y3317324D02*
D03*
X0744882Y3312993D02*
D03*
X0747048Y3308662D02*
D03*
X0744882Y3304332D02*
D03*
Y3217717D02*
D03*
X0747048Y3213387D02*
D03*
X0744882Y3209056D02*
D03*
X0747048Y3204725D02*
D03*
X0744882Y3200395D02*
D03*
X0742717Y3317324D02*
D03*
X0740551Y3312993D02*
D03*
X0742717Y3308662D02*
D03*
X0740551Y3304332D02*
D03*
X0742717Y3300001D02*
D03*
X0740551Y3217717D02*
D03*
Y3200395D02*
D03*
X0738386Y3308662D02*
D03*
X0736221Y3304332D02*
D03*
X0738386Y3300001D02*
D03*
Y3230710D02*
D03*
X0734055Y3308662D02*
D03*
X0731890Y3304332D02*
D03*
X0729725Y3308662D02*
D03*
X0727559Y3304332D02*
D03*
Y3287009D02*
D03*
Y3278347D02*
D03*
Y3269686D02*
D03*
Y3261024D02*
D03*
Y3252363D02*
D03*
Y3243702D02*
D03*
Y3226379D02*
D03*
X0729725Y3222048D02*
D03*
X0723229Y3312993D02*
D03*
X0725394Y3308662D02*
D03*
X0723229Y3304332D02*
D03*
Y3287009D02*
D03*
X0725394Y3282678D02*
D03*
X0723229Y3278347D02*
D03*
X0725394Y3274017D02*
D03*
X0723229Y3269686D02*
D03*
X0725394Y3265355D02*
D03*
X0723229Y3261024D02*
D03*
X0725394Y3256694D02*
D03*
X0723229Y3252363D02*
D03*
X0725394Y3248032D02*
D03*
X0723229Y3243702D02*
D03*
X0725394Y3239371D02*
D03*
X0723229Y3226379D02*
D03*
X0725394Y3222048D02*
D03*
X0723229Y3217717D02*
D03*
X0787698Y3295960D02*
D03*
X0856595Y3286511D02*
D03*
X0824902Y3265054D02*
D03*
X0823328Y3292613D02*
D03*
X0838091Y3303243D02*
D03*
X0832580Y3317613D02*
D03*
X0746556Y3276078D02*
D03*
X0789469Y3289045D02*
D03*
X0786910Y3291154D02*
D03*
X0784548Y3294779D02*
D03*
X0775296Y3224306D02*
D03*
X0778249D02*
D03*
X0778052Y3221550D02*
D03*
X0776280Y3219385D02*
D03*
X0796950Y3216826D02*
D03*
X0770178Y3217810D02*
D03*
X0778052Y3238873D02*
D03*
X0788485Y3239267D02*
D03*
X0800887Y3252653D02*
D03*
X0800431Y3245173D02*
D03*
X0801168Y3235937D02*
D03*
X0801183Y3238905D02*
D03*
X0798525Y3267220D02*
D03*
X0795769Y3268007D02*
D03*
X0811713Y3275881D02*
D03*
X0812698Y3296550D02*
D03*
X0807383Y3276669D02*
D03*
X0797881Y3289070D02*
D03*
X0811516Y3266039D02*
D03*
X0824902Y3270763D02*
D03*
X0831005Y3277850D02*
D03*
X0834745Y3282574D02*
D03*
X0835335Y3279818D02*
D03*
X0811713Y3270645D02*
D03*
X0839272Y3318991D02*
D03*
X0812894Y3321157D02*
D03*
X0798524Y3329700D02*
D03*
X0796556Y3315921D02*
D03*
X0787894Y3318401D02*
D03*
X0822177Y3256123D02*
D03*
X0825144Y3256022D02*
D03*
X0819209Y3256077D02*
D03*
X0816252Y3256339D02*
D03*
X0810926Y3220763D02*
D03*
X0806005Y3220566D02*
D03*
X0769390Y3236118D02*
D03*
X0740257Y3238283D02*
D03*
X0761055Y3288547D02*
D03*
X0743997Y3290448D02*
D03*
X0828249Y3249567D02*
D03*
X0825887D02*
D03*
X0832973Y3256022D02*
D03*
X0830414D02*
D03*
X0827855D02*
D03*
X0813879Y3255803D02*
D03*
X0811910Y3254227D02*
D03*
X0812585Y3234017D02*
D03*
X0815231Y3235363D02*
D03*
X0816947Y3237785D02*
D03*
X0817407Y3240718D02*
D03*
Y3243686D02*
D03*
Y3246655D02*
D03*
X0823423Y3249567D02*
D03*
D72*
X0801162Y3321747D02*
D03*
X0801477Y3326747D02*
D03*
X0796162Y3321747D02*
D03*
Y3326747D02*
D03*
X0791162Y3321747D02*
D03*
Y3326747D02*
D03*
D73*
X0754036Y3227456D02*
D03*
X0759036D02*
D03*
X0764036D02*
D03*
X0785965D02*
D03*
X0790965D02*
D03*
X0795965D02*
D03*
X0800965D02*
D03*
X0805965D02*
D03*
X0810965D02*
D03*
X0815965D02*
D03*
X0820965D02*
D03*
Y3282574D02*
D03*
X0815965D02*
D03*
X0810965D02*
D03*
X0805965D02*
D03*
X0800965D02*
D03*
X0795965D02*
D03*
X0790965Y3282613D02*
D03*
X0785965Y3282574D02*
D03*
X0764036D02*
D03*
X0759036D02*
D03*
X0754036D02*
D03*
D74*
X0728643Y3297042D02*
D03*
X0728446Y3232968D02*
D03*
D75*
X0738288Y3242810D02*
D03*
Y3247731D02*
D03*
Y3252653D02*
D03*
Y3257574D02*
D03*
Y3262495D02*
D03*
Y3267416D02*
D03*
Y3272338D02*
D03*
Y3277259D02*
D03*
Y3282180D02*
D03*
Y3287102D02*
D03*
M02*
