G04*
G04 #@! TF.GenerationSoftware,Altium Limited,Altium Designer,19.0.15 (446)*
G04*
G04 Layer_Color=32896*
%FSAX25Y25*%
%MOIN*%
G70*
G01*
G75*
%ADD10C,0.05906*%
%ADD11C,0.00984*%
%ADD12C,0.01000*%
%ADD14C,0.00787*%
%ADD16C,0.00709*%
%ADD17C,0.00591*%
%ADD81C,0.00472*%
D10*
X0739863Y3322338D02*
G03*
X0739863Y3322338I-0007874J0000000D01*
G01*
Y3209346D02*
G03*
X0739863Y3209346I-0007874J0000000D01*
G01*
X0872540Y3209346D02*
G03*
X0872540Y3209346I-0007874J0000000D01*
G01*
Y3322338D02*
G03*
X0872540Y3322338I-0007874J0000000D01*
G01*
D11*
X0854233Y3290842D02*
Y3289530D01*
Y3290186D01*
X0851609D01*
Y3290842D01*
Y3287562D02*
X0854233D01*
X0852921D01*
X0852265Y3286906D01*
X0851609Y3286250D01*
Y3285594D01*
X0854233Y3283626D02*
X0851609D01*
Y3281659D01*
X0852265Y3281002D01*
X0854233D01*
X0851609Y3279034D02*
Y3277723D01*
X0852265Y3277067D01*
X0854233D01*
Y3279034D01*
X0853577Y3279691D01*
X0852921Y3279034D01*
Y3277067D01*
X0854233Y3275755D02*
Y3273787D01*
X0853577Y3273131D01*
X0852921Y3273787D01*
Y3275099D01*
X0852265Y3275755D01*
X0851609Y3275099D01*
Y3273131D01*
X0854233Y3271819D02*
X0853577D01*
Y3271163D01*
X0854233D01*
Y3271819D01*
Y3266571D02*
Y3267883D01*
X0853577Y3268539D01*
X0852265D01*
X0851609Y3267883D01*
Y3266571D01*
X0852265Y3265915D01*
X0852921D01*
Y3268539D01*
X0851609Y3264603D02*
X0853577D01*
X0854233Y3263948D01*
Y3261980D01*
X0851609D01*
X0861123Y3288874D02*
Y3290186D01*
X0860467Y3290842D01*
X0859155D01*
X0858499Y3290186D01*
Y3288874D01*
X0859155Y3288218D01*
X0859811D01*
Y3290842D01*
X0861123Y3286906D02*
Y3285594D01*
Y3286250D01*
X0857187D01*
Y3286906D01*
X0861123Y3281659D02*
Y3282970D01*
X0860467Y3283626D01*
X0859155D01*
X0858499Y3282970D01*
Y3281659D01*
X0859155Y3281002D01*
X0859811D01*
Y3283626D01*
X0862435Y3279691D02*
X0858499D01*
Y3277723D01*
X0859155Y3277067D01*
X0860467D01*
X0861123Y3277723D01*
Y3279691D01*
X0857187Y3275755D02*
X0861123D01*
X0859155D01*
X0858499Y3275099D01*
Y3273787D01*
X0859155Y3273131D01*
X0861123D01*
X0858499Y3271163D02*
Y3269851D01*
X0859155Y3269195D01*
X0861123D01*
Y3271163D01*
X0860467Y3271819D01*
X0859811Y3271163D01*
Y3269195D01*
X0861123Y3267883D02*
X0858499D01*
Y3265915D01*
X0859155Y3265260D01*
X0861123D01*
X0857843Y3263292D02*
X0858499D01*
Y3263948D01*
Y3262636D01*
Y3263292D01*
X0860467D01*
X0861123Y3262636D01*
X0859155Y3260668D02*
Y3258044D01*
X0861123Y3256732D02*
Y3255420D01*
Y3256076D01*
X0857187D01*
Y3256732D01*
X0861123Y3252796D02*
Y3251484D01*
X0860467Y3250829D01*
X0859155D01*
X0858499Y3251484D01*
Y3252796D01*
X0859155Y3253452D01*
X0860467D01*
X0861123Y3252796D01*
X0858499Y3249517D02*
X0861123D01*
X0859811D01*
X0859155Y3248861D01*
X0858499Y3248204D01*
Y3247549D01*
Y3244925D02*
Y3243613D01*
X0859155Y3242957D01*
X0861123D01*
Y3244925D01*
X0860467Y3245581D01*
X0859811Y3244925D01*
Y3242957D01*
X0858893Y3239267D02*
X0861516Y3237955D01*
X0858893Y3236643D01*
X0861516Y3235331D02*
Y3234019D01*
Y3234675D01*
X0857581D01*
X0858237Y3235331D01*
D12*
X0783662Y3330747D02*
X0808662D01*
Y3317747D02*
Y3330747D01*
X0783662Y3317747D02*
X0808662D01*
X0783662D02*
Y3330747D01*
X0754430Y3235330D02*
Y3243204D01*
X0763091D01*
Y3235330D02*
Y3243204D01*
X0754430Y3235330D02*
X0763091D01*
X0766831Y3227456D02*
X0782973D01*
X0766831Y3282613D02*
X0782973D01*
X0823721Y3282574D02*
X0828839D01*
Y3227456D02*
Y3282574D01*
X0823643Y3227456D02*
X0828761D01*
D14*
X0750099D02*
Y3282574D01*
X0751398D01*
X0750099Y3227456D02*
X0751398D01*
X0719784Y3300045D02*
X0721753D01*
X0735631D02*
X0740847D01*
Y3230212D02*
Y3240448D01*
X0735335Y3230212D02*
X0740847D01*
Y3289611D02*
Y3300045D01*
X0719784Y3230212D02*
X0721753D01*
X0719784D02*
Y3300045D01*
D16*
X0790912Y3210854D02*
X0791437Y3210329D01*
Y3209280D01*
X0790912Y3208755D01*
X0788813D01*
X0788288Y3209280D01*
Y3210329D01*
X0788813Y3210854D01*
X0789862D01*
Y3209805D01*
X0788288Y3211904D02*
X0791437D01*
X0788288Y3214003D01*
X0791437D01*
Y3215052D02*
X0788288D01*
Y3216627D01*
X0788813Y3217151D01*
X0790912D01*
X0791437Y3216627D01*
Y3215052D01*
X0800755Y3211248D02*
X0801279Y3210723D01*
Y3209674D01*
X0800755Y3209149D01*
X0800230D01*
X0799705Y3209674D01*
Y3210723D01*
X0799180Y3211248D01*
X0798656D01*
X0798131Y3210723D01*
Y3209674D01*
X0798656Y3209149D01*
X0801279Y3212297D02*
X0798131D01*
Y3213872D01*
X0798656Y3214397D01*
X0800755D01*
X0801279Y3213872D01*
Y3212297D01*
X0798131Y3215446D02*
X0800230D01*
X0801279Y3216496D01*
X0800230Y3217545D01*
X0798131D01*
X0799705D01*
Y3215446D01*
X0811581Y3211248D02*
X0812106Y3210723D01*
Y3209674D01*
X0811581Y3209149D01*
X0811057D01*
X0810532Y3209674D01*
Y3210723D01*
X0810007Y3211248D01*
X0809482D01*
X0808957Y3210723D01*
Y3209674D01*
X0809482Y3209149D01*
X0811581Y3214397D02*
X0812106Y3213872D01*
Y3212822D01*
X0811581Y3212297D01*
X0809482D01*
X0808957Y3212822D01*
Y3213872D01*
X0809482Y3214397D01*
X0812106Y3215446D02*
X0808957D01*
Y3217545D01*
X0822933Y3209149D02*
X0820834D01*
X0819784Y3210198D01*
X0820834Y3211248D01*
X0822933D01*
X0822408Y3214397D02*
X0822933Y3213872D01*
Y3212822D01*
X0822408Y3212297D01*
X0820309D01*
X0819784Y3212822D01*
Y3213872D01*
X0820309Y3214397D01*
X0822408Y3217545D02*
X0822933Y3217020D01*
Y3215971D01*
X0822408Y3215446D01*
X0820309D01*
X0819784Y3215971D01*
Y3217020D01*
X0820309Y3217545D01*
D17*
X0743998Y3243991D02*
X0746097D01*
X0747146Y3242942D01*
X0746097Y3241892D01*
X0743998D01*
X0744523Y3238744D02*
X0743998Y3239268D01*
Y3240318D01*
X0744523Y3240843D01*
X0746622D01*
X0747146Y3240318D01*
Y3239268D01*
X0746622Y3238744D01*
X0744523Y3235595D02*
X0743998Y3236120D01*
Y3237169D01*
X0744523Y3237694D01*
X0746622D01*
X0747146Y3237169D01*
Y3236120D01*
X0746622Y3235595D01*
D81*
X0747541Y3287888D02*
X0747934Y3288282D01*
X0748721D01*
X0749115Y3287888D01*
Y3286314D01*
X0748721Y3285920D01*
X0747934D01*
X0747541Y3286314D01*
Y3287101D01*
X0748328D01*
X0746754Y3285920D02*
Y3288282D01*
X0745179Y3285920D01*
Y3288282D01*
X0744392D02*
Y3285920D01*
X0743211D01*
X0742818Y3286314D01*
Y3287888D01*
X0743211Y3288282D01*
X0744392D01*
X0748721Y3278636D02*
X0747147D01*
X0747934D01*
Y3276275D01*
X0746360Y3278636D02*
X0744785Y3276275D01*
Y3278636D02*
X0746360Y3276275D01*
X0748721Y3271157D02*
Y3273518D01*
X0747541D01*
X0747147Y3273125D01*
Y3272337D01*
X0747541Y3271944D01*
X0748721D01*
X0747934D02*
X0747147Y3271157D01*
X0746360Y3273518D02*
X0744785Y3271157D01*
Y3273518D02*
X0746360Y3271157D01*
X0747738Y3268007D02*
X0748131Y3268400D01*
X0748918D01*
X0749312Y3268007D01*
Y3266432D01*
X0748918Y3266039D01*
X0748131D01*
X0747738Y3266432D01*
X0746950Y3268400D02*
X0745376D01*
X0746163D01*
Y3266039D01*
X0743015Y3268007D02*
X0743408Y3268400D01*
X0744195D01*
X0744589Y3268007D01*
Y3267613D01*
X0744195Y3267220D01*
X0743408D01*
X0743015Y3266826D01*
Y3266432D01*
X0743408Y3266039D01*
X0744195D01*
X0744589Y3266432D01*
X0748918Y3261314D02*
Y3263676D01*
X0747737D01*
X0747344Y3263282D01*
Y3262495D01*
X0747737Y3262101D01*
X0748918D01*
X0748131D02*
X0747344Y3261314D01*
X0746557Y3263676D02*
X0744982D01*
X0745770D01*
Y3261314D01*
X0742621Y3263282D02*
X0743014Y3263676D01*
X0743802D01*
X0744195Y3263282D01*
Y3262888D01*
X0743802Y3262495D01*
X0743014D01*
X0742621Y3262101D01*
Y3261708D01*
X0743014Y3261314D01*
X0743802D01*
X0744195Y3261708D01*
X0748721Y3259055D02*
X0747934D01*
X0748328D01*
Y3256694D01*
X0748721D01*
X0747934D01*
X0745573Y3259055D02*
X0746360D01*
X0746753Y3258662D01*
Y3257087D01*
X0746360Y3256694D01*
X0745573D01*
X0745179Y3257087D01*
Y3258662D01*
X0745573Y3259055D01*
X0744392Y3256694D02*
X0743605D01*
X0743998D01*
Y3259055D01*
X0744392Y3258662D01*
X0812762Y3320697D02*
X0813287Y3320172D01*
Y3319122D01*
X0812762Y3318598D01*
X0810663D01*
X0810139Y3319122D01*
Y3320172D01*
X0810663Y3320697D01*
X0813287Y3323321D02*
Y3322271D01*
X0812762Y3321746D01*
X0810663D01*
X0810139Y3322271D01*
Y3323321D01*
X0810663Y3323845D01*
X0812762D01*
X0813287Y3323321D01*
X0810139Y3324895D02*
X0813287D01*
X0810139Y3326994D01*
X0813287D01*
X0810139Y3328043D02*
Y3329093D01*
Y3328568D01*
X0813287D01*
X0812762Y3328043D01*
X0782185Y3318795D02*
Y3319844D01*
Y3319319D01*
X0779036D01*
Y3318795D01*
Y3319844D01*
X0781660Y3323517D02*
X0782185Y3322993D01*
Y3321943D01*
X0781660Y3321418D01*
X0779561D01*
X0779036Y3321943D01*
Y3322993D01*
X0779561Y3323517D01*
X0781660Y3326666D02*
X0782185Y3326141D01*
Y3325092D01*
X0781660Y3324567D01*
X0781135D01*
X0780611Y3325092D01*
Y3326141D01*
X0780086Y3326666D01*
X0779561D01*
X0779036Y3326141D01*
Y3325092D01*
X0779561Y3324567D01*
X0779036Y3327716D02*
X0782185D01*
Y3329290D01*
X0781660Y3329815D01*
X0780611D01*
X0780086Y3329290D01*
Y3327716D01*
X0750690Y3225093D02*
Y3222469D01*
X0750165Y3221944D01*
X0749115D01*
X0748591Y3222469D01*
Y3225093D01*
X0747541Y3221944D02*
X0746492D01*
X0747016D01*
Y3225093D01*
X0747541Y3224568D01*
X0740453Y3302259D02*
Y3305408D01*
X0738879D01*
X0738354Y3304883D01*
Y3303833D01*
X0738879Y3303308D01*
X0740453D01*
X0737305Y3302259D02*
X0736255D01*
X0736780D01*
Y3305408D01*
X0737305Y3304883D01*
M02*
