G04*
G04 #@! TF.GenerationSoftware,Altium Limited,Altium Designer,19.0.15 (446)*
G04*
G04 Layer_Color=8388736*
%FSAX25Y25*%
%MOIN*%
G70*
G01*
G75*
%ADD39R,0.04343X0.03162*%
%ADD40R,0.03950X0.03950*%
%ADD41R,0.03162X0.04343*%
%ADD42R,0.03950X0.03950*%
%ADD43R,0.04737X0.04343*%
%ADD44R,0.03241X0.03044*%
%ADD45R,0.06706X0.14186*%
%ADD46R,0.04737X0.14580*%
%ADD47R,0.06706X0.06706*%
G04:AMPARAMS|DCode=48|XSize=67.06mil|YSize=67.06mil|CornerRadius=9.91mil|HoleSize=0mil|Usage=FLASHONLY|Rotation=0.000|XOffset=0mil|YOffset=0mil|HoleType=Round|Shape=RoundedRectangle|*
%AMROUNDEDRECTD48*
21,1,0.06706,0.04724,0,0,0.0*
21,1,0.04724,0.06706,0,0,0.0*
1,1,0.01981,0.02362,-0.02362*
1,1,0.01981,-0.02362,-0.02362*
1,1,0.01981,-0.02362,0.02362*
1,1,0.01981,0.02362,0.02362*
%
%ADD48ROUNDEDRECTD48*%
%ADD49R,0.02769X0.07493*%
%ADD50R,0.07493X0.02769*%
%ADD51R,0.07887X0.05918*%
%ADD52R,0.03162X0.03320*%
%ADD53R,0.04737X0.03162*%
%ADD54R,0.04540X0.02690*%
%ADD55R,0.03556X0.01981*%
%ADD56R,0.02769X0.02769*%
%ADD57R,0.04343X0.05918*%
%ADD58C,0.09461*%
%ADD59C,0.04343*%
%ADD60C,0.06706*%
G36*
X0755025Y3293900D02*
X0755025Y3293900D01*
X0755026Y3293900D01*
X0755318Y3293899D01*
X0755344Y3293897D01*
X0755369Y3293896D01*
X0755369Y3293896D01*
X0755370Y3293895D01*
X0755395Y3293890D01*
X0755420Y3293885D01*
X0755421Y3293885D01*
X0755421Y3293885D01*
X0755445Y3293877D01*
X0755470Y3293869D01*
X0755471Y3293868D01*
X0755471Y3293868D01*
X0755494Y3293857D01*
X0755517Y3293845D01*
X0755517Y3293845D01*
X0755518Y3293845D01*
X0755540Y3293830D01*
X0755561Y3293816D01*
X0755561Y3293816D01*
X0755561Y3293816D01*
X0755581Y3293799D01*
X0755600Y3293782D01*
X0755600Y3293781D01*
X0755601Y3293781D01*
X0755616Y3293763D01*
X0755635Y3293742D01*
X0755635Y3293742D01*
X0755635Y3293741D01*
X0755649Y3293720D01*
X0755664Y3293699D01*
X0755664Y3293698D01*
X0755664Y3293698D01*
X0755676Y3293674D01*
X0755687Y3293652D01*
X0755687Y3293651D01*
X0755687Y3293650D01*
X0755696Y3293626D01*
X0755704Y3293602D01*
X0755704Y3293601D01*
X0755704Y3293601D01*
X0755709Y3293575D01*
X0755714Y3293550D01*
X0755714Y3293550D01*
X0755714Y3293549D01*
X0755716Y3293523D01*
X0755717Y3293498D01*
Y3293497D01*
D01*
D01*
X0755716Y3285822D01*
X0755716Y3285822D01*
X0755716Y3285821D01*
X0755714Y3285796D01*
X0755712Y3285769D01*
X0755712Y3285769D01*
X0755712Y3285769D01*
X0755708Y3285746D01*
X0755702Y3285718D01*
X0755702Y3285718D01*
X0755702Y3285717D01*
X0755695Y3285696D01*
X0755685Y3285668D01*
X0755685Y3285668D01*
X0755685Y3285668D01*
X0755674Y3285645D01*
X0755662Y3285621D01*
X0755662Y3285621D01*
X0755662Y3285621D01*
X0755646Y3285597D01*
X0755633Y3285578D01*
X0755633Y3285577D01*
X0755633Y3285577D01*
X0755614Y3285556D01*
X0755598Y3285538D01*
X0755598Y3285538D01*
X0755598Y3285538D01*
X0755580Y3285522D01*
X0755559Y3285504D01*
X0755559Y3285503D01*
X0755558Y3285503D01*
X0755539Y3285490D01*
X0755515Y3285475D01*
X0755515Y3285474D01*
X0755515Y3285474D01*
X0755491Y3285463D01*
X0755468Y3285452D01*
X0755468Y3285451D01*
X0755468Y3285451D01*
X0755444Y3285443D01*
X0755419Y3285434D01*
X0755418Y3285434D01*
X0755418Y3285434D01*
X0755393Y3285429D01*
X0755367Y3285424D01*
X0755367Y3285424D01*
X0755367Y3285424D01*
X0755340Y3285423D01*
X0755315Y3285421D01*
X0755315Y3285421D01*
X0755314Y3285421D01*
X0755019Y3285421D01*
X0751576Y3285421D01*
X0751576D01*
X0751575D01*
X0751523Y3285425D01*
X0751472Y3285435D01*
X0751422Y3285452D01*
X0751375Y3285475D01*
X0751331Y3285504D01*
X0751298Y3285534D01*
X0751292Y3285538D01*
Y3285539D01*
X0751292D01*
X0751287Y3285544D01*
X0751257Y3285578D01*
X0751228Y3285622D01*
X0751205Y3285669D01*
X0751188Y3285718D01*
X0751178Y3285770D01*
X0751175Y3285822D01*
Y3285822D01*
Y3285822D01*
X0751175Y3292514D01*
X0751177Y3292543D01*
X0751178Y3292566D01*
X0751178Y3292567D01*
X0751178Y3292567D01*
X0751185Y3292600D01*
X0751188Y3292618D01*
X0751188Y3292618D01*
X0751188Y3292618D01*
X0751200Y3292652D01*
X0751205Y3292667D01*
X0751205Y3292668D01*
X0751205Y3292668D01*
X0751218Y3292693D01*
X0751228Y3292715D01*
X0751228Y3292715D01*
X0751228Y3292715D01*
X0751244Y3292738D01*
X0751257Y3292758D01*
X0751257Y3292758D01*
X0751258Y3292759D01*
X0751277Y3292781D01*
X0751292Y3292797D01*
X0752276Y3293783D01*
X0752276Y3293783D01*
X0752276Y3293783D01*
X0752295Y3293800D01*
X0752315Y3293818D01*
X0752315Y3293818D01*
X0752315Y3293818D01*
X0752336Y3293831D01*
X0752359Y3293847D01*
X0752359Y3293847D01*
X0752359Y3293847D01*
X0752382Y3293858D01*
X0752406Y3293870D01*
X0752406Y3293870D01*
X0752406Y3293870D01*
X0752437Y3293881D01*
X0752455Y3293887D01*
X0752455Y3293887D01*
X0752456Y3293887D01*
X0752483Y3293892D01*
X0752507Y3293897D01*
X0752507Y3293897D01*
X0752507Y3293897D01*
X0752530Y3293899D01*
X0752559Y3293901D01*
X0752559Y3293901D01*
X0752559Y3293901D01*
X0755025Y3293900D01*
D02*
G37*
D39*
X0809351Y3292220D02*
D03*
Y3286314D02*
D03*
X0820769Y3307636D02*
D03*
Y3301730D02*
D03*
X0795178Y3292220D02*
D03*
Y3286314D02*
D03*
X0807776Y3311905D02*
D03*
Y3305999D02*
D03*
X0802461Y3292220D02*
D03*
Y3286314D02*
D03*
X0787698Y3311708D02*
D03*
Y3305803D02*
D03*
X0832776Y3313873D02*
D03*
Y3307968D02*
D03*
X0781202Y3287631D02*
D03*
Y3281725D02*
D03*
X0838288Y3300684D02*
D03*
Y3294779D02*
D03*
X0744784Y3231196D02*
D03*
Y3237102D02*
D03*
Y3225291D02*
D03*
D40*
X0820470Y3295173D02*
D03*
X0826376D02*
D03*
X0820375Y3289070D02*
D03*
X0826280D02*
D03*
X0839863Y3308165D02*
D03*
X0845769D02*
D03*
X0830611Y3330803D02*
D03*
X0824312D02*
D03*
D41*
X0802461Y3298716D02*
D03*
X0808367D02*
D03*
X0818209Y3330803D02*
D03*
X0812304D02*
D03*
X0853642Y3283165D02*
D03*
X0847737D02*
D03*
D42*
X0814272Y3311708D02*
D03*
Y3305803D02*
D03*
X0820178Y3265448D02*
D03*
Y3271354D02*
D03*
X0745178Y3252850D02*
D03*
Y3246944D02*
D03*
X0751477Y3252850D02*
D03*
Y3246944D02*
D03*
X0863288Y3290448D02*
D03*
Y3296354D02*
D03*
X0745178Y3259149D02*
D03*
Y3265054D02*
D03*
D43*
X0840257Y3330999D02*
D03*
Y3314857D02*
D03*
X0846556D02*
D03*
Y3330999D02*
D03*
D44*
X0831201Y3249228D02*
D03*
Y3252929D02*
D03*
X0818997Y3249228D02*
D03*
Y3252929D02*
D03*
X0831005Y3270645D02*
D03*
Y3266944D02*
D03*
D45*
X0753249Y3327062D02*
D03*
X0779627D02*
D03*
D46*
X0762501Y3304425D02*
D03*
X0770375D02*
D03*
D47*
X0793060Y3241708D02*
D03*
X0783217D02*
D03*
X0773276D02*
D03*
X0793060Y3251550D02*
D03*
X0783217D02*
D03*
X0773375D02*
D03*
X0793060Y3261393D02*
D03*
X0783217Y3261393D02*
D03*
X0820335Y3203046D02*
D03*
D48*
X0773375Y3261393D02*
D03*
D49*
X0765887Y3273027D02*
D03*
X0769076D02*
D03*
X0772225D02*
D03*
X0775375D02*
D03*
X0778524D02*
D03*
X0781674D02*
D03*
X0784824D02*
D03*
X0787973D02*
D03*
X0791123D02*
D03*
X0794272D02*
D03*
X0797383D02*
D03*
X0800572D02*
D03*
X0800729Y3230094D02*
D03*
X0797418Y3230094D02*
D03*
X0794241D02*
D03*
X0791091Y3230098D02*
D03*
X0787942Y3230098D02*
D03*
X0784792Y3230094D02*
D03*
X0781642D02*
D03*
X0778493Y3230094D02*
D03*
X0775343Y3230094D02*
D03*
X0772194Y3230094D02*
D03*
X0769044D02*
D03*
X0765887D02*
D03*
D50*
X0806438Y3268893D02*
D03*
Y3265743D02*
D03*
Y3262555D02*
D03*
Y3259444D02*
D03*
Y3256295D02*
D03*
Y3253106D02*
D03*
X0806446Y3249976D02*
D03*
X0806446Y3246826D02*
D03*
X0806446Y3243676D02*
D03*
X0806446Y3240539D02*
D03*
X0806446Y3237381D02*
D03*
Y3234228D02*
D03*
X0759981Y3234247D02*
D03*
Y3237357D02*
D03*
Y3240546D02*
D03*
Y3243657D02*
D03*
Y3246806D02*
D03*
Y3249995D02*
D03*
Y3253106D02*
D03*
Y3256255D02*
D03*
Y3259405D02*
D03*
Y3262555D02*
D03*
Y3265743D02*
D03*
Y3268893D02*
D03*
D51*
X0838485Y3267023D02*
D03*
Y3257574D02*
D03*
Y3240251D02*
D03*
Y3227259D02*
D03*
X0872343Y3267023D02*
D03*
Y3227259D02*
D03*
Y3240251D02*
D03*
D52*
X0823406Y3252850D02*
D03*
X0827186D02*
D03*
D53*
X0856497Y3296944D02*
D03*
Y3289464D02*
D03*
X0845670D02*
D03*
Y3293204D02*
D03*
Y3296944D02*
D03*
D54*
X0801162Y3304936D02*
D03*
Y3312574D02*
D03*
X0793524Y3308755D02*
D03*
D55*
X0749312Y3292613D02*
D03*
Y3290645D02*
D03*
Y3288676D02*
D03*
Y3286708D02*
D03*
X0757580D02*
D03*
Y3288676D02*
D03*
Y3290645D02*
D03*
Y3292613D02*
D03*
D56*
X0753446Y3289661D02*
D03*
D57*
X0772737Y3291629D02*
D03*
X0765257D02*
D03*
X0755020Y3280212D02*
D03*
X0747540D02*
D03*
D58*
X0864666Y3322338D02*
D03*
Y3209346D02*
D03*
X0731989Y3322338D02*
D03*
Y3209346D02*
D03*
D59*
X0806162Y3328247D02*
D03*
Y3320247D02*
D03*
X0786162Y3324247D02*
D03*
D60*
X0790335Y3203046D02*
D03*
X0800335D02*
D03*
X0810335D02*
D03*
M02*
